<svg xmlns="http://www.w3.org/2000/svg" aria-label="Protected Datacenter" class="w-full rounded-md shadow-xl" viewBox="0 0 1511.5 1047.1"><style>@keyframes outline-fade{0%,to{opacity:0}50%{opacity:1}}.st0,.st1{fill:none;stroke:#2e4153;stroke-width:4;stroke-miterlimit:10}.st1{fill:red}.st2{opacity:.4}.st2,.st3{fill:#2e4153}.st4{fill:#293a49}.st5{fill:none;stroke:#000;stroke-width:4;stroke-miterlimit:10}.st6{fill:#7e8284}.st7{opacity:.6;fill:none;stroke:#000;stroke-width:4;stroke-linecap:round;stroke-miterlimit:10}.st8{fill:#54b734}.st9{fill:#64d0ff}.st10{fill:#bf42f4}.st11{opacity:.5;fill:none;stroke:#000;stroke-width:2;stroke-linecap:round;stroke-miterlimit:10}.st12{fill:#543636}.st13{fill:#422626}.st14{fill:#10639b}.st15{fill:#3b5139}.st16{fill:#283d25}.st17{fill:#514534}.st18{fill:#382f20}.st19{fill:#4d3b52}.st20{fill:#3c2742}.outline-anim{animation:outline-fade 8s ease-in-out infinite;will-change:opacity}</style><g class="outline-anim"><path d="M757.1 174.5v-163M1503.6 605.5l-746.5-431" class="st0" style="stroke:#a4bcdb;stroke-opacity:.5"/><path d="m10.5 605.5 746.6-431" class="st1" style="stroke:#a4bcdb;stroke-opacity:.5"/><path d="m10.5 605.5 746.6 431 746.5-431-746.5-431z" class="st2" style="display:inline;fill:#a4bcdb;fill-opacity:.3"/><path d="M757.1 174.5v-164l-746.6 431v164zM757.1 10.5v164l746.5 431v-164z" class="st2" style="display:inline;fill:#a4bcdb;fill-opacity:.3"/></g><path d="m671.4 95.3 86.6 50 86.6-50-86.6-50z" class="st3"/><path d="M758 245.3v-100l86.6-50v100z" class="st4"/><path d="M758 245.4v-100l-86.6-50v100z" class="st3"/><path d="m671.4 95.3 86.6 50v100-100l86.6-50" class="st5"/><path d="M671.4 95.3v100l86.6 50 86.6-50v-100l-86.6-50z" class="st5"/><path d="M746.3 203.9c-.5 1-1.8 1.3-2.7.7l-60.6-35c-1-.6-1.3-1.8-.7-2.7.6-1 1.8-1.3 2.7-.7l60.6 35c1 .5 1.3 1.7.7 2.7M746.3 215.9c-.5 1-1.8 1.3-2.7.7l-60.6-35c-1-.6-1.3-1.8-.7-2.7.6-1 1.8-1.3 2.7-.7l60.6 35c1 .5 1.3 1.7.7 2.7M746.3 227.9c-.5 1-1.8 1.3-2.7.7l-60.6-35c-1-.6-1.3-1.8-.7-2.7.6-1 1.8-1.3 2.7-.7l60.6 35c1 .5 1.3 1.7.7 2.7" class="st6"/><path d="m747.6 183.3-24.3-14" class="st7"/><circle cx="718.3" cy="166.3" r="2" class="st8"/><path d="m747.6 174.3-24.3-14" class="st7"/><circle cx="718.3" cy="157.3" r="2" class="st8"/><path d="m747.6 164.3-24.3-14" class="st7"/><circle cx="718.3" cy="147.3" r="2" class="st8"/><path d="m709.6 161.3-24.3-14" class="st7"/><circle cx="680.3" cy="144.3" r="2" class="st8"/><path d="m747.6 192.3-24.3-14" class="st7"/><circle cx="718.3" cy="175.3" r="2" class="st8"/><path d="m709.6 170.3-24.3-14" class="st7"/><circle cx="680.3" cy="153.3" r="2" class="st8"/><path d="m709.6 152.3-24.3-14" class="st7"/><circle cx="680.3" cy="135.3" r="2" class="st8"/><path d="m709.6 142.3-24.3-14" class="st7"/><circle cx="680.3" cy="125.3" r="2" class="st8"/><circle cx="682.9" cy="115" r="3.5" class="st9"/><circle cx="692.3" cy="120.6" r="3.5" class="st10"/><path d="m819.5 201.9 17.3-10M819.5 197.9l17.3-10M819.5 193.9l17.3-10M819.5 189.9l17.3-10M819.5 185.9l17.3-10" class="st11"/><path d="m775.4 210.7 86.6 50 86.6-50-86.6-50z" class="st12"/><path d="M862 360.7v-100l86.6-50v100z" class="st13"/><path d="M862 360.7v-100l-86.6-50v100z" class="st12"/><path d="m775.4 210.7 86.6 50v100-100l86.6-50" class="st5"/><path d="M775.4 210.7v100l86.6 50 86.6-50v-100l-86.6-50z" class="st5"/><path d="M850.4 319.3c-.5 1-1.8 1.3-2.7.7L787 285c-1-.5-1.3-1.8-.7-2.7.6-1 1.8-1.3 2.7-.7l60.6 35c1 .5 1.3 1.7.8 2.7M850.4 331.3c-.5 1-1.8 1.3-2.7.7L787 297c-1-.5-1.3-1.8-.7-2.7.6-1 1.8-1.3 2.7-.7l60.6 35c1 .5 1.3 1.7.8 2.7M850.4 343.3c-.5 1-1.8 1.3-2.7.7L787 309c-1-.5-1.3-1.8-.7-2.7.6-1 1.8-1.3 2.7-.7l60.6 35c1 .5 1.3 1.7.8 2.7" class="st14"/><path d="m851.6 298.7-24.3-14" class="st7"/><circle cx="822.3" cy="281.7" r="2" class="st8"/><path d="m851.6 289.7-24.3-14" class="st7"/><circle cx="822.3" cy="272.7" r="2" class="st8"/><path d="m851.6 279.7-24.3-14" class="st7"/><circle cx="822.3" cy="262.7" r="2" class="st8"/><path d="m813.6 276.7-24.3-14" class="st7"/><circle cx="784.3" cy="259.7" r="2" class="st8"/><path d="m851.6 307.7-24.3-14" class="st7"/><circle cx="822.3" cy="290.7" r="2" class="st8"/><path d="m813.6 285.7-24.3-14" class="st7"/><circle cx="784.3" cy="268.7" r="2" class="st8"/><path d="m813.6 267.7-24.3-14" class="st7"/><circle cx="784.3" cy="250.7" r="2" class="st8"/><path d="m813.6 257.7-24.3-14" class="st7"/><circle cx="784.3" cy="240.7" r="2" class="st8"/><circle cx="786.9" cy="230.4" r="3.5" class="st9"/><circle cx="796.3" cy="235.9" r="3.5" class="st10"/><path d="m923.5 317.3 17.4-10M923.5 313.3l17.4-10M923.5 309.3l17.4-10M923.5 305.3l17.4-10M923.5 301.3l17.4-10" class="st11"/><path d="m878.5 273.1 86.6 50 86.6-50-86.6-50z" class="st12"/><path d="M965.1 423.1v-100l86.6-50v100z" class="st13"/><path d="M965.1 423.2v-100l-86.6-50v100z" class="st12"/><path d="m878.5 273.1 86.6 50v100-100l86.6-50" class="st5"/><path d="M878.5 273.1v100l86.6 50 86.6-50v-100l-86.6-50z" class="st5"/><path d="M953.5 381.7c-.5 1-1.8 1.3-2.7.7l-60.6-35c-1-.6-1.3-1.8-.7-2.7.5-1 1.8-1.3 2.7-.7l60.6 35c.9.5 1.2 1.7.7 2.7M953.5 393.7c-.5 1-1.8 1.3-2.7.7l-60.6-35c-1-.6-1.3-1.8-.7-2.7.5-1 1.8-1.3 2.7-.7l60.6 35c.9.5 1.2 1.7.7 2.7M953.5 405.7c-.5 1-1.8 1.3-2.7.7l-60.6-35c-1-.6-1.3-1.8-.7-2.7.5-1 1.8-1.3 2.7-.7l60.6 35c.9.5 1.2 1.7.7 2.7" class="st14"/><path d="m954.8 361.1-24.4-14" class="st7"/><circle cx="925.4" cy="344.1" r="2" class="st8"/><path d="m954.8 352.1-24.4-14" class="st7"/><circle cx="925.4" cy="335.1" r="2" class="st8"/><path d="m954.8 342.1-24.4-14" class="st7"/><circle cx="925.4" cy="325.1" r="2" class="st8"/><path d="m916.8 339.1-24.4-14" class="st7"/><circle cx="887.4" cy="322.1" r="2" class="st8"/><path d="m954.8 370.1-24.4-14" class="st7"/><circle cx="925.4" cy="353.1" r="2" class="st8"/><path d="m916.8 348.1-24.4-14" class="st7"/><circle cx="887.4" cy="331.1" r="2" class="st8"/><path d="m916.8 330.1-24.4-14" class="st7"/><circle cx="887.4" cy="313.1" r="2" class="st8"/><path d="m916.8 320.1-24.4-14" class="st7"/><circle cx="887.4" cy="303.1" r="2" class="st8"/><circle cx="890" cy="292.8" r="3.5" class="st9"/><circle cx="899.4" cy="298.3" r="3.5" class="st10"/><path d="m1026.7 379.7 17.3-10M1026.7 375.7l17.3-10M1026.7 371.7l17.3-10M1026.7 367.7l17.3-10M1026.7 363.7l17.3-10" class="st11"/><path d="m566.5 212.3 86.6 50 86.6-50-86.6-50z" class="st12"/><path d="M653.1 362.3v-100l86.6-50v100z" class="st13"/><path d="M653.1 362.3v-100l-86.6-50v100z" class="st12"/><path d="m566.5 212.3 86.6 50v100-100l86.6-50" class="st5"/><path d="M566.5 212.3v100l86.6 50 86.6-50v-100l-86.6-50z" class="st5"/><path d="M641.5 320.8c-.6 1-1.8 1.3-2.7.7l-60.6-35c-1-.6-1.3-1.8-.7-2.7.5-1 1.8-1.3 2.7-.7l60.6 35c.9.6 1.2 1.8.7 2.7M641.5 332.8c-.6 1-1.8 1.3-2.7.7l-60.6-35c-1-.6-1.3-1.8-.7-2.7.5-1 1.8-1.3 2.7-.7l60.6 35c.9.6 1.2 1.8.7 2.7M641.5 344.8c-.6 1-1.8 1.3-2.7.7l-60.6-35c-1-.6-1.3-1.8-.7-2.7.5-1 1.8-1.3 2.7-.7l60.6 35c.9.6 1.2 1.8.7 2.7" class="st14"/><path d="m642.7 300.3-24.3-14.1" class="st7"/><circle cx="613.4" cy="283.2" r="2" class="st8"/><path d="m642.7 291.3-24.3-14.1" class="st7"/><circle cx="613.4" cy="274.2" r="2" class="st8"/><path d="m642.7 281.3-24.3-14.1" class="st7"/><circle cx="613.4" cy="264.2" r="2" class="st8"/><path d="m604.7 278.3-24.3-14.1" class="st7"/><circle cx="575.4" cy="261.2" r="2" class="st8"/><path d="m642.7 309.3-24.3-14.1" class="st7"/><circle cx="613.4" cy="292.2" r="2" class="st8"/><path d="m604.7 287.3-24.3-14.1" class="st7"/><circle cx="575.4" cy="270.2" r="2" class="st8"/><path d="m604.7 269.3-24.3-14.1" class="st7"/><circle cx="575.4" cy="252.2" r="2" class="st8"/><path d="m604.7 259.3-24.3-14.1" class="st7"/><circle cx="575.4" cy="242.2" r="2" class="st8"/><circle cx="578" cy="232" r="3.5" class="st9"/><circle cx="587.4" cy="237.5" r="3.5" class="st10"/><path d="m714.7 318.9 17.3-10M714.7 314.9l17.3-10M714.7 310.9l17.3-10M714.7 306.9l17.3-10M714.7 302.9l17.3-10" class="st11"/><path d="m462.5 273.8 86.6 50 86.6-50-86.6-50z" class="st12"/><path d="M549.1 423.8v-100l86.6-50v100z" class="st13"/><path d="M549.1 423.8v-100l-86.6-50v100z" class="st12"/><path d="m462.5 273.8 86.6 50v100-100l86.6-50" class="st5"/><path d="M462.5 273.8v100l86.6 50 86.6-50v-100l-86.6-50z" class="st5"/><path d="M537.5 382.3c-.6 1-1.8 1.3-2.7.7l-60.6-35c-1-.5-1.3-1.8-.7-2.7.5-1 1.8-1.3 2.7-.7l60.6 35c.9.6 1.2 1.8.7 2.7M537.5 394.3c-.6 1-1.8 1.3-2.7.7l-60.6-35c-1-.5-1.3-1.8-.7-2.7.5-1 1.8-1.3 2.7-.7l60.6 35c.9.6 1.2 1.8.7 2.7M537.5 406.3c-.6 1-1.8 1.3-2.7.7l-60.6-35c-1-.5-1.3-1.8-.7-2.7.5-1 1.8-1.3 2.7-.7l60.6 35c.9.6 1.2 1.8.7 2.7" class="st14"/><path d="m538.7 361.8-24.3-14.1" class="st7"/><circle cx="509.4" cy="344.7" r="2" class="st8"/><path d="m538.7 352.8-24.3-14.1" class="st7"/><circle cx="509.4" cy="335.7" r="2" class="st8"/><path d="m538.7 342.8-24.3-14.1" class="st7"/><circle cx="509.4" cy="325.7" r="2" class="st8"/><path d="m500.7 339.8-24.3-14.1" class="st7"/><circle cx="471.4" cy="322.7" r="2" class="st8"/><path d="m538.7 370.8-24.3-14.1" class="st7"/><circle cx="509.4" cy="353.7" r="2" class="st8"/><path d="m500.7 348.8-24.3-14.1" class="st7"/><circle cx="471.4" cy="331.7" r="2" class="st8"/><path d="m500.7 330.8-24.3-14.1" class="st7"/><circle cx="471.4" cy="313.7" r="2" class="st8"/><path d="m500.7 320.8-24.3-14.1" class="st7"/><circle cx="471.4" cy="303.7" r="2" class="st8"/><circle cx="474" cy="293.5" r="3.5" class="st9"/><circle cx="483.4" cy="299" r="3.5" class="st10"/><path d="m610.7 380.4 17.3-10M610.7 376.4l17.3-10M610.7 372.4l17.3-10M610.7 368.4l17.3-10M610.7 364.4l17.3-10" class="st11"/><path d="m670.5 272.6 86.6 50 86.6-50-86.6-50z" class="st12"/><path d="M757.1 422.6v-100l86.6-50v100z" class="st13"/><path d="M757.1 422.6v-100l-86.6-50v100z" class="st12"/><path d="m670.5 272.6 86.6 50v100-100l86.6-50" class="st5"/><path d="M670.5 272.6v100l86.6 50 86.6-50v-100l-86.6-50z" class="st5"/><path d="M745.5 381.1c-.5 1-1.8 1.3-2.7.7l-60.6-35c-1-.6-1.3-1.8-.7-2.7.5-1 1.8-1.3 2.7-.7l60.6 35c.9.5 1.2 1.8.7 2.7M745.5 393.1c-.5 1-1.8 1.3-2.7.7l-60.6-35c-1-.6-1.3-1.8-.7-2.7.5-1 1.8-1.3 2.7-.7l60.6 35c.9.5 1.2 1.8.7 2.7M745.5 405.1c-.5 1-1.8 1.3-2.7.7l-60.6-35c-1-.6-1.3-1.8-.7-2.7.5-1 1.8-1.3 2.7-.7l60.6 35c.9.5 1.2 1.8.7 2.7" class="st14"/><path d="m746.8 360.6-24.4-14.1" class="st7"/><circle cx="717.4" cy="343.5" r="2" class="st8"/><path d="m746.8 351.6-24.4-14.1" class="st7"/><circle cx="717.4" cy="334.5" r="2" class="st8"/><path d="m746.8 341.6-24.4-14.1" class="st7"/><circle cx="717.4" cy="324.5" r="2" class="st8"/><path d="m708.8 338.6-24.4-14.1" class="st7"/><circle cx="679.4" cy="321.5" r="2" class="st8"/><path d="m746.8 369.6-24.4-14.1" class="st7"/><circle cx="717.4" cy="352.5" r="2" class="st8"/><path d="m708.8 347.6-24.4-14.1" class="st7"/><circle cx="679.4" cy="330.5" r="2" class="st8"/><path d="m708.8 329.6-24.4-14.1" class="st7"/><circle cx="679.4" cy="312.5" r="2" class="st8"/><path d="m708.8 319.6-24.4-14.1" class="st7"/><circle cx="679.4" cy="302.5" r="2" class="st8"/><circle cx="682" cy="292.3" r="3.5" class="st9"/><circle cx="691.4" cy="297.8" r="3.5" class="st10"/><path d="m818.7 379.2 17.3-10M818.7 375.2l17.3-10M818.7 371.2l17.3-10M818.7 367.2l17.3-10M818.7 363.2l17.3-10" class="st11"/><path d="m566.5 334.1 86.6 50 86.6-50-86.6-50z" class="st12"/><path d="M653.1 484.1v-100l86.6-50v100z" class="st13"/><path d="M653.1 484.1v-100l-86.6-50v100z" class="st12"/><path d="m566.5 334.1 86.6 50v100-100l86.6-50" class="st5"/><path d="M566.5 334.1v100l86.6 50 86.6-50v-100l-86.6-50z" class="st5"/><path d="M641.5 442.6c-.5 1-1.8 1.3-2.7.7l-60.6-35c-1-.5-1.3-1.8-.7-2.7.5-1 1.8-1.3 2.7-.7l60.6 35c.9.5 1.2 1.8.7 2.7M641.5 454.6c-.5 1-1.8 1.3-2.7.7l-60.6-35c-1-.5-1.3-1.8-.7-2.7.5-1 1.8-1.3 2.7-.7l60.6 35c.9.5 1.2 1.8.7 2.7M641.5 466.6c-.5 1-1.8 1.3-2.7.7l-60.6-35c-1-.5-1.3-1.8-.7-2.7.5-1 1.8-1.3 2.7-.7l60.6 35c.9.5 1.2 1.8.7 2.7" class="st14"/><path d="M642.8 422.1 618.5 408" class="st7"/><circle cx="613.5" cy="405" r="2" class="st8"/><path d="M642.8 413.1 618.5 399" class="st7"/><circle cx="613.5" cy="396" r="2" class="st8"/><path d="M642.8 403.1 618.5 389" class="st7"/><circle cx="613.5" cy="386" r="2" class="st8"/><path d="M604.8 400.1 580.5 386" class="st7"/><circle cx="575.5" cy="383" r="2" class="st8"/><path d="M642.8 431.1 618.5 417" class="st7"/><circle cx="613.5" cy="414" r="2" class="st8"/><path d="M604.8 409.1 580.5 395" class="st7"/><circle cx="575.5" cy="392" r="2" class="st8"/><path d="M604.8 391.1 580.5 377" class="st7"/><circle cx="575.5" cy="374" r="2" class="st8"/><path d="M604.8 381.1 580.5 367" class="st7"/><circle cx="575.5" cy="364" r="2" class="st8"/><circle cx="578" cy="353.8" r="3.5" class="st9"/><circle cx="587.4" cy="359.3" r="3.5" class="st10"/><path d="m714.7 440.7 17.3-10M714.7 436.7l17.3-10M714.7 432.7l17.3-10M714.7 428.7l17.3-10M714.7 424.7l17.3-10" class="st11"/><path d="m774.5 332.9 86.6 50 86.6-50-86.6-50z" class="st12"/><path d="M861.1 482.9v-100l86.6-50v100z" class="st13"/><path d="M861.1 482.9v-100l-86.6-50v100z" class="st12"/><path d="m774.5 332.9 86.6 50v100-100l86.6-50" class="st5"/><path d="M774.5 332.9v100l86.6 50 86.6-50v-100l-86.6-50z" class="st5"/><path d="M849.5 441.4c-.5 1-1.8 1.3-2.7.7l-60.6-35c-1-.6-1.3-1.8-.7-2.7.5-1 1.8-1.3 2.7-.7l60.6 35c.9.5 1.2 1.7.7 2.7M849.5 453.4c-.5 1-1.8 1.3-2.7.7l-60.6-35c-1-.6-1.3-1.8-.7-2.7.5-1 1.8-1.3 2.7-.7l60.6 35c.9.5 1.2 1.7.7 2.7M849.5 465.4c-.5 1-1.8 1.3-2.7.7l-60.6-35c-1-.6-1.3-1.8-.7-2.7.5-1 1.8-1.3 2.7-.7l60.6 35c.9.5 1.2 1.7.7 2.7" class="st14"/><path d="m850.8 420.8-24.4-14" class="st7"/><circle cx="821.4" cy="403.8" r="2" class="st8"/><path d="m850.8 411.8-24.4-14" class="st7"/><circle cx="821.4" cy="394.8" r="2" class="st8"/><path d="m850.8 401.8-24.4-14" class="st7"/><circle cx="821.4" cy="384.8" r="2" class="st8"/><path d="m812.8 398.8-24.4-14" class="st7"/><circle cx="783.4" cy="381.8" r="2" class="st8"/><path d="m850.8 429.8-24.4-14" class="st7"/><circle cx="821.4" cy="412.8" r="2" class="st8"/><path d="m812.8 407.8-24.4-14" class="st7"/><circle cx="783.4" cy="390.8" r="2" class="st8"/><path d="m812.8 389.8-24.4-14" class="st7"/><circle cx="783.4" cy="372.8" r="2" class="st8"/><path d="m812.8 379.8-24.4-14" class="st7"/><circle cx="783.4" cy="362.8" r="2" class="st8"/><circle cx="786" cy="352.5" r="3.5" class="st9"/><circle cx="795.4" cy="358.1" r="3.5" class="st10"/><path d="m922.7 439.5 17.3-10M922.7 435.5l17.3-10M922.7 431.5l17.3-10M922.7 427.5l17.3-10M922.7 423.5l17.3-10" class="st11"/><path d="m670.5 394.4 86.6 50 86.6-50-86.6-50z" class="st12"/><path d="M757.1 544.4v-100l86.6-50v100z" class="st13"/><path d="M757.1 544.4v-100l-86.6-50v100z" class="st12"/><path d="m670.5 394.4 86.6 50v100-100l86.6-50" class="st5"/><path d="M670.5 394.4v100l86.6 50 86.6-50v-100l-86.6-50z" class="st5"/><path d="M745.5 502.9c-.5 1-1.8 1.3-2.7.7l-60.6-35c-1-.5-1.3-1.8-.7-2.7.5-1 1.8-1.3 2.7-.7l60.6 35c.9.5 1.2 1.8.7 2.7M745.5 514.9c-.5 1-1.8 1.3-2.7.7l-60.6-35c-1-.5-1.3-1.8-.7-2.7.5-1 1.8-1.3 2.7-.7l60.6 35c.9.5 1.2 1.8.7 2.7M745.5 526.9c-.5 1-1.8 1.3-2.7.7l-60.6-35c-1-.5-1.3-1.8-.7-2.7.5-1 1.8-1.3 2.7-.7l60.6 35c.9.5 1.2 1.8.7 2.7" class="st14"/><path d="m746.8 482.3-24.4-14" class="st7"/><circle cx="717.4" cy="465.3" r="2" class="st8"/><path d="m746.8 473.3-24.4-14" class="st7"/><circle cx="717.4" cy="456.3" r="2" class="st8"/><path d="m746.8 463.3-24.4-14" class="st7"/><circle cx="717.4" cy="446.3" r="2" class="st8"/><path d="m708.8 460.3-24.4-14" class="st7"/><circle cx="679.4" cy="443.3" r="2" class="st8"/><path d="m746.8 491.3-24.4-14" class="st7"/><circle cx="717.4" cy="474.3" r="2" class="st8"/><path d="m708.8 469.3-24.4-14" class="st7"/><circle cx="679.4" cy="452.3" r="2" class="st8"/><path d="m708.8 451.3-24.4-14" class="st7"/><circle cx="679.4" cy="434.3" r="2" class="st8"/><path d="m708.8 441.3-24.4-14" class="st7"/><circle cx="679.4" cy="424.3" r="2" class="st8"/><circle cx="682" cy="414" r="3.5" class="st9"/><circle cx="691.4" cy="419.6" r="3.5" class="st10"/><path d="m818.7 501 17.3-10M818.7 497l17.3-10M818.7 493l17.3-10M818.7 489l17.3-10M818.7 485l17.3-10" class="st11"/><path d="m1073.4 325.3 86.6 50 86.6-50-86.6-50z" class="st3"/><path d="M1160 475.3v-100l86.6-50v100z" class="st4"/><path d="M1160 475.4v-100l-86.6-50v100z" class="st3"/><path d="m1073.4 325.3 86.6 50v100-100l86.6-50" class="st5"/><path d="M1073.4 325.3v100l86.6 50 86.6-50v-100l-86.6-50z" class="st5"/><path d="M1148.3 433.9c-.5 1-1.8 1.3-2.7.7l-60.6-35c-1-.5-1.3-1.8-.7-2.7.6-1 1.8-1.3 2.7-.7l60.6 35c1 .5 1.3 1.7.7 2.7M1148.3 445.9c-.5 1-1.8 1.3-2.7.7l-60.6-35c-1-.5-1.3-1.8-.7-2.7.6-1 1.8-1.3 2.7-.7l60.6 35c1 .5 1.3 1.7.7 2.7M1148.3 457.9c-.5 1-1.8 1.3-2.7.7l-60.6-35c-1-.5-1.3-1.8-.7-2.7.6-1 1.8-1.3 2.7-.7l60.6 35c1 .5 1.3 1.7.7 2.7" class="st6"/><path d="m1149.6 413.3-24.3-14" class="st7"/><circle cx="1120.3" cy="396.3" r="2" class="st8"/><path d="m1149.6 404.3-24.3-14" class="st7"/><circle cx="1120.3" cy="387.3" r="2" class="st8"/><path d="m1149.6 394.3-24.3-14" class="st7"/><circle cx="1120.3" cy="377.3" r="2" class="st8"/><path d="m1111.6 391.3-24.3-14" class="st7"/><circle cx="1082.3" cy="374.3" r="2" class="st8"/><path d="m1149.6 422.3-24.3-14" class="st7"/><circle cx="1120.3" cy="405.3" r="2" class="st8"/><path d="m1111.6 400.3-24.3-14" class="st7"/><circle cx="1082.3" cy="383.3" r="2" class="st8"/><path d="m1111.6 382.3-24.3-14" class="st7"/><circle cx="1082.3" cy="365.3" r="2" class="st8"/><path d="m1111.6 372.3-24.3-14" class="st7"/><circle cx="1082.3" cy="355.3" r="2" class="st8"/><circle cx="1084.9" cy="345" r="3.5" class="st9"/><circle cx="1094.3" cy="350.6" r="3.5" class="st10"/><path d="m1221.5 431.9 17.3-10M1221.5 427.9l17.3-10M1221.5 423.9l17.3-10M1221.5 419.9l17.3-10M1221.5 415.9l17.3-10" class="st11"/><path d="m1177.4 440.7 86.6 50 86.6-50-86.6-50z" class="st15"/><path d="M1264 590.7v-100l86.6-50v100z" class="st16"/><path d="M1264 590.7v-100l-86.6-50v100z" class="st15"/><path d="m1177.4 440.7 86.6 50v100-100l86.6-50" class="st5"/><path d="M1177.4 440.7v100l86.6 50 86.6-50v-100l-86.6-50z" class="st5"/><path d="M1252.4 549.3c-.5 1-1.8 1.3-2.7.7l-60.6-35c-1-.6-1.3-1.8-.7-2.7.6-1 1.8-1.3 2.7-.7l60.6 35c.9.5 1.2 1.7.7 2.7M1252.4 561.3c-.5 1-1.8 1.3-2.7.7l-60.6-35c-1-.6-1.3-1.8-.7-2.7.6-1 1.8-1.3 2.7-.7l60.6 35c.9.5 1.2 1.7.7 2.7M1252.4 573.3c-.5 1-1.8 1.3-2.7.7l-60.6-35c-1-.6-1.3-1.8-.7-2.7.6-1 1.8-1.3 2.7-.7l60.6 35c.9.5 1.2 1.7.7 2.7" class="st14"/><path d="m1253.6 528.7-24.3-14" class="st7"/><circle cx="1224.3" cy="511.7" r="2" class="st8"/><path d="m1253.6 519.7-24.3-14" class="st7"/><circle cx="1224.3" cy="502.7" r="2" class="st8"/><path d="m1253.6 509.7-24.3-14" class="st7"/><circle cx="1224.3" cy="492.7" r="2" class="st8"/><path d="m1215.6 506.7-24.3-14" class="st7"/><circle cx="1186.3" cy="489.7" r="2" class="st8"/><path d="m1253.6 537.7-24.3-14" class="st7"/><circle cx="1224.3" cy="520.7" r="2" class="st8"/><path d="m1215.6 515.7-24.3-14" class="st7"/><circle cx="1186.3" cy="498.7" r="2" class="st8"/><path d="m1215.6 497.7-24.3-14" class="st7"/><circle cx="1186.3" cy="480.7" r="2" class="st8"/><path d="m1215.6 487.7-24.3-14" class="st7"/><circle cx="1186.3" cy="470.7" r="2" class="st8"/><circle cx="1188.9" cy="460.4" r="3.5" class="st9"/><circle cx="1198.3" cy="465.9" r="3.5" class="st10"/><path d="m1325.5 547.3 17.4-10M1325.5 543.3l17.4-10M1325.5 539.3l17.4-10M1325.5 535.3l17.4-10M1325.5 531.3l17.4-10" class="st11"/><path d="m1280.5 503.2 86.6 50 86.6-50-86.6-50z" class="st15"/><path d="M1367.1 653.2v-100l86.6-50v100z" class="st16"/><path d="M1367.1 653.2v-100l-86.6-50v100z" class="st15"/><path d="m1280.5 503.2 86.6 50v100-100l86.6-50" class="st5"/><path d="M1280.5 503.2v100l86.6 50 86.6-50v-100l-86.6-50z" class="st5"/><path d="M1355.5 611.7c-.6 1-1.8 1.3-2.7.7l-60.6-35c-1-.6-1.3-1.8-.7-2.7.5-1 1.8-1.3 2.7-.7l60.6 35c.9.5 1.2 1.8.7 2.7M1355.5 623.7c-.6 1-1.8 1.3-2.7.7l-60.6-35c-1-.6-1.3-1.8-.7-2.7.5-1 1.8-1.3 2.7-.7l60.6 35c.9.5 1.2 1.8.7 2.7M1355.5 635.7c-.6 1-1.8 1.3-2.7.7l-60.6-35c-1-.6-1.3-1.8-.7-2.7.5-1 1.8-1.3 2.7-.7l60.6 35c.9.5 1.2 1.8.7 2.7" class="st14"/><path d="m1356.8 591.1-24.3-14" class="st7"/><circle cx="1327.5" cy="574.1" r="2" class="st8"/><path d="m1356.8 582.1-24.3-14" class="st7"/><circle cx="1327.5" cy="565.1" r="2" class="st8"/><path d="m1356.8 572.1-24.3-14" class="st7"/><circle cx="1327.5" cy="555.1" r="2" class="st8"/><path d="m1318.8 569.1-24.3-14" class="st7"/><circle cx="1289.5" cy="552.1" r="2" class="st8"/><path d="m1356.8 600.1-24.3-14" class="st7"/><circle cx="1327.5" cy="583.1" r="2" class="st8"/><path d="m1318.8 578.1-24.3-14" class="st7"/><circle cx="1289.5" cy="561.1" r="2" class="st8"/><path d="m1318.8 560.1-24.3-14" class="st7"/><circle cx="1289.5" cy="543.1" r="2" class="st8"/><path d="m1318.8 550.1-24.3-14" class="st7"/><circle cx="1289.5" cy="533.1" r="2" class="st8"/><circle cx="1292" cy="522.8" r="3.5" class="st9"/><circle cx="1301.4" cy="528.4" r="3.5" class="st10"/><path d="m1428.7 609.8 17.3-10M1428.7 605.8l17.3-10M1428.7 601.8l17.3-10M1428.7 597.8l17.3-10M1428.7 593.8l17.3-10" class="st11"/><path d="m968.5 442.3 86.6 50 86.6-50-86.6-50z" class="st15"/><path d="M1055.1 592.3v-100l86.6-50v100z" class="st16"/><path d="M1055.1 592.3v-100l-86.6-50v100z" class="st15"/><path d="m968.5 442.3 86.6 50v100-100l86.6-50" class="st5"/><path d="M968.5 442.3v100l86.6 50 86.6-50v-100l-86.6-50z" class="st5"/><path d="M1043.5 550.9c-.6 1-1.8 1.3-2.7.7l-60.6-35c-1-.5-1.3-1.8-.7-2.7.6-1 1.8-1.3 2.7-.7l60.6 35c.9.5 1.2 1.7.7 2.7M1043.5 562.9c-.6 1-1.8 1.3-2.7.7l-60.6-35c-1-.5-1.3-1.8-.7-2.7.6-1 1.8-1.3 2.7-.7l60.6 35c.9.5 1.2 1.7.7 2.7M1043.5 574.9c-.6 1-1.8 1.3-2.7.7l-60.6-35c-1-.5-1.3-1.8-.7-2.7.6-1 1.8-1.3 2.7-.7l60.6 35c.9.5 1.2 1.7.7 2.7" class="st14"/><path d="m1044.8 530.3-24.4-14" class="st7"/><circle cx="1015.4" cy="513.3" r="2" class="st8"/><path d="m1044.8 521.3-24.4-14" class="st7"/><circle cx="1015.4" cy="504.3" r="2" class="st8"/><path d="m1044.8 511.3-24.4-14" class="st7"/><circle cx="1015.4" cy="494.3" r="2" class="st8"/><path d="m1006.8 508.3-24.4-14" class="st7"/><circle cx="977.4" cy="491.3" r="2" class="st8"/><path d="m1044.8 539.3-24.4-14" class="st7"/><circle cx="1015.4" cy="522.3" r="2" class="st8"/><path d="m1006.8 517.3-24.4-14" class="st7"/><circle cx="977.4" cy="500.3" r="2" class="st8"/><path d="m1006.8 499.3-24.4-14" class="st7"/><circle cx="977.4" cy="482.3" r="2" class="st8"/><path d="m1006.8 489.3-24.4-14" class="st7"/><circle cx="977.4" cy="472.3" r="2" class="st8"/><circle cx="980" cy="462" r="3.5" class="st9"/><circle cx="989.4" cy="467.5" r="3.5" class="st10"/><path d="m1116.7 548.9 17.3-10M1116.7 544.9l17.3-10M1116.7 540.9l17.3-10M1116.7 536.9l17.3-10M1116.7 532.9l17.3-10" class="st11"/><path d="m864.5 503.8 86.6 50 86.6-50-86.6-50z" class="st15"/><path d="M951.1 653.8v-100l86.6-50v100z" class="st16"/><path d="M951.1 653.8v-100l-86.6-50v100z" class="st15"/><path d="m864.5 503.8 86.6 50v100-100l86.6-50" class="st5"/><path d="M864.5 503.8v100l86.6 50 86.6-50v-100l-86.6-50z" class="st5"/><path d="M939.5 612.4c-.5 1-1.8 1.3-2.7.7l-60.6-35c-1-.6-1.3-1.8-.7-2.7.6-1 1.8-1.3 2.7-.7l60.6 35c.9.5 1.2 1.7.7 2.7M939.5 624.4c-.5 1-1.8 1.3-2.7.7l-60.6-35c-1-.6-1.3-1.8-.7-2.7.6-1 1.8-1.3 2.7-.7l60.6 35c.9.5 1.2 1.7.7 2.7M939.5 636.4c-.5 1-1.8 1.3-2.7.7l-60.6-35c-1-.6-1.3-1.8-.7-2.7.6-1 1.8-1.3 2.7-.7l60.6 35c.9.5 1.2 1.7.7 2.7" class="st14"/><path d="m940.8 591.8-24.4-14" class="st7"/><circle cx="911.4" cy="574.8" r="2" class="st8"/><path d="m940.8 582.8-24.4-14" class="st7"/><circle cx="911.4" cy="565.8" r="2" class="st8"/><path d="m940.8 572.8-24.4-14" class="st7"/><circle cx="911.4" cy="555.8" r="2" class="st8"/><path d="m902.8 569.8-24.4-14" class="st7"/><circle cx="873.4" cy="552.8" r="2" class="st8"/><path d="m940.8 600.8-24.4-14" class="st7"/><circle cx="911.4" cy="583.8" r="2" class="st8"/><path d="m902.8 578.8-24.4-14" class="st7"/><circle cx="873.4" cy="561.8" r="2" class="st8"/><path d="m902.8 560.8-24.4-14" class="st7"/><circle cx="873.4" cy="543.8" r="2" class="st8"/><path d="m902.8 550.8-24.4-14" class="st7"/><circle cx="873.4" cy="533.8" r="2" class="st8"/><circle cx="876" cy="523.5" r="3.5" class="st9"/><circle cx="885.4" cy="529" r="3.5" class="st10"/><path d="m1012.7 610.4 17.3-10M1012.7 606.4l17.3-10M1012.7 602.4l17.3-10M1012.7 598.4l17.3-10M1012.7 594.4l17.3-10" class="st11"/><path d="m1072.5 502.6 86.6 50 86.6-50-86.6-50z" class="st15"/><path d="M1159.1 652.6v-100l86.6-50v100z" class="st16"/><path d="M1159.1 652.6v-100l-86.6-50v100z" class="st15"/><path d="m1072.5 502.6 86.6 50v100-100l86.6-50" class="st5"/><path d="M1072.5 502.6v100l86.6 50 86.6-50v-100l-86.6-50z" class="st5"/><path d="M1147.5 611.1c-.6 1-1.8 1.3-2.7.7l-60.6-35c-1-.5-1.3-1.8-.7-2.7.5-1 1.8-1.3 2.7-.7l60.6 35c.9.6 1.2 1.8.7 2.7M1147.5 623.1c-.6 1-1.8 1.3-2.7.7l-60.6-35c-1-.5-1.3-1.8-.7-2.7.5-1 1.8-1.3 2.7-.7l60.6 35c.9.6 1.2 1.8.7 2.7M1147.5 635.1c-.6 1-1.8 1.3-2.7.7l-60.6-35c-1-.5-1.3-1.8-.7-2.7.5-1 1.8-1.3 2.7-.7l60.6 35c.9.6 1.2 1.8.7 2.7" class="st14"/><path d="m1148.8 590.6-24.3-14.1" class="st7"/><circle cx="1119.5" cy="573.5" r="2" class="st8"/><path d="m1148.8 581.6-24.3-14.1" class="st7"/><circle cx="1119.5" cy="564.5" r="2" class="st8"/><path d="m1148.8 571.6-24.3-14.1" class="st7"/><circle cx="1119.5" cy="554.5" r="2" class="st8"/><path d="m1110.8 568.6-24.3-14.1" class="st7"/><circle cx="1081.5" cy="551.5" r="2" class="st8"/><path d="m1148.8 599.6-24.3-14.1" class="st7"/><circle cx="1119.5" cy="582.5" r="2" class="st8"/><path d="m1110.8 577.6-24.3-14.1" class="st7"/><circle cx="1081.5" cy="560.5" r="2" class="st8"/><path d="m1110.8 559.6-24.3-14.1" class="st7"/><circle cx="1081.5" cy="542.5" r="2" class="st8"/><path d="m1110.8 549.6-24.3-14.1" class="st7"/><circle cx="1081.5" cy="532.5" r="2" class="st8"/><circle cx="1084" cy="522.3" r="3.5" class="st9"/><circle cx="1093.4" cy="527.8" r="3.5" class="st10"/><path d="m1220.7 609.2 17.3-10M1220.7 605.2l17.3-10M1220.7 601.2l17.3-10M1220.7 597.2l17.3-10M1220.7 593.2l17.3-10" class="st11"/><path d="m968.5 564.1 86.6 50 86.6-50-86.6-50z" class="st15"/><path d="M1055.1 714.1v-100l86.6-50v100z" class="st16"/><path d="M1055.1 714.1v-100l-86.6-50v100z" class="st15"/><path d="m968.5 564.1 86.6 50v100-100l86.6-50" class="st5"/><path d="M968.5 564.1v100l86.6 50 86.6-50v-100l-86.6-50z" class="st5"/><path d="M1043.5 672.6c-.6 1-1.8 1.3-2.7.7l-60.6-35c-1-.6-1.3-1.8-.7-2.7.5-1 1.8-1.3 2.7-.7l60.6 35c.9.6 1.2 1.8.7 2.7M1043.5 684.6c-.6 1-1.8 1.3-2.7.7l-60.6-35c-1-.6-1.3-1.8-.7-2.7.5-1 1.8-1.3 2.7-.7l60.6 35c.9.6 1.2 1.8.7 2.7M1043.5 696.6c-.6 1-1.8 1.3-2.7.7l-60.6-35c-1-.6-1.3-1.8-.7-2.7.5-1 1.8-1.3 2.7-.7l60.6 35c.9.6 1.2 1.8.7 2.7" class="st14"/><path d="m1044.8 652.1-24.3-14.1" class="st7"/><circle cx="1015.5" cy="635" r="2" class="st8"/><path d="m1044.8 643.1-24.3-14.1" class="st7"/><circle cx="1015.5" cy="626" r="2" class="st8"/><path d="m1044.8 633.1-24.3-14.1" class="st7"/><circle cx="1015.5" cy="616" r="2" class="st8"/><path d="M1006.8 630.1 982.5 616" class="st7"/><circle cx="977.5" cy="613" r="2" class="st8"/><path d="m1044.8 661.1-24.3-14.1" class="st7"/><circle cx="1015.5" cy="644" r="2" class="st8"/><path d="M1006.8 639.1 982.5 625" class="st7"/><circle cx="977.5" cy="622" r="2" class="st8"/><path d="M1006.8 621.1 982.5 607" class="st7"/><circle cx="977.5" cy="604" r="2" class="st8"/><path d="M1006.8 611.1 982.5 597" class="st7"/><circle cx="977.5" cy="594" r="2" class="st8"/><circle cx="980" cy="583.8" r="3.5" class="st9"/><circle cx="989.4" cy="589.3" r="3.5" class="st10"/><path d="m1116.7 670.7 17.3-10M1116.7 666.7l17.3-10M1116.7 662.7l17.3-10M1116.7 658.7l17.3-10M1116.7 654.7l17.3-10" class="st11"/><path d="m1176.5 562.9 86.6 50 86.6-50-86.6-50z" class="st15"/><path d="M1263.1 712.9v-100l86.6-50v100z" class="st16"/><path d="M1263.1 712.9v-100l-86.6-50v100z" class="st15"/><path d="m1176.5 562.9 86.6 50v100-100l86.6-50" class="st5"/><path d="M1176.5 562.9v100l86.6 50 86.6-50v-100l-86.6-50z" class="st5"/><path d="M1251.5 671.4c-.6 1-1.8 1.3-2.7.7l-60.6-35c-1-.5-1.3-1.8-.7-2.7.5-1 1.8-1.3 2.7-.7l60.6 35c.9.5 1.2 1.8.7 2.7M1251.5 683.4c-.6 1-1.8 1.3-2.7.7l-60.6-35c-1-.5-1.3-1.8-.7-2.7.5-1 1.8-1.3 2.7-.7l60.6 35c.9.5 1.2 1.8.7 2.7M1251.5 695.4c-.6 1-1.8 1.3-2.7.7l-60.6-35c-1-.5-1.3-1.8-.7-2.7.5-1 1.8-1.3 2.7-.7l60.6 35c.9.5 1.2 1.8.7 2.7" class="st14"/><path d="m1252.8 650.9-24.3-14.1" class="st7"/><circle cx="1223.5" cy="633.8" r="2" class="st8"/><path d="m1252.8 641.9-24.3-14.1" class="st7"/><circle cx="1223.5" cy="624.8" r="2" class="st8"/><path d="m1252.8 631.9-24.3-14.1" class="st7"/><circle cx="1223.5" cy="614.8" r="2" class="st8"/><path d="m1214.8 628.9-24.3-14.1" class="st7"/><circle cx="1185.5" cy="611.8" r="2" class="st8"/><path d="m1252.8 659.9-24.3-14.1" class="st7"/><circle cx="1223.5" cy="642.8" r="2" class="st8"/><path d="m1214.8 637.9-24.3-14.1" class="st7"/><circle cx="1185.5" cy="620.8" r="2" class="st8"/><path d="m1214.8 619.9-24.3-14.1" class="st7"/><circle cx="1185.5" cy="602.8" r="2" class="st8"/><path d="m1214.8 609.9-24.3-14.1" class="st7"/><circle cx="1185.5" cy="592.8" r="2" class="st8"/><circle cx="1188" cy="582.6" r="3.5" class="st9"/><circle cx="1197.4" cy="588.1" r="3.5" class="st10"/><path d="m1324.7 669.5 17.3-10M1324.7 665.5l17.3-10M1324.7 661.5l17.3-10M1324.7 657.5l17.3-10M1324.7 653.5l17.3-10" class="st11"/><path d="m1072.5 624.4 86.6 50 86.6-50-86.6-50z" class="st15"/><path d="M1159.1 774.4v-100l86.6-50v100z" class="st16"/><path d="M1159.1 774.4v-100l-86.6-50v100z" class="st15"/><path d="m1072.5 624.4 86.6 50v100-100l86.6-50" class="st5"/><path d="M1072.5 624.4v100l86.6 50 86.6-50v-100l-86.6-50z" class="st5"/><path d="M1147.5 732.9c-.6 1-1.8 1.3-2.7.7l-60.6-35c-1-.6-1.3-1.8-.7-2.7.5-1 1.8-1.3 2.7-.7l60.6 35c.9.5 1.2 1.8.7 2.7M1147.5 744.9c-.6 1-1.8 1.3-2.7.7l-60.6-35c-1-.6-1.3-1.8-.7-2.7.5-1 1.8-1.3 2.7-.7l60.6 35c.9.5 1.2 1.8.7 2.7M1147.5 756.9c-.6 1-1.8 1.3-2.7.7l-60.6-35c-1-.6-1.3-1.8-.7-2.7.5-1 1.8-1.3 2.7-.7l60.6 35c.9.5 1.2 1.8.7 2.7" class="st14"/><path d="m1148.8 712.4-24.3-14.1" class="st7"/><circle cx="1119.5" cy="695.3" r="2" class="st8"/><path d="m1148.8 703.4-24.3-14.1" class="st7"/><circle cx="1119.5" cy="686.3" r="2" class="st8"/><path d="m1148.8 693.4-24.3-14.1" class="st7"/><circle cx="1119.5" cy="676.3" r="2" class="st8"/><path d="m1110.8 690.4-24.3-14.1" class="st7"/><circle cx="1081.5" cy="673.3" r="2" class="st8"/><path d="m1148.8 721.4-24.3-14.1" class="st7"/><circle cx="1119.5" cy="704.3" r="2" class="st8"/><path d="m1110.8 699.4-24.3-14.1" class="st7"/><circle cx="1081.5" cy="682.3" r="2" class="st8"/><path d="m1110.8 681.4-24.3-14.1" class="st7"/><circle cx="1081.5" cy="664.3" r="2" class="st8"/><path d="m1110.8 671.4-24.3-14.1" class="st7"/><circle cx="1081.5" cy="654.3" r="2" class="st8"/><circle cx="1084" cy="644.1" r="3.5" class="st9"/><circle cx="1093.4" cy="649.6" r="3.5" class="st10"/><path d="m1220.7 731 17.3-10M1220.7 727l17.3-10M1220.7 723l17.3-10M1220.7 719l17.3-10M1220.7 715l17.3-10" class="st11"/><path d="m671.4 557.3 86.6 50 86.6-50-86.6-50z" class="st3"/><path d="M758 707.3v-100l86.6-50v100z" class="st4"/><path d="M758 707.4v-100l-86.6-50v100z" class="st3"/><path d="m671.4 557.3 86.6 50v100-100l86.6-50" class="st5"/><path d="M671.4 557.3v100l86.6 50 86.6-50v-100l-86.6-50z" class="st5"/><path d="M746.3 665.9c-.5 1-1.8 1.3-2.7.7l-60.6-35c-1-.6-1.3-1.8-.7-2.7.6-1 1.8-1.3 2.7-.7l60.6 35c1 .5 1.3 1.7.7 2.7M746.3 677.9c-.5 1-1.8 1.3-2.7.7l-60.6-35c-1-.6-1.3-1.8-.7-2.7.6-1 1.8-1.3 2.7-.7l60.6 35c1 .5 1.3 1.7.7 2.7M746.3 689.9c-.5 1-1.8 1.3-2.7.7l-60.6-35c-1-.6-1.3-1.8-.7-2.7.6-1 1.8-1.3 2.7-.7l60.6 35c1 .5 1.3 1.7.7 2.7" class="st6"/><path d="m747.6 645.3-24.3-14" class="st7"/><circle cx="718.3" cy="628.3" r="2" class="st8"/><path d="m747.6 636.3-24.3-14" class="st7"/><circle cx="718.3" cy="619.3" r="2" class="st8"/><path d="m747.6 626.3-24.3-14" class="st7"/><circle cx="718.3" cy="609.3" r="2" class="st8"/><path d="m709.6 623.3-24.3-14" class="st7"/><circle cx="680.3" cy="606.3" r="2" class="st8"/><path d="m747.6 654.3-24.3-14" class="st7"/><circle cx="718.3" cy="637.3" r="2" class="st8"/><path d="m709.6 632.3-24.3-14" class="st7"/><circle cx="680.3" cy="615.3" r="2" class="st8"/><path d="m709.6 614.3-24.3-14" class="st7"/><circle cx="680.3" cy="597.3" r="2" class="st8"/><path d="m709.6 604.3-24.3-14" class="st7"/><circle cx="680.3" cy="587.3" r="2" class="st8"/><circle cx="682.9" cy="577" r="3.5" class="st9"/><circle cx="692.3" cy="582.6" r="3.5" class="st10"/><path d="m819.5 663.9 17.3-10M819.5 659.9l17.3-10M819.5 655.9l17.3-10M819.5 651.9l17.3-10M819.5 647.9l17.3-10" class="st11"/><path d="m775.4 672.7 86.6 50 86.6-50-86.6-50z" class="st17"/><path d="M862 822.7v-100l86.6-50v100z" class="st18"/><path d="M862 822.7v-100l-86.6-50v100z" class="st17"/><path d="m775.4 672.7 86.6 50v100-100l86.6-50" class="st5"/><path d="M775.4 672.7v100l86.6 50 86.6-50v-100l-86.6-50z" class="st5"/><path d="M850.4 781.3c-.5 1-1.8 1.3-2.7.7L787 747c-1-.5-1.3-1.8-.7-2.7s1.8-1.3 2.7-.7l60.6 35c1 .5 1.3 1.7.8 2.7M850.4 793.3c-.5 1-1.8 1.3-2.7.7L787 759c-1-.5-1.3-1.8-.7-2.7s1.8-1.3 2.7-.7l60.6 35c1 .5 1.3 1.7.8 2.7M850.4 805.3c-.5 1-1.8 1.3-2.7.7L787 771c-1-.5-1.3-1.8-.7-2.7s1.8-1.3 2.7-.7l60.6 35c1 .5 1.3 1.7.8 2.7" class="st14"/><path d="m851.6 760.7-24.3-14" class="st7"/><circle cx="822.3" cy="743.7" r="2" class="st8"/><path d="m851.6 751.7-24.3-14" class="st7"/><circle cx="822.3" cy="734.7" r="2" class="st8"/><path d="m851.6 741.7-24.3-14" class="st7"/><circle cx="822.3" cy="724.7" r="2" class="st8"/><path d="m813.6 738.7-24.3-14" class="st7"/><circle cx="784.3" cy="721.7" r="2" class="st8"/><path d="m851.6 769.7-24.3-14" class="st7"/><circle cx="822.3" cy="752.7" r="2" class="st8"/><path d="m813.6 747.7-24.3-14" class="st7"/><circle cx="784.3" cy="730.7" r="2" class="st8"/><path d="m813.6 729.7-24.3-14" class="st7"/><circle cx="784.3" cy="712.7" r="2" class="st8"/><path d="m813.6 719.7-24.3-14" class="st7"/><circle cx="784.3" cy="702.7" r="2" class="st8"/><circle cx="786.9" cy="692.4" r="3.5" class="st9"/><circle cx="796.3" cy="697.9" r="3.5" class="st10"/><path d="m923.6 779.3 17.3-10M923.6 775.3l17.3-10M923.6 771.3l17.3-10M923.6 767.3l17.3-10M923.6 763.3l17.3-10" class="st11"/><path d="m878.5 735.1 86.6 50 86.6-50-86.6-50z" class="st17"/><path d="M965.1 885.1v-100l86.6-50v100z" class="st18"/><path d="M965.1 885.2v-100l-86.6-50v100z" class="st17"/><path d="m878.5 735.1 86.6 50v100-100l86.6-50" class="st5"/><path d="M878.5 735.1v100l86.6 50 86.6-50v-100l-86.6-50z" class="st5"/><path d="M953.5 843.7c-.5 1-1.8 1.3-2.7.7l-60.6-35c-1-.5-1.3-1.8-.7-2.7s1.8-1.3 2.7-.7l60.6 35c.9.5 1.2 1.7.7 2.7M953.5 855.7c-.5 1-1.8 1.3-2.7.7l-60.6-35c-1-.5-1.3-1.8-.7-2.7s1.8-1.3 2.7-.7l60.6 35c.9.5 1.2 1.7.7 2.7M953.5 867.7c-.5 1-1.8 1.3-2.7.7l-60.6-35c-1-.5-1.3-1.8-.7-2.7s1.8-1.3 2.7-.7l60.6 35c.9.5 1.2 1.7.7 2.7" class="st14"/><path d="m954.8 823.1-24.3-14" class="st7"/><circle cx="925.5" cy="806.1" r="2" class="st8"/><path d="m954.8 814.1-24.3-14" class="st7"/><circle cx="925.5" cy="797.1" r="2" class="st8"/><path d="m954.8 804.1-24.3-14" class="st7"/><circle cx="925.5" cy="787.1" r="2" class="st8"/><path d="m916.8 801.1-24.3-14" class="st7"/><circle cx="887.5" cy="784.1" r="2" class="st8"/><path d="m954.8 832.1-24.3-14" class="st7"/><circle cx="925.5" cy="815.1" r="2" class="st8"/><path d="m916.8 810.1-24.3-14" class="st7"/><circle cx="887.5" cy="793.1" r="2" class="st8"/><path d="m916.8 792.1-24.3-14" class="st7"/><circle cx="887.5" cy="775.1" r="2" class="st8"/><path d="m916.8 782.1-24.3-14" class="st7"/><circle cx="887.5" cy="765.1" r="2" class="st8"/><circle cx="890" cy="754.8" r="3.5" class="st9"/><circle cx="899.4" cy="760.3" r="3.5" class="st10"/><path d="m1026.7 841.7 17.3-10M1026.7 837.7l17.3-10M1026.7 833.7l17.3-10M1026.7 829.7l17.3-10M1026.7 825.7l17.3-10" class="st11"/><path d="m566.5 674.3 86.6 50 86.6-50-86.6-50z" class="st17"/><path d="M653.1 824.3v-100l86.6-50v100z" class="st18"/><path d="M653.1 824.3v-100l-86.6-50v100z" class="st17"/><path d="m566.5 674.3 86.6 50v100-100l86.6-50" class="st5"/><path d="M566.5 674.3v100l86.6 50 86.6-50v-100l-86.6-50z" class="st5"/><path d="M641.5 782.8c-.5 1-1.8 1.3-2.7.7l-60.6-35c-1-.5-1.3-1.8-.7-2.7s1.8-1.3 2.7-.7l60.6 35c.9.6 1.2 1.8.7 2.7M641.5 794.8c-.5 1-1.8 1.3-2.7.7l-60.6-35c-1-.5-1.3-1.8-.7-2.7s1.8-1.3 2.7-.7l60.6 35c.9.6 1.2 1.8.7 2.7M641.5 806.8c-.5 1-1.8 1.3-2.7.7l-60.6-35c-1-.5-1.3-1.8-.7-2.7s1.8-1.3 2.7-.7l60.6 35c.9.6 1.2 1.8.7 2.7" class="st14"/><path d="m642.8 762.3-24.3-14.1" class="st7"/><circle cx="613.5" cy="745.2" r="2" class="st8"/><path d="m642.8 753.3-24.3-14.1" class="st7"/><circle cx="613.5" cy="736.2" r="2" class="st8"/><path d="m642.8 743.3-24.3-14.1" class="st7"/><circle cx="613.5" cy="726.2" r="2" class="st8"/><path d="m604.8 740.3-24.3-14.1" class="st7"/><circle cx="575.5" cy="723.2" r="2" class="st8"/><path d="m642.8 771.3-24.3-14.1" class="st7"/><circle cx="613.5" cy="754.2" r="2" class="st8"/><path d="m604.8 749.3-24.3-14.1" class="st7"/><circle cx="575.5" cy="732.2" r="2" class="st8"/><path d="m604.8 731.3-24.3-14.1" class="st7"/><circle cx="575.5" cy="714.2" r="2" class="st8"/><path d="m604.8 721.3-24.3-14.1" class="st7"/><circle cx="575.5" cy="704.2" r="2" class="st8"/><circle cx="578" cy="694" r="3.5" class="st9"/><circle cx="587.4" cy="699.5" r="3.5" class="st10"/><path d="m714.7 780.9 17.3-10M714.7 776.9l17.3-10M714.7 772.9l17.3-10M714.7 768.9l17.3-10M714.7 764.9l17.3-10" class="st11"/><path d="m462.5 735.8 86.6 50 86.6-50-86.6-50z" class="st17"/><path d="M549.1 885.8v-100l86.6-50v100z" class="st18"/><path d="M549.1 885.8v-100l-86.6-50v100z" class="st17"/><path d="m462.5 735.8 86.6 50v100-100l86.6-50" class="st5"/><path d="M462.5 735.8v100l86.6 50 86.6-50v-100l-86.6-50z" class="st5"/><path d="M537.5 844.3c-.5 1-1.8 1.3-2.7.7l-60.6-35c-1-.5-1.3-1.8-.7-2.7.6-1 1.8-1.3 2.7-.7l60.6 35c.9.6 1.2 1.8.7 2.7M537.5 856.3c-.5 1-1.8 1.3-2.7.7l-60.6-35c-1-.5-1.3-1.8-.7-2.7.6-1 1.8-1.3 2.7-.7l60.6 35c.9.6 1.2 1.8.7 2.7M537.5 868.3c-.5 1-1.8 1.3-2.7.7l-60.6-35c-1-.5-1.3-1.8-.7-2.7.6-1 1.8-1.3 2.7-.7l60.6 35c.9.6 1.2 1.8.7 2.7" class="st14"/><path d="m538.8 823.8-24.3-14" class="st7"/><circle cx="509.5" cy="806.8" r="2" class="st8"/><path d="m538.8 814.8-24.3-14" class="st7"/><circle cx="509.5" cy="797.8" r="2" class="st8"/><path d="m538.8 804.8-24.3-14" class="st7"/><circle cx="509.5" cy="787.8" r="2" class="st8"/><path d="m500.8 801.8-24.3-14" class="st7"/><circle cx="471.5" cy="784.8" r="2" class="st8"/><path d="m538.8 832.8-24.3-14" class="st7"/><circle cx="509.5" cy="815.8" r="2" class="st8"/><path d="m500.8 810.8-24.3-14" class="st7"/><circle cx="471.5" cy="793.8" r="2" class="st8"/><path d="m500.8 792.8-24.3-14" class="st7"/><circle cx="471.5" cy="775.8" r="2" class="st8"/><path d="m500.8 782.8-24.3-14" class="st7"/><circle cx="471.5" cy="765.8" r="2" class="st8"/><circle cx="474" cy="755.5" r="3.5" class="st9"/><circle cx="483.4" cy="761" r="3.5" class="st10"/><path d="m610.7 842.4 17.3-10M610.7 838.4l17.3-10M610.7 834.4l17.3-10M610.7 830.4l17.3-10M610.7 826.4l17.3-10" class="st11"/><path d="m670.5 734.6 86.6 50 86.6-50-86.6-50z" class="st17"/><path d="M757.1 884.6v-100l86.6-50v100z" class="st18"/><path d="M757.1 884.6v-100l-86.6-50v100z" class="st17"/><path d="m670.5 734.6 86.6 50v100-100l86.6-50" class="st5"/><path d="M670.5 734.6v100l86.6 50 86.6-50v-100l-86.6-50z" class="st5"/><path d="M745.5 843.1c-.5 1-1.8 1.3-2.7.7l-60.6-35c-1-.5-1.3-1.8-.7-2.7s1.8-1.3 2.7-.7l60.6 35c.9.5 1.2 1.8.7 2.7M745.5 855.1c-.5 1-1.8 1.3-2.7.7l-60.6-35c-1-.5-1.3-1.8-.7-2.7s1.8-1.3 2.7-.7l60.6 35c.9.5 1.2 1.8.7 2.7M745.5 867.1c-.5 1-1.8 1.3-2.7.7l-60.6-35c-1-.5-1.3-1.8-.7-2.7s1.8-1.3 2.7-.7l60.6 35c.9.5 1.2 1.8.7 2.7" class="st14"/><path d="m746.8 822.6-24.3-14.1" class="st7"/><circle cx="717.5" cy="805.5" r="2" class="st8"/><path d="m746.8 813.6-24.3-14.1" class="st7"/><circle cx="717.5" cy="796.5" r="2" class="st8"/><path d="m746.8 803.6-24.3-14.1" class="st7"/><circle cx="717.5" cy="786.5" r="2" class="st8"/><path d="m708.8 800.6-24.3-14.1" class="st7"/><circle cx="679.5" cy="783.5" r="2" class="st8"/><path d="m746.8 831.6-24.3-14.1" class="st7"/><circle cx="717.5" cy="814.5" r="2" class="st8"/><path d="m708.8 809.6-24.3-14.1" class="st7"/><circle cx="679.5" cy="792.5" r="2" class="st8"/><path d="m708.8 791.6-24.3-14.1" class="st7"/><circle cx="679.5" cy="774.5" r="2" class="st8"/><path d="m708.8 781.6-24.3-14.1" class="st7"/><circle cx="679.5" cy="764.5" r="2" class="st8"/><circle cx="682" cy="754.3" r="3.5" class="st9"/><circle cx="691.4" cy="759.8" r="3.5" class="st10"/><path d="m818.7 841.2 17.3-10M818.7 837.2l17.3-10M818.7 833.2l17.3-10M818.7 829.2l17.3-10M818.7 825.2l17.3-10" class="st11"/><path d="m566.5 796.1 86.6 50 86.6-50-86.6-50z" class="st17"/><path d="M653.1 946.1v-100l86.6-50v100z" class="st18"/><path d="M653.1 946.1v-100l-86.6-50v100z" class="st17"/><path d="m566.5 796.1 86.6 50v100-100l86.6-50" class="st5"/><path d="M566.5 796.1v100l86.6 50 86.6-50v-100l-86.6-50z" class="st5"/><path d="M641.5 904.6c-.5 1-1.8 1.3-2.7.7l-60.6-35c-1-.5-1.3-1.8-.7-2.7s1.8-1.3 2.7-.7l60.6 35c.9.5 1.2 1.8.7 2.7M641.5 916.6c-.5 1-1.8 1.3-2.7.7l-60.6-35c-1-.5-1.3-1.8-.7-2.7s1.8-1.3 2.7-.7l60.6 35c.9.5 1.2 1.8.7 2.7M641.5 928.6c-.5 1-1.8 1.3-2.7.7l-60.6-35c-1-.5-1.3-1.8-.7-2.7s1.8-1.3 2.7-.7l60.6 35c.9.5 1.2 1.8.7 2.7" class="st14"/><path d="M642.8 884.1 618.5 870" class="st7"/><circle cx="613.5" cy="867" r="2" class="st8"/><path d="M642.8 875.1 618.5 861" class="st7"/><circle cx="613.5" cy="858" r="2" class="st8"/><path d="M642.8 865.1 618.5 851" class="st7"/><circle cx="613.5" cy="848" r="2" class="st8"/><path d="M604.8 862.1 580.5 848" class="st7"/><circle cx="575.5" cy="845" r="2" class="st8"/><path d="M642.8 893.1 618.5 879" class="st7"/><circle cx="613.5" cy="876" r="2" class="st8"/><path d="M604.8 871.1 580.5 857" class="st7"/><circle cx="575.5" cy="854" r="2" class="st8"/><path d="M604.8 853.1 580.5 839" class="st7"/><circle cx="575.5" cy="836" r="2" class="st8"/><path d="M604.8 843.1 580.5 829" class="st7"/><circle cx="575.5" cy="826" r="2" class="st8"/><circle cx="578" cy="815.8" r="3.5" class="st9"/><circle cx="587.4" cy="821.3" r="3.5" class="st10"/><path d="m714.7 902.7 17.3-10M714.7 898.7l17.3-10M714.7 894.7l17.3-10M714.7 890.7l17.3-10M714.7 886.7l17.3-10" class="st11"/><path d="m774.5 794.9 86.6 50 86.6-50-86.6-50z" class="st17"/><path d="M861.1 944.9v-100l86.6-50v100z" class="st18"/><path d="M861.1 944.9v-100l-86.6-50v100z" class="st17"/><path d="m774.5 794.9 86.6 50v100-100l86.6-50" class="st5"/><path d="M774.5 794.9v100l86.6 50 86.6-50v-100l-86.6-50z" class="st5"/><path d="M849.5 903.4c-.5 1-1.8 1.3-2.7.7l-60.6-35c-1-.5-1.3-1.8-.7-2.7s1.8-1.3 2.7-.7l60.6 35c.9.5 1.2 1.8.7 2.7M849.5 915.4c-.5 1-1.8 1.3-2.7.7l-60.6-35c-1-.5-1.3-1.8-.7-2.7s1.8-1.3 2.7-.7l60.6 35c.9.5 1.2 1.8.7 2.7M849.5 927.4c-.5 1-1.8 1.3-2.7.7l-60.6-35c-1-.5-1.3-1.8-.7-2.7s1.8-1.3 2.7-.7l60.6 35c.9.5 1.2 1.8.7 2.7" class="st14"/><path d="m850.8 882.8-24.3-14" class="st7"/><circle cx="821.5" cy="865.8" r="2" class="st8"/><path d="m850.8 873.8-24.3-14" class="st7"/><circle cx="821.5" cy="856.8" r="2" class="st8"/><path d="m850.8 863.8-24.3-14" class="st7"/><circle cx="821.5" cy="846.8" r="2" class="st8"/><path d="m812.8 860.8-24.3-14" class="st7"/><circle cx="783.5" cy="843.8" r="2" class="st8"/><path d="m850.8 891.8-24.3-14" class="st7"/><circle cx="821.5" cy="874.8" r="2" class="st8"/><path d="m812.8 869.8-24.3-14" class="st7"/><circle cx="783.5" cy="852.8" r="2" class="st8"/><path d="m812.8 851.8-24.3-14" class="st7"/><circle cx="783.5" cy="834.8" r="2" class="st8"/><path d="m812.8 841.8-24.3-14" class="st7"/><circle cx="783.5" cy="824.8" r="2" class="st8"/><circle cx="786" cy="814.5" r="3.5" class="st9"/><circle cx="795.4" cy="820.1" r="3.5" class="st10"/><path d="m922.7 901.5 17.3-10M922.7 897.5l17.3-10M922.7 893.5l17.3-10M922.7 889.5l17.3-10M922.7 885.5l17.3-10" class="st11"/><path d="m670.5 856.4 86.6 50 86.6-50-86.6-50z" class="st17"/><path d="M757.1 1006.4v-100l86.6-50v100z" class="st18"/><path d="M757.1 1006.4v-100l-86.6-50v100z" class="st17"/><path d="m670.5 856.4 86.6 50v100-100l86.6-50" class="st5"/><path d="M670.5 856.4v100l86.6 50 86.6-50v-100l-86.6-50z" class="st5"/><path d="M745.5 964.9c-.5 1-1.8 1.3-2.7.7l-60.6-35c-1-.5-1.3-1.8-.7-2.7s1.8-1.3 2.7-.7l60.6 35c.9.5 1.2 1.8.7 2.7M745.5 976.9c-.5 1-1.8 1.3-2.7.7l-60.6-35c-1-.5-1.3-1.8-.7-2.7s1.8-1.3 2.7-.7l60.6 35c.9.5 1.2 1.8.7 2.7M745.5 988.9c-.5 1-1.8 1.3-2.7.7l-60.6-35c-1-.5-1.3-1.8-.7-2.7s1.8-1.3 2.7-.7l60.6 35c.9.5 1.2 1.8.7 2.7" class="st14"/><path d="m746.8 944.3-24.3-14" class="st7"/><circle cx="717.5" cy="927.3" r="2" class="st8"/><path d="m746.8 935.3-24.3-14" class="st7"/><circle cx="717.5" cy="918.3" r="2" class="st8"/><path d="m746.8 925.3-24.3-14" class="st7"/><circle cx="717.5" cy="908.3" r="2" class="st8"/><path d="m708.8 922.3-24.3-14" class="st7"/><circle cx="679.5" cy="905.3" r="2" class="st8"/><path d="m746.8 953.3-24.3-14" class="st7"/><circle cx="717.5" cy="936.3" r="2" class="st8"/><path d="m708.8 931.3-24.3-14" class="st7"/><circle cx="679.5" cy="914.3" r="2" class="st8"/><path d="m708.8 913.3-24.3-14" class="st7"/><circle cx="679.5" cy="896.3" r="2" class="st8"/><path d="m708.8 903.3-24.3-14" class="st7"/><circle cx="679.5" cy="886.3" r="2" class="st8"/><circle cx="682" cy="876" r="3.5" class="st9"/><circle cx="691.4" cy="881.6" r="3.5" class="st10"/><path d="m818.7 963 17.3-10M818.7 959l17.3-10M818.7 955l17.3-10M818.7 951l17.3-10M818.7 947l17.3-10" class="st11"/><path d="m275.4 328.3 86.6 50 86.6-50-86.6-50z" class="st3"/><path d="M362 478.3v-100l86.6-50v100z" class="st4"/><path d="M362 478.4v-100l-86.6-50v100z" class="st3"/><path d="m275.4 328.3 86.6 50v100-100l86.6-50" class="st5"/><path d="M275.4 328.3v100l86.6 50 86.6-50v-100l-86.6-50z" class="st5"/><path d="M350.3 436.9c-.5 1-1.8 1.3-2.7.7l-60.6-35c-1-.5-1.3-1.8-.7-2.7s1.8-1.3 2.7-.7l60.6 35c1 .5 1.3 1.7.7 2.7M350.3 448.9c-.5 1-1.8 1.3-2.7.7l-60.6-35c-1-.5-1.3-1.8-.7-2.7s1.8-1.3 2.7-.7l60.6 35c1 .5 1.3 1.7.7 2.7M350.3 460.9c-.5 1-1.8 1.3-2.7.7l-60.6-35c-1-.5-1.3-1.8-.7-2.7s1.8-1.3 2.7-.7l60.6 35c1 .5 1.3 1.7.7 2.7" class="st6"/><path d="m351.6 416.3-24.3-14" class="st7"/><circle cx="322.3" cy="399.3" r="2" class="st8"/><path d="m351.6 407.3-24.3-14" class="st7"/><circle cx="322.3" cy="390.3" r="2" class="st8"/><path d="m351.6 397.3-24.3-14" class="st7"/><circle cx="322.3" cy="380.3" r="2" class="st8"/><path d="m313.6 394.3-24.3-14" class="st7"/><circle cx="284.3" cy="377.3" r="2" class="st8"/><path d="m351.6 425.3-24.3-14" class="st7"/><circle cx="322.3" cy="408.3" r="2" class="st8"/><path d="m313.6 403.3-24.3-14" class="st7"/><circle cx="284.3" cy="386.3" r="2" class="st8"/><path d="m313.6 385.3-24.3-14" class="st7"/><circle cx="284.3" cy="368.3" r="2" class="st8"/><path d="m313.6 375.3-24.3-14" class="st7"/><circle cx="284.3" cy="358.3" r="2" class="st8"/><circle cx="286.9" cy="348" r="3.5" class="st9"/><circle cx="296.3" cy="353.6" r="3.5" class="st10"/><path d="m423.5 434.9 17.3-10M423.5 430.9l17.3-10M423.5 426.9l17.3-10M423.5 422.9l17.3-10M423.5 418.9l17.3-10" class="st11"/><path d="m379.4 443.7 86.6 50 86.6-50-86.6-50z" class="st19"/><path d="M466 593.7v-100l86.6-50v100z" class="st20"/><path d="M466 593.7v-100l-86.6-50v100z" class="st19"/><path d="m379.4 443.7 86.6 50v100-100l86.6-50" class="st5"/><path d="M379.4 443.7v100l86.6 50 86.6-50v-100l-86.6-50z" class="st5"/><path d="M454.3 552.3c-.6 1-1.8 1.3-2.7.7L391 518c-1-.5-1.3-1.8-.7-2.7.5-1 1.8-1.3 2.7-.7l60.6 35c1 .5 1.3 1.7.7 2.7M454.3 564.3c-.6 1-1.8 1.3-2.7.7L391 530c-1-.5-1.3-1.8-.7-2.7.5-1 1.8-1.3 2.7-.7l60.6 35c1 .5 1.3 1.7.7 2.7M454.3 576.3c-.6 1-1.8 1.3-2.7.7L391 542c-1-.5-1.3-1.8-.7-2.7.5-1 1.8-1.3 2.7-.7l60.6 35c1 .5 1.3 1.7.7 2.7" class="st14"/><path d="m455.6 531.7-24.3-14" class="st7"/><circle cx="426.3" cy="514.7" r="2" class="st8"/><path d="m455.6 522.7-24.3-14" class="st7"/><circle cx="426.3" cy="505.7" r="2" class="st8"/><path d="m455.6 512.7-24.3-14" class="st7"/><circle cx="426.3" cy="495.7" r="2" class="st8"/><path d="m417.6 509.7-24.3-14" class="st7"/><circle cx="388.3" cy="492.7" r="2" class="st8"/><path d="m455.6 540.7-24.3-14" class="st7"/><circle cx="426.3" cy="523.7" r="2" class="st8"/><path d="m417.6 518.7-24.3-14" class="st7"/><circle cx="388.3" cy="501.7" r="2" class="st8"/><path d="m417.6 500.7-24.3-14" class="st7"/><circle cx="388.3" cy="483.7" r="2" class="st8"/><path d="m417.6 490.7-24.3-14" class="st7"/><circle cx="388.3" cy="473.7" r="2" class="st8"/><circle cx="390.9" cy="463.4" r="3.5" class="st9"/><circle cx="400.3" cy="468.9" r="3.5" class="st10"/><path d="m527.5 550.3 17.4-10M527.5 546.3l17.4-10M527.5 542.3l17.4-10M527.5 538.3l17.4-10M527.5 534.3l17.4-10" class="st11"/><path d="m482.5 506.2 86.6 50 86.6-50-86.6-50z" class="st19"/><path d="M569.1 656.2v-100l86.6-50v100z" class="st20"/><path d="M569.1 656.2v-100l-86.6-50v100z" class="st19"/><path d="m482.5 506.2 86.6 50v100-100l86.6-50" class="st5"/><path d="M482.5 506.2v100l86.6 50 86.6-50v-100l-86.6-50z" class="st5"/><path d="M557.5 614.7c-.6 1-1.8 1.3-2.7.7l-60.6-35c-1-.5-1.3-1.8-.7-2.7.6-1 1.8-1.3 2.7-.7l60.6 35c.9.5 1.2 1.8.7 2.7M557.5 626.7c-.6 1-1.8 1.3-2.7.7l-60.6-35c-1-.5-1.3-1.8-.7-2.7.6-1 1.8-1.3 2.7-.7l60.6 35c.9.5 1.2 1.8.7 2.7M557.5 638.7c-.6 1-1.8 1.3-2.7.7l-60.6-35c-1-.5-1.3-1.8-.7-2.7.6-1 1.8-1.3 2.7-.7l60.6 35c.9.5 1.2 1.8.7 2.7" class="st14"/><path d="m558.7 594.1-24.3-14" class="st7"/><circle cx="529.4" cy="577.1" r="2" class="st8"/><path d="m558.7 585.1-24.3-14" class="st7"/><circle cx="529.4" cy="568.1" r="2" class="st8"/><path d="m558.7 575.1-24.3-14" class="st7"/><circle cx="529.4" cy="558.1" r="2" class="st8"/><path d="m520.7 572.1-24.3-14" class="st7"/><circle cx="491.4" cy="555.1" r="2" class="st8"/><path d="m558.7 603.1-24.3-14" class="st7"/><circle cx="529.4" cy="586.1" r="2" class="st8"/><path d="m520.7 581.1-24.3-14" class="st7"/><circle cx="491.4" cy="564.1" r="2" class="st8"/><path d="m520.7 563.1-24.3-14" class="st7"/><circle cx="491.4" cy="546.1" r="2" class="st8"/><path d="m520.7 553.1-24.3-14" class="st7"/><circle cx="491.4" cy="536.1" r="2" class="st8"/><circle cx="494" cy="525.8" r="3.5" class="st9"/><circle cx="503.4" cy="531.4" r="3.5" class="st10"/><path d="m630.7 612.8 17.3-10M630.7 608.8l17.3-10M630.7 604.8l17.3-10M630.7 600.8l17.3-10M630.7 596.8l17.3-10" class="st11"/><path d="m170.5 445.3 86.6 50 86.6-50-86.6-50z" class="st19"/><path d="M257.1 595.3v-100l86.6-50v100z" class="st20"/><path d="M257.1 595.3v-100l-86.6-50v100z" class="st19"/><path d="m170.5 445.3 86.6 50v100-100l86.6-50" class="st5"/><path d="M170.5 445.3v100l86.6 50 86.6-50v-100l-86.6-50z" class="st5"/><path d="M245.5 553.8c-.6 1-1.8 1.3-2.7.7l-60.6-35c-1-.6-1.3-1.8-.7-2.7.6-1 1.8-1.3 2.7-.7l60.6 35c.9.6 1.2 1.8.7 2.7M245.5 565.8c-.6 1-1.8 1.3-2.7.7l-60.6-35c-1-.6-1.3-1.8-.7-2.7.6-1 1.8-1.3 2.7-.7l60.6 35c.9.6 1.2 1.8.7 2.7M245.5 577.8c-.6 1-1.8 1.3-2.7.7l-60.6-35c-1-.6-1.3-1.8-.7-2.7.6-1 1.8-1.3 2.7-.7l60.6 35c.9.6 1.2 1.8.7 2.7" class="st14"/><path d="m246.7 533.3-24.3-14" class="st7"/><circle cx="217.4" cy="516.3" r="2" class="st8"/><path d="m246.7 524.3-24.3-14" class="st7"/><circle cx="217.4" cy="507.3" r="2" class="st8"/><path d="m246.7 514.3-24.3-14" class="st7"/><circle cx="217.4" cy="497.3" r="2" class="st8"/><path d="m208.7 511.3-24.3-14" class="st7"/><circle cx="179.4" cy="494.3" r="2" class="st8"/><path d="m246.7 542.3-24.3-14" class="st7"/><circle cx="217.4" cy="525.3" r="2" class="st8"/><path d="m208.7 520.3-24.3-14" class="st7"/><circle cx="179.4" cy="503.3" r="2" class="st8"/><path d="m208.7 502.3-24.3-14" class="st7"/><circle cx="179.4" cy="485.3" r="2" class="st8"/><path d="m208.7 492.3-24.3-14" class="st7"/><circle cx="179.4" cy="475.3" r="2" class="st8"/><circle cx="182" cy="465" r="3.5" class="st9"/><circle cx="191.4" cy="470.5" r="3.5" class="st10"/><path d="m318.6 551.9 17.4-10M318.6 547.9l17.4-10M318.6 543.9l17.4-10M318.6 539.9l17.4-10M318.6 535.9l17.4-10" class="st11"/><path d="m66.5 506.8 86.6 50 86.6-50-86.6-50z" class="st19"/><path d="M153.1 656.8v-100l86.6-50v100z" class="st20"/><path d="M153.1 656.8v-100l-86.6-50v100z" class="st19"/><path d="m66.5 506.8 86.6 50v100-100l86.6-50" class="st5"/><path d="M66.5 506.8v100l86.6 50 86.6-50v-100l-86.6-50z" class="st5"/><path d="M141.5 615.4c-.6 1-1.8 1.3-2.7.7l-60.6-35c-1-.5-1.3-1.8-.7-2.7.5-1 1.8-1.3 2.7-.7l60.6 35c.9.5 1.2 1.7.7 2.7M141.5 627.4c-.6 1-1.8 1.3-2.7.7l-60.6-35c-1-.5-1.3-1.8-.7-2.7.5-1 1.8-1.3 2.7-.7l60.6 35c.9.5 1.2 1.7.7 2.7M141.5 639.4c-.6 1-1.8 1.3-2.7.7l-60.6-35c-1-.5-1.3-1.8-.7-2.7.5-1 1.8-1.3 2.7-.7l60.6 35c.9.5 1.2 1.7.7 2.7" class="st14"/><path d="m142.7 594.8-24.3-14" class="st7"/><circle cx="113.4" cy="577.8" r="2" class="st8"/><path d="m142.7 585.8-24.3-14" class="st7"/><circle cx="113.4" cy="568.8" r="2" class="st8"/><path d="m142.7 575.8-24.3-14" class="st7"/><circle cx="113.4" cy="558.8" r="2" class="st8"/><path d="m104.7 572.8-24.3-14" class="st7"/><circle cx="75.4" cy="555.8" r="2" class="st8"/><path d="m142.7 603.8-24.3-14" class="st7"/><circle cx="113.4" cy="586.8" r="2" class="st8"/><path d="m104.7 581.8-24.3-14" class="st7"/><circle cx="75.4" cy="564.8" r="2" class="st8"/><path d="m104.7 563.8-24.3-14" class="st7"/><circle cx="75.4" cy="546.8" r="2" class="st8"/><path d="m104.7 553.8-24.3-14" class="st7"/><circle cx="75.4" cy="536.8" r="2" class="st8"/><circle cx="78" cy="526.5" r="3.5" class="st9"/><circle cx="87.4" cy="532" r="3.5" class="st10"/><path d="m214.6 613.4 17.4-10M214.6 609.4l17.4-10M214.6 605.4l17.4-10M214.6 601.4l17.4-10M214.6 597.4l17.4-10" class="st11"/><path d="m274.5 505.6 86.6 50 86.6-50-86.6-50z" class="st19"/><path d="M361.1 655.6v-100l86.6-50v100z" class="st20"/><path d="M361.1 655.6v-100l-86.6-50v100z" class="st19"/><path d="m274.5 505.6 86.6 50v100-100l86.6-50" class="st5"/><path d="M274.5 505.6v100l86.6 50 86.6-50v-100l-86.6-50z" class="st5"/><path d="M349.5 614.1c-.5 1-1.8 1.3-2.7.7l-60.6-35c-1-.6-1.3-1.8-.7-2.7.6-1 1.8-1.3 2.7-.7l60.6 35c.9.5 1.2 1.8.7 2.7M349.5 626.1c-.5 1-1.8 1.3-2.7.7l-60.6-35c-1-.6-1.3-1.8-.7-2.7.6-1 1.8-1.3 2.7-.7l60.6 35c.9.5 1.2 1.8.7 2.7M349.5 638.1c-.5 1-1.8 1.3-2.7.7l-60.6-35c-1-.6-1.3-1.8-.7-2.7.6-1 1.8-1.3 2.7-.7l60.6 35c.9.5 1.2 1.8.7 2.7" class="st14"/><path d="m350.7 593.6-24.3-14.1" class="st7"/><circle cx="321.4" cy="576.5" r="2" class="st8"/><path d="m350.7 584.6-24.3-14.1" class="st7"/><circle cx="321.4" cy="567.5" r="2" class="st8"/><path d="m350.7 574.6-24.3-14.1" class="st7"/><circle cx="321.4" cy="557.5" r="2" class="st8"/><path d="m312.7 571.6-24.3-14.1" class="st7"/><circle cx="283.4" cy="554.5" r="2" class="st8"/><path d="m350.7 602.6-24.3-14.1" class="st7"/><circle cx="321.4" cy="585.5" r="2" class="st8"/><path d="m312.7 580.6-24.3-14.1" class="st7"/><circle cx="283.4" cy="563.5" r="2" class="st8"/><path d="m312.7 562.6-24.3-14.1" class="st7"/><circle cx="283.4" cy="545.5" r="2" class="st8"/><path d="m312.7 552.6-24.3-14.1" class="st7"/><circle cx="283.4" cy="535.5" r="2" class="st8"/><circle cx="286" cy="525.3" r="3.5" class="st9"/><circle cx="295.4" cy="530.8" r="3.5" class="st10"/><path d="m422.7 612.2 17.3-10M422.7 608.2l17.3-10M422.7 604.2l17.3-10M422.7 600.2l17.3-10M422.7 596.2l17.3-10" class="st11"/><path d="m170.5 567.1 86.6 50 86.6-50-86.6-50z" class="st19"/><path d="M257.1 717.1v-100l86.6-50v100z" class="st20"/><path d="M257.1 717.1v-100l-86.6-50v100z" class="st19"/><path d="m170.5 567.1 86.6 50v100-100l86.6-50" class="st5"/><path d="M170.5 567.1v100l86.6 50 86.6-50v-100l-86.6-50z" class="st5"/><path d="M245.5 675.6c-.6 1-1.8 1.3-2.7.7l-60.6-35c-1-.5-1.3-1.8-.7-2.7.5-1 1.8-1.3 2.7-.7l60.6 35c.9.6 1.2 1.8.7 2.7M245.5 687.6c-.6 1-1.8 1.3-2.7.7l-60.6-35c-1-.5-1.3-1.8-.7-2.7.5-1 1.8-1.3 2.7-.7l60.6 35c.9.6 1.2 1.8.7 2.7M245.5 699.6c-.6 1-1.8 1.3-2.7.7l-60.6-35c-1-.5-1.3-1.8-.7-2.7.5-1 1.8-1.3 2.7-.7l60.6 35c.9.6 1.2 1.8.7 2.7" class="st14"/><path d="M246.7 655.1 222.4 641" class="st7"/><circle cx="217.4" cy="638" r="2" class="st8"/><path d="M246.7 646.1 222.4 632" class="st7"/><circle cx="217.4" cy="629" r="2" class="st8"/><path d="M246.7 636.1 222.4 622" class="st7"/><circle cx="217.4" cy="619" r="2" class="st8"/><path d="M208.7 633.1 184.4 619" class="st7"/><circle cx="179.4" cy="616" r="2" class="st8"/><path d="M246.7 664.1 222.4 650" class="st7"/><circle cx="217.4" cy="647" r="2" class="st8"/><path d="M208.7 642.1 184.4 628" class="st7"/><circle cx="179.4" cy="625" r="2" class="st8"/><path d="M208.7 624.1 184.4 610" class="st7"/><circle cx="179.4" cy="607" r="2" class="st8"/><path d="M208.7 614.1 184.4 600" class="st7"/><circle cx="179.4" cy="597" r="2" class="st8"/><circle cx="182" cy="586.8" r="3.5" class="st9"/><circle cx="191.4" cy="592.3" r="3.5" class="st10"/><path d="m318.7 673.7 17.3-10M318.7 669.7l17.3-10M318.7 665.7l17.3-10M318.7 661.7l17.3-10M318.7 657.7l17.3-10" class="st11"/><path d="m378.5 565.9 86.6 50 86.6-50-86.6-50z" class="st19"/><path d="M465.1 715.9v-100l86.6-50v100z" class="st20"/><path d="M465.1 715.9v-100l-86.6-50v100z" class="st19"/><path d="m378.5 565.9 86.6 50v100-100l86.6-50" class="st5"/><path d="M378.5 565.9v100l86.6 50 86.6-50v-100l-86.6-50z" class="st5"/><path d="M453.5 674.4c-.5 1-1.8 1.3-2.7.7l-60.6-35c-1-.6-1.3-1.8-.7-2.7.6-1 1.8-1.3 2.7-.7l60.6 35c.9.5 1.2 1.8.7 2.7M453.5 686.4c-.5 1-1.8 1.3-2.7.7l-60.6-35c-1-.6-1.3-1.8-.7-2.7.6-1 1.8-1.3 2.7-.7l60.6 35c.9.5 1.2 1.8.7 2.7M453.5 698.4c-.5 1-1.8 1.3-2.7.7l-60.6-35c-1-.6-1.3-1.8-.7-2.7.6-1 1.8-1.3 2.7-.7l60.6 35c.9.5 1.2 1.8.7 2.7" class="st14"/><path d="m454.7 653.8-24.3-14" class="st7"/><circle cx="425.4" cy="636.8" r="2" class="st8"/><path d="m454.7 644.8-24.3-14" class="st7"/><circle cx="425.4" cy="627.8" r="2" class="st8"/><path d="m454.7 634.8-24.3-14" class="st7"/><circle cx="425.4" cy="617.8" r="2" class="st8"/><path d="m416.7 631.8-24.3-14" class="st7"/><circle cx="387.4" cy="614.8" r="2" class="st8"/><path d="m454.7 662.8-24.3-14" class="st7"/><circle cx="425.4" cy="645.8" r="2" class="st8"/><path d="m416.7 640.8-24.3-14" class="st7"/><circle cx="387.4" cy="623.8" r="2" class="st8"/><path d="m416.7 622.8-24.3-14" class="st7"/><circle cx="387.4" cy="605.8" r="2" class="st8"/><path d="m416.7 612.8-24.3-14" class="st7"/><circle cx="387.4" cy="595.8" r="2" class="st8"/><circle cx="390" cy="585.5" r="3.5" class="st9"/><circle cx="399.4" cy="591.1" r="3.5" class="st10"/><path d="m526.7 672.5 17.3-10M526.7 668.5l17.3-10M526.7 664.5l17.3-10M526.7 660.5l17.3-10M526.7 656.5l17.3-10" class="st11"/><path d="m274.5 627.4 86.6 50 86.6-50-86.6-50z" class="st19"/><path d="M361.1 777.4v-100l86.6-50v100z" class="st20"/><path d="M361.1 777.4v-100l-86.6-50v100z" class="st19"/><path d="m274.5 627.4 86.6 50v100-100l86.6-50" class="st5"/><path d="M274.5 627.4v100l86.6 50 86.6-50v-100l-86.6-50z" class="st5"/><path d="M349.5 735.9c-.5 1-1.8 1.3-2.7.7l-60.6-35c-1-.5-1.3-1.8-.7-2.7.6-1 1.8-1.3 2.7-.7l60.6 35c.9.5 1.2 1.8.7 2.7M349.5 747.9c-.5 1-1.8 1.3-2.7.7l-60.6-35c-1-.5-1.3-1.8-.7-2.7.6-1 1.8-1.3 2.7-.7l60.6 35c.9.5 1.2 1.8.7 2.7M349.5 759.9c-.5 1-1.8 1.3-2.7.7l-60.6-35c-1-.5-1.3-1.8-.7-2.7.6-1 1.8-1.3 2.7-.7l60.6 35c.9.5 1.2 1.8.7 2.7" class="st14"/><path d="m350.7 715.4-24.3-14.1" class="st7"/><circle cx="321.4" cy="698.3" r="2" class="st8"/><path d="m350.7 706.4-24.3-14.1" class="st7"/><circle cx="321.4" cy="689.3" r="2" class="st8"/><path d="m350.7 696.4-24.3-14.1" class="st7"/><circle cx="321.4" cy="679.3" r="2" class="st8"/><path d="m312.7 693.4-24.3-14.1" class="st7"/><circle cx="283.4" cy="676.3" r="2" class="st8"/><path d="m350.7 724.4-24.3-14.1" class="st7"/><circle cx="321.4" cy="707.3" r="2" class="st8"/><path d="m312.7 702.4-24.3-14.1" class="st7"/><circle cx="283.4" cy="685.3" r="2" class="st8"/><path d="m312.7 684.4-24.3-14.1" class="st7"/><circle cx="283.4" cy="667.3" r="2" class="st8"/><path d="m312.7 674.4-24.3-14.1" class="st7"/><circle cx="283.4" cy="657.3" r="2" class="st8"/><circle cx="286" cy="647.1" r="3.5" class="st9"/><circle cx="295.4" cy="652.6" r="3.5" class="st10"/><path d="m422.7 734 17.3-10M422.7 730l17.3-10M422.7 726l17.3-10M422.7 722l17.3-10M422.7 718l17.3-10" class="st11"/><g class="outline-anim"><path d="M1503.6 605.5v-164l-746.5 431v164z" class="st2" style="display:inline;fill:#a4bcdb;fill-opacity:.3"/><path d="m757.1 1036.5-746.6-431v-164l746.6 431z" class="st2" style="display:inline;fill:#a4bcdb;fill-opacity:.3"/><path d="m757.1 1036.5 746.5-431" class="st1" style="stroke:#a4bcdb;stroke-opacity:.5"/><path d="m757.1 1036.5-746.6-431" class="st0" style="stroke:#a4bcdb;stroke-opacity:.5"/><path d="m757.1 873.5 746.5-431M10.5 442.5l746.6-431" class="st1" style="stroke:#a4bcdb;stroke-opacity:.5"/><path d="m757.1 873.5-746.6-431M1503.6 442.5l-746.5-431M757.1 1036.5v-163M1503.6 605.5v-163M10.5 605.5v-163" class="st0" style="stroke:#a4bcdb;stroke-opacity:.5"/><path d="m1503.6 441.5-746.5-431-746.6 431 746.6 431z" class="st2" style="display:inline;fill:#a4bcdb;fill-opacity:.3"/></g></svg>