<svg xmlns="http://www.w3.org/2000/svg" xml:space="preserve" id="Layer_1" width="442.1" height="137.41" x="0" y="0" viewBox="0 0 442.1 137.41"><style id="style3" type="text/css">.st1{fill:#2e4153}</style><g id="g9" style="fill:#fff;fill-opacity:1" transform="translate(-230.48 -36.32)"><path id="path11" d="M230.48 162.09V82.08c0-2.1.07-3.65.21-4.66.14-1 .52-2.14 1.16-3.42 1.28-2.47 4.34-3.7 9.18-3.7s8.1.62 9.79 1.85 2.67 3.04 2.95 5.41c3.47-4.75 8.93-7.12 16.37-7.12s14.5 3.52 21.17 10.55 10 15.21 10 24.52c0 9.32-3.31 17.49-9.93 24.52s-13.68 10.55-21.17 10.55-12.92-2.1-16.3-6.3v27.67c0 2.1-.07 3.65-.21 4.66-.14 1-.55 2.17-1.23 3.49-.69 1.32-1.85 2.26-3.49 2.81s-3.88.82-6.71.82-5.09-.27-6.78-.82-2.88-1.46-3.56-2.74q-1.035-1.92-1.23-3.42c-.15-1.01-.22-2.56-.22-4.66m27.13-64.53c-2.1 2.47-3.15 5.16-3.15 8.08s1.07 5.6 3.22 8.01q3.21 3.63 8.22 3.63c3.33 0 6.17-1.19 8.49-3.56 2.33-2.37 3.49-5.07 3.49-8.08s-1.1-5.73-3.29-8.15-5.05-3.63-8.56-3.63c-3.52.01-6.32 1.24-8.42 3.7" class="st1" style="fill:#fff;fill-opacity:1"/><path id="path13" d="M359.26 71.12c1.73.55 3.17 1.49 4.32 2.81 1.14 1.32 1.71 3.45 1.71 6.37s-.87 6.12-2.6 9.59c-1.74 3.47-4.25 5.21-7.54 5.21-1.64 0-3.22-.36-4.73-1.1-1.51-.73-3.49-1.1-5.96-1.1s-4.77.87-6.92 2.6c-2.15 1.74-3.22 3.84-3.22 6.3v28.77c0 2.1-.07 3.68-.21 4.73s-.57 2.26-1.3 3.63c-1.37 2.38-4.93 3.56-10.69 3.56-4.38 0-7.54-.77-9.45-2.33-1.46-1.28-2.28-3.24-2.47-5.89V82.22c0-2.1.07-3.68.21-4.73s.52-2.21 1.16-3.49c1.28-2.47 4.84-3.7 10.69-3.7 5.48 0 8.91 1.05 10.27 3.15 1 1.46 1.51 2.97 1.51 4.52.46-.64 1.12-1.42 1.99-2.33s2.72-2.15 5.55-3.7 5.32-2.33 7.47-2.33 3.95.12 5.41.34q2.19.36 4.8 1.17" class="st1" style="fill:#fff;fill-opacity:1"/><path id="path15" d="M395.36 56.94c-.69 1.33-1.9 2.26-3.63 2.81-1.74.55-4.04.82-6.92.82s-5.18-.27-6.92-.82q-2.61-.825-3.63-2.88-1.035-2.055-1.23-3.63c-.14-1.05-.21-2.62-.21-4.73 0-2.1.07-3.68.21-4.73s.52-2.21 1.16-3.49c1.28-2.47 4.84-3.7 10.69-3.7 5.75 0 9.22 1.23 10.41 3.7.73 1.37 1.16 2.58 1.3 3.63s.21 2.63.21 4.73-.07 3.68-.21 4.73-.55 2.24-1.23 3.56m-22.54 25.42c0-2.1.07-3.68.21-4.73s.52-2.26 1.16-3.63c1.28-2.37 4.84-3.56 10.69-3.56 4.38 0 7.49.78 9.32 2.33 1.55 1.28 2.37 3.24 2.47 5.89.09.91.14 2.24.14 3.97v47.95c0 2.1-.07 3.68-.21 4.73s-.57 2.26-1.3 3.63c-1.19 2.38-4.71 3.56-10.55 3.56-5.75 0-9.27-1.23-10.55-3.7-.64-1.37-1.03-2.56-1.16-3.56-.14-1-.21-2.6-.21-4.79V82.36Z" class="st1" style="fill:#fff;fill-opacity:1"/><path id="path17" d="m449.67 94.55-8.9-.55v18.91c0 2.47.39 4.25 1.16 5.34.78 1.1 2.24 1.64 4.38 1.64s3.79.07 4.93.21 2.35.57 3.63 1.3q3.15 1.785 3.15 9.18c0 5.75-1.28 9.27-3.84 10.55-1.37.64-2.58 1.03-3.63 1.16q-1.575.21-4.59.21c-9.5 0-16.71-2.15-21.65-6.44-4.93-4.29-7.4-11.55-7.4-21.78V94c-1.74.27-3.61.41-5.62.41s-3.68-.77-5-2.33c-1.32-1.55-1.99-4.2-1.99-7.95 0-3.74.23-6.46.69-8.15q.69-2.535 1.92-3.63c1.46-1.19 3.29-1.78 5.48-1.78l4.52.55V57.01c0-2.1.07-3.65.21-4.66.14-1 .57-2.1 1.3-3.29 1.19-2.28 4.7-3.42 10.55-3.42q9.315 0 11.1 5.07.69 2.19.69 6.99v13.43c4.02-.36 7.06-.55 9.11-.55s3.61.07 4.66.21 2.26.57 3.63 1.3c2.37 1.19 3.56 4.71 3.56 10.55 0 5.75-1.23 9.27-3.7 10.55-1.37.64-2.58 1.03-3.63 1.16-1.04.13-2.62.2-4.72.2" class="st1" style="fill:#fff;fill-opacity:1"/><path id="path19" d="M501.32 142.23c-9.23 0-16.88-3.49-22.95-10.48-6.08-6.99-9.11-15.5-9.11-25.55V82.22q0-3.285.21-4.8c.14-1 .52-2.19 1.16-3.56 1.28-2.47 4.84-3.7 10.69-3.7 6.39 0 10.14 1.74 11.23 5.21.55 1.46.82 3.79.82 6.99v23.98c0 3.75 1.07 6.67 3.22 8.77 2.14 2.1 5.02 3.15 8.63 3.15s6.53-1.1 8.77-3.29 3.36-5.07 3.36-8.63V82.08c0-2.1.07-3.68.21-4.73s.57-2.26 1.3-3.63c1.19-2.37 4.7-3.56 10.55-3.56 5.75 0 9.27 1.23 10.55 3.7q.96 2.055 1.17 3.63c.14 1.05.21 2.63.21 4.73v48.5q0 3.015-.21 4.59c-.14 1.05-.57 2.22-1.3 3.49-1.37 2.38-4.89 3.56-10.55 3.56-5.57 0-9-1.1-10.28-3.29-.91-1.55-1.37-3.43-1.37-5.62-.37.64-1.19 1.55-2.47 2.74s-2.51 2.19-3.7 3.01q-4.665 3.03-10.14 3.03" class="st1" style="fill:#fff;fill-opacity:1"/><path id="path21" d="M592.43 70.3c9.13 0 16.74 3.49 22.81 10.48s9.11 15.5 9.11 25.55v24.11c0 2.1-.07 3.68-.21 4.73s-.53 2.22-1.17 3.49c-1.28 2.47-4.84 3.7-10.69 3.7-6.49 0-10.23-1.69-11.23-5.07-.55-1.55-.82-3.88-.82-6.99v-24.11c0-3.74-1.07-6.67-3.22-8.77s-5.02-3.15-8.63-3.15-6.53 1.1-8.77 3.29-3.36 5.07-3.36 8.63v24.25c0 2.1-.07 3.68-.21 4.73s-.57 2.22-1.3 3.49c-1.19 2.47-4.71 3.7-10.55 3.7-5.75 0-9.27-1.23-10.55-3.7-.64-1.37-1.03-2.58-1.16-3.63-.14-1.05-.21-2.62-.21-4.73V81.8q0-3.015.21-4.59c.14-1.05.57-2.21 1.3-3.49 1.28-2.28 4.79-3.43 10.55-3.43 5.57 0 9 1.05 10.27 3.15.91 1.55 1.37 3.42 1.37 5.62.36-.64 1.19-1.55 2.47-2.74s2.51-2.15 3.7-2.88c3.11-2.09 6.54-3.14 10.29-3.14" class="st1" style="fill:#fff;fill-opacity:1"/><path id="path23" d="M635.31 48.38c0-2.1.07-3.68.21-4.73s.52-2.26 1.16-3.63c1.28-2.47 4.84-3.7 10.69-3.7 5.57 0 9.04 1.23 10.41 3.7.73 1.37 1.16 2.6 1.3 3.7s.21 2.69.21 4.79v63.43c0 3.29.27 5.37.82 6.23.55.87 1.76 1.3 3.63 1.3s3.13.07 3.77.21 1.42.53 2.33 1.16c1.83 1.19 2.74 4.43 2.74 9.73 0 5.75-.91 9.27-2.74 10.55-2.38 1.64-8.04 1.92-16.99.82-7.03-.91-11.6-3.24-13.7-6.99-2.56-4.47-3.84-11.6-3.84-21.37z" class="st1" style="fill:#fff;fill-opacity:1"/></g></svg>