<?xml version="1.0" encoding="UTF-8" standalone="no"?>
<!-- Created with Inkscape (http://www.inkscape.org/) -->

<svg
   width="154.26015mm"
   height="21.350105mm"
   viewBox="0 0 154.26015 21.350105"
   version="1.1"
   id="svg1"
   inkscape:version="1.4.3 (0d15f75042, 2025-12-25)"
   sodipodi:docname="pritunl_logo.svg"
   xmlns:inkscape="http://www.inkscape.org/namespaces/inkscape"
   xmlns:sodipodi="http://sodipodi.sourceforge.net/DTD/sodipodi-0.dtd"
   xmlns="http://www.w3.org/2000/svg"
   xmlns:svg="http://www.w3.org/2000/svg">
  <sodipodi:namedview
     id="namedview1"
     pagecolor="#000000"
     bordercolor="#000000"
     borderopacity="0.25"
     inkscape:showpageshadow="false"
     inkscape:pageopacity="0.0"
     inkscape:pagecheckerboard="true"
     inkscape:deskcolor="#313131"
     inkscape:document-units="mm"
     showgrid="false"
     inkscape:zoom="4.6413109"
     inkscape:cx="296.68342"
     inkscape:cy="40.936711"
     inkscape:window-width="3840"
     inkscape:window-height="2085"
     inkscape:window-x="0"
     inkscape:window-y="43"
     inkscape:window-maximized="1"
     inkscape:current-layer="svg1"
     showborder="false">
    <inkscape:grid
       id="grid9"
       units="mm"
       originx="-32.244988"
       originy="-78.252115"
       spacingx="0.99999998"
       spacingy="1"
       empcolor="#0099e5"
       empopacity="0.30196078"
       color="#0099e5"
       opacity="0.14901961"
       empspacing="5"
       enabled="true"
       visible="false" />
  </sodipodi:namedview>
  <defs
     id="defs1" />
  <path
     style="font-weight:300;font-size:20.4611px;font-family:Fredoka;-inkscape-font-specification:'Fredoka Light';fill:#ffffff;stroke-width:0.264583"
     d="m 79.822651,16.60621 q -0.941211,0 -1.780116,-0.347839 -0.818444,-0.347838 -1.432277,-1.002594 -0.613833,-0.654755 -0.961671,-1.555043 -0.347839,-0.92075 -0.347839,-2.025649 0,-1.084438 0.347839,-1.9642656 0.347838,-0.9002884 0.961671,-1.5345825 0.613833,-0.6547552 1.432277,-1.0025939 0.838905,-0.3478387 1.780116,-0.3478387 1.002594,0 1.841499,0.3478387 0.838905,0.3478387 1.452738,1.0025939 0.613833,0.6547552 0.941211,1.5550436 0.347838,0.9002885 0.347838,2.0051875 0,1.1049 -0.347838,2.005188 -0.327378,0.879827 -0.941211,1.534582 -0.613833,0.634295 -1.452738,0.982133 -0.838905,0.347839 -1.841499,0.347839 z m 0.18415,-1.084438 q 1.023055,0 1.821038,-0.470606 0.797983,-0.491066 1.268588,-1.329971 0.470605,-0.859366 0.470605,-1.984727 0,-1.145821 -0.470605,-2.0051875 Q 82.625822,8.8719143 81.807378,8.401309 81.009395,7.9102426 80.006801,7.9102426 q -1.002594,0 -1.821038,0.4910664 -0.818444,0.4706053 -1.289049,1.3299715 -0.470606,0.8593665 -0.470606,2.0051875 0,1.125361 0.470606,1.984727 0.470605,0.838905 1.289049,1.329971 0.818444,0.470606 1.821038,0.470606 z m 4.214986,1.084438 q -0.327377,0 -0.470605,-0.143228 -0.122767,-0.143227 -0.122767,-0.470605 V 2.9586565 q 0,-0.2455332 0.04092,-0.3682998 0.06138,-0.1432277 0.18415,-0.204611 0.143227,-0.061383 0.347838,-0.061383 0.225072,0 0.347839,0.061383 0.122767,0.061383 0.18415,0.204611 0.06138,0.1227666 0.06138,0.3478387 V 15.971916 q 0,0.225072 -0.06138,0.3683 -0.04092,0.143227 -0.163689,0.204611 -0.122767,0.06138 -0.347839,0.06138 z m 8.020765,0.04092 q -1.12536,0 -2.066571,-0.3683 Q 89.255232,15.910533 88.580015,15.235316 87.92526,14.5601 87.55696,13.63935 q -0.3683,-0.920749 -0.3683,-2.046109 0,-1.329972 0.634295,-2.3939491 0.634294,-1.0639772 1.759654,-1.6778102 1.125361,-0.6342941 2.578099,-0.6342941 0.94121,0 1.718732,0.2864554 0.777522,0.2864554 1.350433,0.7775218 0.57291,0.4910664 0.879827,1.1253605 0.327377,0.6342941 0.327377,1.3095107 0,1.002594 -0.470605,1.370893 -0.450144,0.347839 -1.104899,0.347839 h -6.445247 q -0.04092,1.084438 0.531989,1.86196 0.593372,0.777522 1.473199,1.207205 0.900289,0.409222 1.800577,0.409222 0.593372,0 1.023055,-0.06138 0.450144,-0.06138 0.757061,-0.163689 0.327377,-0.122767 0.552449,-0.225072 0.225072,-0.122767 0.409222,-0.225072 0.18415,-0.122767 0.347839,-0.18415 0.102305,-0.04092 0.225072,-0.02046 0.143228,0 0.204611,0.102305 0.102306,0.143228 0.143228,0.265994 0.04092,0.102306 0.04092,0.245534 0,0.18415 -0.491066,0.511527 -0.491067,0.306917 -1.329972,0.55245 -0.838905,0.265994 -1.86196,0.265994 z m -3.826226,-5.524497 h 6.097408 q 0.409222,0 0.634294,-0.08184 0.225072,-0.102306 0.225072,-0.613833 0,-0.6752164 -0.429683,-1.2276661 -0.409222,-0.5729108 -1.12536,-0.9207495 -0.716139,-0.3478387 -1.636888,-0.3478387 -1.023055,0 -1.902883,0.409222 -0.859366,0.409222 -1.370893,1.1458216 -0.511528,0.7161387 -0.491067,1.6368877 z m 13.667994,5.483575 q -0.26599,0 -0.42968,-0.06138 -0.14323,-0.06138 -0.24553,-0.265995 L 97.562421,7.582865 q -0.143228,-0.3478387 -0.04092,-0.4910664 0.122767,-0.1432277 0.388761,-0.2864554 0.245533,-0.1227666 0.429683,-0.061383 0.204611,0.040922 0.327378,0.3273776 l 3.417,8.2049005 3.35562,-7.9389062 q 0.12277,-0.2864554 0.28646,-0.5115275 0.18415,-0.2250721 0.63429,0 0.42969,0.204611 0.3683,0.4501442 -0.0409,0.2455332 -0.14322,0.4706053 L 102.78,16.258371 q -0.0818,0.18415 -0.24553,0.265995 -0.16369,0.08184 -0.45015,0.08184 z"
     id="dev"
     inkscape:label="dev"
     aria-label="dev" />
  <path
     style="font-weight:300;font-size:20.4611px;font-family:Fredoka;-inkscape-font-specification:'Fredoka Light';fill:#ffffff;stroke-width:0.264583"
     d="m 79.945418,16.60621 q -0.92075,0 -1.555044,-0.163689 -0.613833,-0.163689 -1.002594,-0.511527 -0.388761,-0.347839 -0.55245,-0.92075 -0.163688,-0.593372 -0.163688,-1.452738 V 4.1454003 q 0,-0.2455332 0.04092,-0.3682998 0.06138,-0.1432277 0.18415,-0.204611 0.122766,-0.061383 0.327377,-0.061383 0.225072,0 0.347839,0.061383 0.143228,0.040922 0.204611,0.1636888 0.06138,0.1227666 0.06138,0.3478387 v 9.514411 q 0,0.634294 0.102306,1.023055 0.122766,0.3683 0.347838,0.55245 0.245534,0.18415 0.654756,0.245533 0.409222,0.04092 0.982132,0.04092 0.245534,0 0.3683,0.06138 0.143228,0.04092 0.204611,0.163688 0.06138,0.122767 0.06138,0.347839 0,0.225072 -0.06138,0.347839 -0.06138,0.122766 -0.204611,0.163689 -0.122766,0.06138 -0.347838,0.06138 z m -4.542365,-9.4939503 1.821038,0.040922 2.844093,-0.040922 q 0.225072,0 0.347839,0.061383 0.143228,0.040922 0.204611,0.1636888 0.06138,0.1227666 0.06138,0.3273776 0,0.2250721 -0.06138,0.3682998 -0.04092,0.1227666 -0.163689,0.1841499 -0.122767,0.040922 -0.347839,0.040922 l -2.885015,-0.040922 -1.86196,0.040922 q -0.327377,0 -0.450144,-0.1227666 Q 74.78922,7.992087 74.78922,7.6647094 q 0,-0.3069165 0.143228,-0.4296831 0.143228,-0.1227666 0.470605,-0.1227666 z m 11.78559,9.5757943 q -1.023055,0 -1.923344,-0.388761 -0.900288,-0.38876 -1.595966,-1.063977 -0.675216,-0.675216 -1.063977,-1.575504 -0.388761,-0.900289 -0.388761,-1.923344 0,-1.043516 0.3683,-1.9233431 0.388761,-0.9002884 1.063977,-1.5755047 0.695678,-0.6956774 1.575505,-1.0639772 0.900288,-0.3887609 1.923343,-0.3887609 1.370894,0 2.475793,0.6547552 1.1049,0.6342941 1.759655,1.7596546 0.654755,1.1048991 0.654755,2.5167151 0,1.063977 -0.388761,1.964266 -0.368299,0.900288 -1.043516,1.575504 -0.654755,0.675217 -1.534582,1.063978 -0.879828,0.368299 -1.882421,0.368299 z m -0.04092,-1.104899 q 1.043516,0 1.882422,-0.511528 0.859366,-0.531988 1.350432,-1.411815 0.511528,-0.900289 0.511528,-1.984727 0,-1.104899 -0.491067,-1.9642656 -0.491066,-0.8593662 -1.350432,-1.3299715 -0.838905,-0.4910664 -1.923344,-0.4910664 -1.063977,0 -1.923343,0.5115275 -0.838905,0.4910664 -1.350433,1.3504326 -0.491066,0.8593664 -0.491066,1.9438044 0,1.104899 0.491066,1.984727 0.511528,0.879827 1.370894,1.391354 0.859366,0.511528 1.923343,0.511528 z m 11.499129,1.104899 q -1.023055,0 -1.923344,-0.388761 -0.900288,-0.38876 -1.595965,-1.063977 -0.675217,-0.675216 -1.063978,-1.575504 -0.38876,-0.900289 -0.38876,-1.923344 0,-1.043516 0.368299,-1.9233431 0.388761,-0.9002884 1.063978,-1.5755047 0.695677,-0.6956774 1.575504,-1.0639772 0.900289,-0.3887609 1.923344,-0.3887609 1.370893,0 2.475793,0.6547552 1.1049,0.6342941 1.75965,1.7596546 0.65476,1.1048991 0.65476,2.5167151 0,1.063977 -0.38876,1.964266 -0.3683,0.900288 -1.04352,1.575504 -0.65475,0.675217 -1.53458,1.063978 -0.879827,0.368299 -1.882421,0.368299 z m -0.04092,-1.104899 q 1.043516,0 1.882423,-0.511528 0.85936,-0.531988 1.35043,-1.411815 0.51153,-0.900289 0.51153,-1.984727 0,-1.104899 -0.49107,-1.9642656 -0.49106,-0.8593662 -1.35043,-1.3299715 -0.838906,-0.4910664 -1.923345,-0.4910664 -1.063977,0 -1.923343,0.5115275 -0.838905,0.4910664 -1.350432,1.3504326 -0.491067,0.8593664 -0.491067,1.9438044 0,1.104899 0.491067,1.984727 0.511527,0.879827 1.370893,1.391354 0.859366,0.511528 1.923344,0.511528 z m 9.923623,1.023055 q -0.57291,0 -1.04352,-0.122767 -0.45014,-0.122766 -0.79798,-0.368299 -0.34784,-0.245534 -0.59337,-0.613833 -0.22507,-0.3683 -0.34784,-0.859367 -0.10231,-0.491066 -0.10231,-1.084438 V 2.9177343 q 0,-0.2455332 0.0409,-0.3682998 0.0614,-0.1432277 0.18415,-0.204611 0.14322,-0.061383 0.34783,-0.061383 0.22508,0 0.34784,0.061383 0.14323,0.040922 0.20461,0.1636888 0.0614,0.1227666 0.0614,0.3478387 v 10.742077 q 0,0.450144 0.1023,0.797983 0.10231,0.327378 0.30692,0.572911 0.22507,0.225072 0.53199,0.347839 0.32738,0.102305 0.7366,0.102305 0.24553,0 0.3683,0.06138 0.14322,0.04092 0.20461,0.18415 0.0614,0.122767 0.0614,0.347839 0,0.225072 -0.0614,0.3683 -0.0614,0.122766 -0.20461,0.163689 -0.12277,0.06138 -0.34784,0.06138 z m 5.95418,0.06138 q -0.47061,0 -0.96167,-0.102305 -0.47061,-0.08184 -0.92075,-0.245533 -0.42969,-0.18415 -0.79799,-0.409222 -0.3683,-0.245534 -0.59337,-0.531989 -0.14323,-0.204611 -0.20461,-0.347839 -0.0614,-0.143227 -0.0205,-0.265994 0.0614,-0.122767 0.20461,-0.225072 0.22507,-0.245533 0.42968,-0.204611 0.20462,0.04092 0.53199,0.388761 0.18415,0.204611 0.47061,0.388761 0.28645,0.163688 0.61383,0.286455 0.32738,0.122767 0.65476,0.18415 0.32737,0.06138 0.61383,0.06138 1.12536,0 1.82104,-0.429683 0.69567,-0.450144 0.69567,-1.207205 0,-0.388761 -0.14322,-0.675216 -0.14323,-0.306916 -0.38876,-0.511527 -0.24554,-0.204611 -0.57291,-0.347839 -0.30692,-0.163689 -0.69568,-0.265994 -0.3683,-0.122767 -0.75706,-0.225073 -0.57291,-0.143227 -1.14582,-0.306916 -0.55245,-0.18415 -1.0026,-0.450144 -0.45014,-0.265995 -0.7366,-0.695678 -0.26599,-0.429683 -0.26599,-1.104899 0,-0.7775218 0.38876,-1.3504326 0.40922,-0.5729108 1.12536,-0.9002884 0.71614,-0.3273776 1.65735,-0.3273776 0.4706,0 0.87983,0.081844 0.40922,0.061383 0.75706,0.204611 0.3683,0.1432277 0.67521,0.3478387 0.32738,0.1841499 0.59337,0.4501442 0.24554,0.2250721 0.266,0.409222 0.0205,0.1841499 -0.14323,0.3887609 -0.18415,0.204611 -0.38876,0.2455332 -0.20461,0.020461 -0.42968,-0.204611 -0.32738,-0.3273776 -0.69568,-0.5115275 -0.34784,-0.204611 -0.7366,-0.3069165 -0.3683,-0.1023055 -0.77752,-0.1023055 -0.59337,0 -1.06398,0.204611 -0.4706,0.1841499 -0.7366,0.5524497 -0.24553,0.3478387 -0.24553,0.818444 0,0.3478387 0.16369,0.593372 0.18415,0.225072 0.4706,0.388761 0.28646,0.163689 0.67522,0.286455 0.38876,0.122767 0.81844,0.245533 0.61384,0.163689 1.24813,0.3683 0.63429,0.18415 1.14582,0.511528 0.53199,0.306916 0.85937,0.818444 0.32738,0.511527 0.32738,1.329971 0,1.227666 -1.04352,1.964266 -1.02306,0.736599 -2.61902,0.736599 z"
     id="tools"
     inkscape:label="tools"
     aria-label="tools" />
  <path
     style="font-weight:300;font-size:20.4611px;font-family:Fredoka;-inkscape-font-specification:'Fredoka Light';fill:#ffffff;stroke-width:0.264583"
     d="m 80.416023,16.60621 q -1.002594,0 -1.841499,-0.347839 -0.838905,-0.347838 -1.452738,-0.982133 -0.613833,-0.654755 -0.961672,-1.534582 -0.327377,-0.900288 -0.327377,-2.005188 0,-1.104899 0.327377,-2.0051875 0.347839,-0.9002884 0.961672,-1.5550436 0.613833,-0.6547552 1.452738,-1.0025939 0.838905,-0.3478387 1.841499,-0.3478387 0.961672,0 1.780116,0.3478387 0.818444,0.3478387 1.432276,1.0025939 0.613833,0.6342941 0.961672,1.5345825 0.347839,0.8798276 0.347839,1.9642656 0,1.104899 -0.347839,2.025649 -0.347839,0.900288 -0.961672,1.555043 -0.613832,0.654756 -1.432276,1.002594 -0.818444,0.347839 -1.780116,0.347839 z m -0.18415,-1.084438 q 1.023055,0 1.821038,-0.470606 0.818444,-0.491066 1.289049,-1.329971 0.470605,-0.859366 0.470605,-1.984727 0,-1.145821 -0.470605,-2.0051875 Q 82.871355,8.8719143 82.052911,8.401309 81.254928,7.9102426 80.231873,7.9102426 q -1.002594,0 -1.821038,0.4910664 -0.797983,0.4706053 -1.268588,1.3299715 -0.470605,0.8593665 -0.470605,2.0051875 0,1.125361 0.470605,1.984727 0.470605,0.838905 1.268588,1.329971 0.818444,0.470606 1.821038,0.470606 z m -4.194525,1.104899 q -0.204611,0 -0.347839,-0.06138 -0.122767,-0.06138 -0.18415,-0.18415 -0.06138,-0.143228 -0.06138,-0.3683 V 2.9791176 q 0,-0.2455332 0.04092,-0.3682998 0.06138,-0.1432277 0.18415,-0.204611 0.143227,-0.061383 0.347838,-0.061383 0.225073,0 0.347839,0.061383 0.122767,0.061383 0.18415,0.204611 0.06138,0.1227666 0.06138,0.3478387 V 15.992377 q 0,0.347839 -0.122766,0.491066 -0.122767,0.143228 -0.450144,0.143228 z m 15.714111,0.06138 q -1.023055,0 -1.923343,-0.388761 -0.900289,-0.38876 -1.595966,-1.063977 -0.675216,-0.675216 -1.063977,-1.575504 -0.388761,-0.900289 -0.388761,-1.923344 0,-1.043516 0.3683,-1.9233431 0.388761,-0.9002884 1.063977,-1.5755047 0.695677,-0.6956774 1.575505,-1.0639772 0.900288,-0.3887609 1.923343,-0.3887609 1.370894,0 2.475793,0.6547552 1.104899,0.6342941 1.759655,1.7596546 0.654755,1.1048991 0.654755,2.5167151 0,1.063977 -0.388761,1.964266 -0.3683,0.900288 -1.043516,1.575504 -0.654755,0.675217 -1.534583,1.063978 -0.879827,0.368299 -1.882421,0.368299 z m -0.04092,-1.104899 q 1.043516,0 1.882421,-0.511528 0.859366,-0.531988 1.350433,-1.411815 0.511527,-0.900289 0.511527,-1.984727 0,-1.104899 -0.491066,-1.9642656 -0.491067,-0.8593662 -1.350433,-1.3299715 -0.838905,-0.4910664 -1.923343,-0.4910664 -1.063977,0 -1.923343,0.5115275 -0.838906,0.4910664 -1.350433,1.3504326 -0.491066,0.8593664 -0.491066,1.9438044 0,1.104899 0.491066,1.984727 0.511527,0.879827 1.370894,1.391354 0.859366,0.511528 1.923343,0.511528 z m 11.499133,1.104899 q -1.02306,0 -1.92335,-0.388761 -0.90029,-0.38876 -1.595964,-1.063977 -0.675216,-0.675216 -1.063977,-1.575504 -0.388761,-0.900289 -0.388761,-1.923344 0,-1.043516 0.3683,-1.9233431 0.388761,-0.9002884 1.063977,-1.5755047 0.695675,-0.6956774 1.575505,-1.0639772 0.90029,-0.3887609 1.92334,-0.3887609 1.3709,0 2.4758,0.6547552 1.1049,0.6342941 1.75965,1.7596546 0.65476,1.1048991 0.65476,2.5167151 0,1.063977 -0.38876,1.964266 -0.3683,0.900288 -1.04352,1.575504 -0.65476,0.675217 -1.53458,1.063978 -0.87983,0.368299 -1.88242,0.368299 z m -0.0409,-1.104899 q 1.04352,0 1.88242,-0.511528 0.85937,-0.531988 1.35044,-1.411815 0.51152,-0.900289 0.51152,-1.984727 0,-1.104899 -0.49106,-1.9642656 -0.49107,-0.8593662 -1.35043,-1.3299715 -0.83891,-0.4910664 -1.92335,-0.4910664 -1.06398,0 -1.92334,0.5115275 -0.83891,0.4910664 -1.350434,1.3504326 -0.491066,0.8593664 -0.491066,1.9438044 0,1.104899 0.491066,1.984727 0.511524,0.879827 1.370894,1.391354 0.85937,0.511528 1.92334,0.511528 z m 11.27407,1.023055 q -0.92075,0 -1.55505,-0.163689 -0.61383,-0.163689 -1.00259,-0.511527 -0.38876,-0.347839 -0.55245,-0.92075 -0.16369,-0.593372 -0.16369,-1.452738 V 4.1454003 q 0,-0.2455332 0.0409,-0.3682998 0.0614,-0.1432277 0.18415,-0.204611 0.12277,-0.061383 0.32738,-0.061383 0.22507,0 0.34784,0.061383 0.14323,0.040922 0.20461,0.1636888 0.0614,0.1227666 0.0614,0.3478387 v 9.514411 q 0,0.634294 0.1023,1.023055 0.12277,0.3683 0.34784,0.55245 0.24553,0.18415 0.65475,0.245533 0.40923,0.04092 0.98214,0.04092 0.24553,0 0.3683,0.06138 0.14322,0.04092 0.20461,0.163688 0.0614,0.122767 0.0614,0.347839 0,0.225072 -0.0614,0.347839 -0.0614,0.122766 -0.20461,0.163689 -0.12277,0.06138 -0.34784,0.06138 z m -4.54237,-9.4939503 1.82104,0.040922 2.84409,-0.040922 q 0.22508,0 0.34784,0.061383 0.14323,0.040922 0.20461,0.1636888 0.0614,0.1227666 0.0614,0.3273776 0,0.2250721 -0.0614,0.3682998 -0.0409,0.1227666 -0.16368,0.1841499 -0.12277,0.040922 -0.34784,0.040922 l -2.88502,-0.040922 -1.86196,0.040922 q -0.32738,0 -0.45014,-0.1227666 -0.12277,-0.1432277 -0.12277,-0.4706053 0,-0.3069165 0.14323,-0.4296831 0.14323,-0.1227666 0.4706,-0.1227666 z"
     id="boot"
     inkscape:label="boot"
     aria-label="boot" />
  <path
     style="font-weight:300;font-size:20.4611px;font-family:Fredoka;-inkscape-font-specification:'Fredoka Light';fill:#ffffff;stroke-width:0.264583"
     d="m 80.047723,16.647132 q -1.12536,0 -2.066571,-0.3683 -0.920749,-0.368299 -1.595966,-1.043516 -0.654755,-0.675216 -1.023055,-1.595966 -0.3683,-0.920749 -0.3683,-2.046109 0,-1.329972 0.634295,-2.3939491 0.634294,-1.0639772 1.759654,-1.6778102 1.125361,-0.6342941 2.578099,-0.6342941 0.94121,0 1.718732,0.2864554 0.777522,0.2864554 1.350433,0.7775218 0.57291,0.4910664 0.879827,1.1253605 0.327377,0.6342941 0.327377,1.3095107 0,1.002594 -0.470605,1.370893 -0.450144,0.347839 -1.104899,0.347839 h -6.445247 q -0.04092,1.084438 0.531989,1.86196 0.593372,0.777522 1.473199,1.207205 0.900289,0.409222 1.800577,0.409222 0.593372,0 1.023055,-0.06138 0.450144,-0.06138 0.757061,-0.163689 0.327377,-0.122767 0.552449,-0.225072 0.225072,-0.122767 0.409222,-0.225072 0.18415,-0.122767 0.347839,-0.18415 0.102306,-0.04092 0.225072,-0.02046 0.143228,0 0.204611,0.102305 0.102306,0.143228 0.143228,0.265994 0.04092,0.102306 0.04092,0.245534 0,0.18415 -0.491066,0.511527 -0.491067,0.306917 -1.329972,0.55245 -0.838905,0.265994 -1.86196,0.265994 z m -3.826226,-5.524497 h 6.097408 q 0.409222,0 0.634294,-0.08184 0.225072,-0.102306 0.225072,-0.613833 0,-0.6752164 -0.429683,-1.2276661 -0.409222,-0.5729108 -1.12536,-0.9207495 -0.716139,-0.3478387 -1.636888,-0.3478387 -1.023055,0 -1.902883,0.409222 -0.859366,0.409222 -1.370893,1.1458216 -0.511528,0.7161387 -0.491067,1.6368877 z m 11.02853,5.463114 q -0.204611,0 -0.327378,-0.06138 -0.122767,-0.06138 -0.18415,-0.18415 -0.04092,-0.143228 -0.04092,-0.3683 V 7.378254 q 0,-0.204611 0.04092,-0.3069165 0.06138,-0.1227666 0.18415,-0.1636888 0.143228,-0.061383 0.347839,-0.061383 0.143227,0 0.245533,0.040922 0.102305,0.020461 0.163689,0.081844 0.06138,0.061383 0.08184,0.1636888 0.04092,0.1023055 0.04092,0.2455332 v 1.2072049 q 0.265995,-0.3478387 0.593372,-0.6547552 0.327378,-0.3273776 0.716139,-0.5729108 0.409222,-0.2659943 0.879827,-0.409222 0.491066,-0.1432277 1.084438,-0.1432277 0.879827,0 1.616427,0.3069165 0.757061,0.2864554 1.30951,0.8593662 0.55245,0.5524497 0.859367,1.3708937 0.306916,0.7979824 0.306916,1.8414994 v 4.808358 q 0,0.225072 -0.06138,0.3683 -0.04092,0.122766 -0.163689,0.163689 -0.122767,0.06138 -0.347839,0.06138 -0.225072,0 -0.368299,-0.06138 -0.122767,-0.06138 -0.18415,-0.18415 -0.04092,-0.143228 -0.04092,-0.3683 v -4.808359 q 0,-1.002593 -0.327377,-1.739193 -0.327378,-0.7365996 -0.982133,-1.1458216 -0.654755,-0.409222 -1.657349,-0.409222 -0.982133,0 -1.698271,0.409222 -0.716139,0.409222 -1.1049,1.1458216 -0.388761,0.7366 -0.388761,1.739193 v 4.82882 q 0,0.225072 -0.06138,0.3683 -0.04092,0.122766 -0.18415,0.163689 -0.122766,0.06138 -0.347838,0.06138 z m 14.998003,0.02046 q -0.94121,0 -1.78012,-0.347839 -0.81844,-0.347838 -1.432273,-1.002594 -0.613833,-0.654755 -0.961672,-1.555043 -0.347838,-0.92075 -0.347838,-2.025649 0,-1.084438 0.347838,-1.9642656 0.347839,-0.9002884 0.961672,-1.5345825 0.613833,-0.6547552 1.432273,-1.0025939 0.83891,-0.3478387 1.78012,-0.3478387 1.00259,0 1.8415,0.3478387 0.8389,0.3478387 1.45274,1.0025939 0.61383,0.6547552 0.94121,1.5550436 0.34784,0.9002885 0.34784,2.0051875 0,1.1049 -0.34784,2.005188 -0.32738,0.879827 -0.94121,1.534582 -0.61384,0.634295 -1.45274,0.982133 -0.83891,0.347839 -1.8415,0.347839 z m 0.18415,-1.084438 q 1.02305,0 1.82104,-0.470606 0.79798,-0.491066 1.26859,-1.329971 0.4706,-0.859366 0.4706,-1.984727 0,-1.145821 -0.4706,-2.0051875 -0.47061,-0.8593662 -1.28905,-1.3299715 -0.79799,-0.4910664 -1.80058,-0.4910664 -1.00259,0 -1.82104,0.4910664 -0.818442,0.4706053 -1.289047,1.3299715 -0.470606,0.8593665 -0.470606,2.0051875 0,1.125361 0.470606,1.984727 0.470605,0.838905 1.289047,1.329971 0.81845,0.470606 1.82104,0.470606 z m 4.21499,1.084438 q -0.32738,0 -0.47061,-0.143228 -0.12277,-0.143227 -0.12277,-0.470605 V 2.9586565 q 0,-0.2455332 0.0409,-0.3682998 0.0614,-0.1432277 0.18415,-0.204611 0.14322,-0.061383 0.34784,-0.061383 0.22507,0 0.34783,0.061383 0.12277,0.061383 0.18415,0.204611 0.0614,0.1227666 0.0614,0.3478387 V 15.971916 q 0,0.225072 -0.0614,0.3683 -0.0409,0.143227 -0.16369,0.204611 -0.12276,0.06138 -0.34783,0.06138 z m 8.38906,-0.04092 q -1.00259,0 -1.8415,-0.347839 -0.8389,-0.347839 -1.45274,-1.002594 -0.61383,-0.654755 -0.96167,-1.555043 -0.32737,-0.900289 -0.32737,-2.005188 0,-1.1049 0.32737,-1.9847268 0.34784,-0.9002884 0.96167,-1.5345825 0.61384,-0.6547552 1.45274,-1.0025939 0.83891,-0.3478387 1.8415,-0.3478387 0.96167,0 1.78012,0.3478387 0.81844,0.3478387 1.43227,1.0025939 0.61384,0.6547552 0.96168,1.5755047 0.34783,0.9002886 0.34783,2.0051876 0,1.084438 -0.34783,1.984727 -0.34784,0.879827 -0.96168,1.534582 -0.61383,0.634294 -1.43227,0.982133 -0.81845,0.347839 -1.78012,0.347839 z m -4.39913,3.948992 q -0.22508,0 -0.3683,-0.06138 -0.12277,-0.06138 -0.18415,-0.204611 -0.0614,-0.122767 -0.0614,-0.347839 V 7.4805595 q 0,-0.2455332 0.0409,-0.3682998 0.0614,-0.1432277 0.18415,-0.204611 0.14323,-0.061383 0.3683,-0.061383 0.34784,0 0.47061,0.1432277 0.14323,0.1227666 0.14323,0.4706053 V 19.879986 q 0,0.225072 -0.0614,0.3683 -0.0409,0.143227 -0.18415,0.204611 -0.12276,0.06138 -0.34783,0.06138 z m 4.21498,-5.033431 q 1.02306,0 1.82104,-0.470605 0.81844,-0.491066 1.28905,-1.350432 0.4706,-0.879828 0.4706,-2.005188 0,-1.145822 -0.4706,-1.9847268 -0.47061,-0.8593662 -1.28905,-1.3299715 -0.79798,-0.4706053 -1.82104,-0.4706053 -1.00259,0 -1.82104,0.4910664 -0.79798,0.4706053 -1.26858,1.3299715 -0.47061,0.8389047 -0.47061,1.9642657 0,1.12536 0.47061,2.005188 0.4706,0.859366 1.26858,1.350432 0.81845,0.470605 1.82104,0.470605 z m 11.60142,1.207205 q -1.02305,0 -1.92334,-0.388761 -0.90029,-0.38876 -1.59596,-1.063977 -0.67522,-0.675216 -1.06398,-1.575504 -0.38876,-0.900289 -0.38876,-1.923344 0,-1.043516 0.3683,-1.9233431 0.38876,-0.9002884 1.06397,-1.5755047 0.69568,-0.6956774 1.57551,-1.0639772 0.90029,-0.3887609 1.92334,-0.3887609 1.3709,0 2.4758,0.6547552 1.10489,0.6342941 1.75965,1.7596546 0.65476,1.1048991 0.65476,2.5167151 0,1.063977 -0.38877,1.964266 -0.3683,0.900288 -1.04351,1.575504 -0.65476,0.675217 -1.53458,1.063978 -0.87983,0.368299 -1.88243,0.368299 z m -0.0409,-1.104899 q 1.04352,0 1.88242,-0.511528 0.85937,-0.531988 1.35044,-1.411815 0.51152,-0.900289 0.51152,-1.984727 0,-1.104899 -0.49106,-1.9642656 -0.49107,-0.8593662 -1.35044,-1.3299715 -0.8389,-0.4910664 -1.92334,-0.4910664 -1.06398,0 -1.92334,0.5115275 -0.83891,0.4910664 -1.35043,1.3504326 -0.49107,0.8593664 -0.49107,1.9438044 0,1.104899 0.49107,1.984727 0.51152,0.879827 1.37089,1.391354 0.85937,0.511528 1.92334,0.511528 z m 7.89798,1.023055 q -0.20461,0 -0.34784,-0.06138 -0.12277,-0.06138 -0.18415,-0.18415 -0.0409,-0.143228 -0.0409,-0.3683 V 7.4396373 q 0,-0.2250721 0.0409,-0.3478387 0.0614,-0.1432277 0.18415,-0.1841499 0.14323,-0.061383 0.3683,-0.061383 0.22507,0 0.34784,0.061383 0.12276,0.061383 0.16369,0.204611 0.0614,0.1227666 0.0614,0.3682998 v 8.5322785 q 0,0.225072 -0.0614,0.3683 -0.0409,0.122766 -0.18415,0.163689 -0.12277,0.06138 -0.34784,0.06138 z m 0,-12.7063429 q -0.28646,0 -0.45015,-0.081844 -0.16369,-0.081844 -0.24553,-0.2659943 -0.0614,-0.1841499 -0.0614,-0.4706053 0,-0.2864554 0.0614,-0.4501442 0.0818,-0.1636888 0.24553,-0.2250721 0.18415,-0.081844 0.47061,-0.081844 0.28645,0 0.45014,0.081844 0.16369,0.081844 0.22507,0.2659943 0.0819,0.1636888 0.0819,0.4706053 0,0.2659943 -0.0819,0.4501442 -0.0614,0.1636888 -0.22507,0.2455332 -0.16369,0.061383 -0.4706,0.061383 z m 4.29683,12.6858819 q -0.20461,0 -0.32738,-0.06138 -0.12276,-0.06138 -0.18415,-0.18415 -0.0409,-0.143228 -0.0409,-0.3683 V 7.378254 q 0,-0.204611 0.0409,-0.3069165 0.0614,-0.1227666 0.18415,-0.1636888 0.14323,-0.061383 0.34784,-0.061383 0.14323,0 0.24554,0.040922 0.1023,0.020461 0.16368,0.081844 0.0614,0.061383 0.0819,0.1636888 0.0409,0.1023055 0.0409,0.2455332 v 1.2072049 q 0.266,-0.3478387 0.59337,-0.6547552 0.32738,-0.3273776 0.71614,-0.5729108 0.40922,-0.2659943 0.87983,-0.409222 0.49106,-0.1432277 1.08444,-0.1432277 0.87982,0 1.61642,0.3069165 0.75706,0.2864554 1.30951,0.8593662 0.55245,0.5524497 0.85937,1.3708937 0.30692,0.7979824 0.30692,1.8414994 v 4.808358 q 0,0.225072 -0.0614,0.3683 -0.0409,0.122766 -0.16369,0.163689 -0.12276,0.06138 -0.34783,0.06138 -0.22508,0 -0.3683,-0.06138 -0.12277,-0.06138 -0.18415,-0.18415 -0.0409,-0.143228 -0.0409,-0.3683 v -4.808359 q 0,-1.002593 -0.32737,-1.739193 -0.32738,-0.7365996 -0.98214,-1.1458216 -0.65475,-0.409222 -1.65735,-0.409222 -0.98213,0 -1.69827,0.409222 -0.71614,0.409222 -1.1049,1.1458216 -0.38876,0.7366 -0.38876,1.739193 v 4.82882 q 0,0.225072 -0.0614,0.3683 -0.0409,0.122766 -0.18415,0.163689 -0.12277,0.06138 -0.34784,0.06138 z m 14.91615,0.02046 q -0.92075,0 -1.55504,-0.163689 -0.61383,-0.163689 -1.00259,-0.511527 -0.38877,-0.347839 -0.55245,-0.92075 -0.16369,-0.593372 -0.16369,-1.452738 V 4.1454003 q 0,-0.2455332 0.0409,-0.3682998 0.0614,-0.1432277 0.18415,-0.204611 0.12277,-0.061383 0.32738,-0.061383 0.22507,0 0.34784,0.061383 0.14322,0.040922 0.20461,0.1636888 0.0614,0.1227666 0.0614,0.3478387 v 9.514411 q 0,0.634294 0.1023,1.023055 0.12277,0.3683 0.34784,0.55245 0.24554,0.18415 0.65476,0.245533 0.40922,0.04092 0.98213,0.04092 0.24553,0 0.3683,0.06138 0.14323,0.04092 0.20461,0.163688 0.0614,0.122767 0.0614,0.347839 0,0.225072 -0.0614,0.347839 -0.0614,0.122766 -0.20461,0.163689 -0.12277,0.06138 -0.34784,0.06138 z m -4.54236,-9.4939503 1.82104,0.040922 2.84409,-0.040922 q 0.22507,0 0.34784,0.061383 0.14323,0.040922 0.20461,0.1636888 0.0614,0.1227666 0.0614,0.3273776 0,0.2250721 -0.0614,0.3682998 -0.0409,0.1227666 -0.16369,0.1841499 -0.12277,0.040922 -0.34784,0.040922 l -2.88501,-0.040922 -1.86196,0.040922 q -0.32738,0 -0.45015,-0.1227666 -0.12276,-0.1432277 -0.12276,-0.4706053 0,-0.3069165 0.14322,-0.4296831 0.14323,-0.1227666 0.47061,-0.1227666 z"
     id="endpoint"
     inkscape:label="endpoint"
     aria-label="endpoint" />
  <path
     style="font-weight:300;font-size:20.4611px;font-family:Fredoka;-inkscape-font-specification:'Fredoka Light';fill:#ffffff;stroke-width:0.264583"
     d="m 78.288068,16.60621 q -0.57291,0 -1.043516,-0.122767 -0.450144,-0.122766 -0.797982,-0.368299 -0.347839,-0.245534 -0.593372,-0.613833 -0.225072,-0.3683 -0.347839,-0.859367 -0.102306,-0.491066 -0.102306,-1.084438 V 2.9177343 q 0,-0.2455332 0.04092,-0.3682998 0.06138,-0.1432277 0.18415,-0.204611 0.143227,-0.061383 0.347838,-0.061383 0.225072,0 0.347839,0.061383 0.143228,0.040922 0.204611,0.1636888 0.06138,0.1227666 0.06138,0.3478387 v 10.742077 q 0,0.450144 0.102306,0.797983 0.102305,0.327378 0.306916,0.572911 0.225072,0.225072 0.531989,0.347839 0.327377,0.102305 0.736599,0.102305 0.245534,0 0.3683,0.06138 0.143228,0.04092 0.204611,0.18415 0.06138,0.122767 0.06138,0.347839 0,0.225072 -0.06138,0.3683 -0.06138,0.122766 -0.204611,0.163689 -0.122766,0.06138 -0.347839,0.06138 z m 3.519308,0 q -0.204611,0 -0.347839,-0.06138 -0.122766,-0.06138 -0.18415,-0.18415 -0.04092,-0.143228 -0.04092,-0.3683 V 7.4396373 q 0,-0.2250721 0.04092,-0.3478387 0.06138,-0.1432277 0.18415,-0.1841499 0.143228,-0.061383 0.3683,-0.061383 0.225072,0 0.347839,0.061383 0.122766,0.061383 0.163688,0.204611 0.06138,0.1227666 0.06138,0.3682998 v 8.5322785 q 0,0.225072 -0.06138,0.3683 -0.04092,0.122766 -0.184149,0.163689 -0.122767,0.06138 -0.347839,0.06138 z m 0,-12.7063429 q -0.286456,0 -0.450144,-0.081844 -0.163689,-0.081844 -0.245534,-0.2659943 -0.06138,-0.1841499 -0.06138,-0.4706053 0,-0.2864554 0.06138,-0.4501442 0.08185,-0.1636888 0.245534,-0.2250721 0.18415,-0.081844 0.470605,-0.081844 0.286455,0 0.450144,0.081844 0.163689,0.081844 0.225072,0.2659943 0.08185,0.1636888 0.08185,0.4706053 0,0.2659943 -0.08185,0.4501442 -0.06138,0.1636888 -0.225072,0.2455332 -0.163689,0.061383 -0.470605,0.061383 z M 86.10421,16.585749 q -0.204611,0 -0.327378,-0.06138 -0.122766,-0.06138 -0.18415,-0.18415 -0.04092,-0.143228 -0.04092,-0.3683 V 7.378254 q 0,-0.204611 0.04092,-0.3069165 0.06138,-0.1227666 0.18415,-0.1636888 0.143228,-0.061383 0.347839,-0.061383 0.143228,0 0.245533,0.040922 0.102306,0.020461 0.163689,0.081844 0.06138,0.061383 0.08184,0.1636888 0.04092,0.1023055 0.04092,0.2455332 v 1.2072049 q 0.265995,-0.3478387 0.593372,-0.6547552 0.327378,-0.3273776 0.716139,-0.5729108 0.409222,-0.2659943 0.879827,-0.409222 0.491066,-0.1432277 1.084438,-0.1432277 0.879828,0 1.616427,0.3069165 0.757061,0.2864554 1.309511,0.8593662 0.552449,0.5524497 0.859366,1.3708937 0.306916,0.7979824 0.306916,1.8414994 v 4.808358 q 0,0.225072 -0.06138,0.3683 -0.04092,0.122766 -0.163689,0.163689 -0.122766,0.06138 -0.347838,0.06138 -0.225073,0 -0.3683,-0.06138 -0.122767,-0.06138 -0.18415,-0.18415 -0.04092,-0.143228 -0.04092,-0.3683 v -4.808359 q 0,-1.002593 -0.327378,-1.739193 -0.327378,-0.7365996 -0.982133,-1.1458216 -0.654755,-0.409222 -1.657349,-0.409222 -0.982133,0 -1.698271,0.409222 -0.716139,0.409222 -1.104899,1.1458216 -0.388761,0.7366 -0.388761,1.739193 v 4.82882 q 0,0.225072 -0.06138,0.3683 -0.04092,0.122766 -0.18415,0.163689 -0.122766,0.06138 -0.347838,0.06138 z m 17.9444,-1.002594 q 0.28646,0.204611 0.30692,0.388761 0.0205,0.163689 -0.16369,0.429683 -0.14323,0.18415 -0.28646,0.245533 -0.12276,0.08185 -0.26599,0.04092 -0.14323,-0.04092 -0.32738,-0.18415 l -5.319884,-4.235447 v 3.72392 q 0,0.225072 -0.06138,0.3683 -0.06138,0.122766 -0.18415,0.18415 -0.122767,0.06138 -0.347839,0.06138 -0.204611,0 -0.347839,-0.06138 -0.122766,-0.06138 -0.18415,-0.204611 -0.04092,-0.143228 -0.04092,-0.3683 V 2.9381954 q 0,-0.2250721 0.06138,-0.3478387 0.06138,-0.1432277 0.18415,-0.204611 0.143228,-0.061383 0.347839,-0.061383 0.225072,0 0.347839,0.061383 0.122766,0.061383 0.163689,0.204611 0.06138,0.1227666 0.06138,0.3682998 v 7.7752175 l 3.928534,-3.764842 q 0.14322,-0.1432277 0.28645,-0.204611 0.14323,-0.061383 0.28646,-0.020461 0.14323,0.020461 0.28645,0.204611 0.22508,0.2659943 0.20461,0.4501442 0,0.1841499 -0.24553,0.409222 l -3.867147,3.6829979 z"
     id="link"
     inkscape:label="link"
     aria-label="link" />
  <path
     style="font-weight:300;font-size:20.4611px;font-family:Fredoka;-inkscape-font-specification:'Fredoka Light';fill:#ffffff;stroke-width:0.264583"
     d="m 80.047723,16.60621 q -1.12536,0 -2.066571,-0.347839 -0.920749,-0.347838 -1.595966,-0.982133 -0.675216,-0.654755 -1.043516,-1.534582 -0.347839,-0.900288 -0.347839,-2.005188 0,-1.104899 0.347839,-1.9847264 0.3683,-0.9002884 1.023055,-1.5550436 0.675216,-0.6547552 1.595966,-1.0025939 0.920749,-0.3478387 2.04611,-0.3478387 0.675216,0 1.370894,0.2455332 0.716138,0.2250721 1.289049,0.613833 0.572911,0.3682998 0.818444,0.8389051 0.143227,0.2659943 0.143227,0.3887609 0,0.1227666 -0.102305,0.2455332 -0.122767,0.1432277 -0.286455,0.2250721 -0.143228,0.081844 -0.265995,0.081844 -0.245533,0 -0.470605,-0.2864554 Q 82.298444,8.9128365 82.011989,8.6877644 81.725533,8.4626923 81.377695,8.2990035 81.050317,8.1353147 80.702478,8.0534703 80.35464,7.9511648 80.006801,7.9511648 q -1.145822,0 -2.005188,0.4706053 -0.859366,0.4706053 -1.329971,1.3299715 -0.470606,0.8389054 -0.470606,1.9847264 0,1.125361 0.470606,1.984727 0.470605,0.838905 1.30951,1.30951 0.859366,0.470606 1.984727,0.470606 0.470605,0 0.94121,-0.122767 0.470606,-0.122767 0.900289,-0.347839 0.429683,-0.245533 0.736599,-0.552449 0.163689,-0.143228 0.265995,-0.225073 0.122766,-0.102305 0.286455,-0.102305 0.122767,0 0.225072,0.102305 0.122767,0.08184 0.245533,0.245534 0.08185,0.08184 0.102306,0.204611 0.02046,0.102305 -0.02046,0.225072 -0.02046,0.122766 -0.122767,0.225072 -0.429683,0.429683 -1.043516,0.757061 -0.593372,0.327377 -1.248127,0.511527 -0.634294,0.18415 -1.186744,0.18415 z m 8.675511,0 q -0.572911,0 -1.043516,-0.122767 -0.450144,-0.122766 -0.797983,-0.368299 -0.347839,-0.245534 -0.593372,-0.613833 -0.225072,-0.3683 -0.347839,-0.859367 -0.102305,-0.491066 -0.102305,-1.084438 V 2.9177343 q 0,-0.2455332 0.04092,-0.3682998 0.06138,-0.1432277 0.18415,-0.204611 0.143228,-0.061383 0.347839,-0.061383 0.225072,0 0.347838,0.061383 0.143228,0.040922 0.204611,0.1636888 0.06138,0.1227666 0.06138,0.3478387 v 10.742077 q 0,0.450144 0.102305,0.797983 0.102306,0.327378 0.306917,0.572911 0.225072,0.225072 0.531988,0.347839 0.327378,0.102305 0.7366,0.102305 0.245533,0 0.3683,0.06138 0.143227,0.04092 0.204611,0.18415 0.06138,0.122767 0.06138,0.347839 0,0.225072 -0.06138,0.3683 -0.06138,0.122766 -0.204611,0.163689 -0.122767,0.06138 -0.347839,0.06138 z m 3.519307,0 q -0.204611,0 -0.347838,-0.06138 -0.122767,-0.06138 -0.18415,-0.18415 -0.04092,-0.143228 -0.04092,-0.3683 V 7.4396373 q 0,-0.2250721 0.04092,-0.3478387 0.06138,-0.1432277 0.18415,-0.1841499 0.143227,-0.061383 0.368299,-0.061383 0.225072,0 0.347839,0.061383 0.122767,0.061383 0.163689,0.204611 0.06138,0.1227666 0.06138,0.3682998 v 8.5322785 q 0,0.225072 -0.06138,0.3683 -0.04092,0.122766 -0.18415,0.163689 -0.122767,0.06138 -0.347839,0.06138 z m 0,-12.7063429 q -0.286455,0 -0.450144,-0.081844 -0.163689,-0.081844 -0.245533,-0.2659943 -0.06138,-0.1841499 -0.06138,-0.4706053 0,-0.2864554 0.06138,-0.4501442 0.08184,-0.1636888 0.245533,-0.2250721 0.18415,-0.081844 0.470605,-0.081844 0.286456,0 0.450145,0.081844 0.163688,0.081844 0.225072,0.2659943 0.08184,0.1636888 0.08184,0.4706053 0,0.2659943 -0.08184,0.4501442 -0.06138,0.1636888 -0.225072,0.2455332 -0.163689,0.061383 -0.470606,0.061383 z m 8.184439,12.7472649 q -1.125356,0 -2.066567,-0.3683 -0.920749,-0.368299 -1.595966,-1.043516 -0.654755,-0.675216 -1.023055,-1.595966 -0.3683,-0.920749 -0.3683,-2.046109 0,-1.329972 0.634295,-2.3939491 0.634294,-1.0639772 1.759654,-1.6778102 1.125361,-0.6342941 2.578099,-0.6342941 0.94121,0 1.71873,0.2864554 0.77752,0.2864554 1.35043,0.7775218 0.57292,0.4910664 0.87983,1.1253605 0.32738,0.6342941 0.32738,1.3095107 0,1.002594 -0.47061,1.370893 -0.45014,0.347839 -1.1049,0.347839 h -6.445242 q -0.04092,1.084438 0.531989,1.86196 0.593372,0.777522 1.473199,1.207205 0.900289,0.409222 1.800574,0.409222 0.59337,0 1.02306,-0.06138 0.45014,-0.06138 0.75706,-0.163689 0.32738,-0.122767 0.55245,-0.225072 0.22507,-0.122767 0.40922,-0.225072 0.18415,-0.122767 0.34784,-0.18415 0.1023,-0.04092 0.22507,-0.02046 0.14323,0 0.20461,0.102305 0.10231,0.143228 0.14323,0.265994 0.0409,0.102306 0.0409,0.245534 0,0.18415 -0.49106,0.511527 -0.49107,0.306917 -1.32998,0.55245 -0.8389,0.265994 -1.86196,0.265994 z m -3.826222,-5.524497 h 6.097412 q 0.40922,0 0.63429,-0.08184 0.22507,-0.102306 0.22507,-0.613833 0,-0.6752164 -0.42968,-1.2276661 -0.40922,-0.5729108 -1.12536,-0.9207495 -0.71614,-0.3478387 -1.63689,-0.3478387 -1.023054,0 -1.902881,0.409222 -0.859367,0.409222 -1.370894,1.1458216 -0.511528,0.7161387 -0.491067,1.6368877 z m 11.028532,5.463114 q -0.20461,0 -0.32738,-0.06138 -0.12277,-0.06138 -0.18415,-0.18415 -0.0409,-0.143228 -0.0409,-0.3683 V 7.378254 q 0,-0.204611 0.0409,-0.3069165 0.0614,-0.1227666 0.18415,-0.1636888 0.14323,-0.061383 0.34784,-0.061383 0.14323,0 0.24553,0.040922 0.10231,0.020461 0.16369,0.081844 0.0614,0.061383 0.0819,0.1636888 0.0409,0.1023055 0.0409,0.2455332 v 1.2072049 q 0.26599,-0.3478387 0.59337,-0.6547552 0.32738,-0.3273776 0.71614,-0.5729108 0.40922,-0.2659943 0.87982,-0.409222 0.49107,-0.1432277 1.08444,-0.1432277 0.87983,0 1.61643,0.3069165 0.75706,0.2864554 1.30951,0.8593662 0.55245,0.5524497 0.85937,1.3708937 0.30691,0.7979824 0.30691,1.8414994 v 4.808358 q 0,0.225072 -0.0614,0.3683 -0.0409,0.122766 -0.16369,0.163689 -0.12277,0.06138 -0.34784,0.06138 -0.22507,0 -0.3683,-0.06138 -0.12276,-0.06138 -0.18415,-0.18415 -0.0409,-0.143228 -0.0409,-0.3683 v -4.808359 q 0,-1.002593 -0.32738,-1.739193 -0.32737,-0.7365996 -0.98213,-1.1458216 -0.65476,-0.409222 -1.65735,-0.409222 -0.98213,0 -1.69827,0.409222 -0.71614,0.409222 -1.1049,1.1458216 -0.38876,0.7366 -0.38876,1.739193 v 4.82882 q 0,0.225072 -0.0614,0.3683 -0.0409,0.122766 -0.18415,0.163689 -0.12277,0.06138 -0.34784,0.06138 z m 14.91615,0.02046 q -0.92075,0 -1.55504,-0.163689 -0.61383,-0.163689 -1.00259,-0.511527 -0.38877,-0.347839 -0.55245,-0.92075 -0.16369,-0.593372 -0.16369,-1.452738 V 4.1454003 q 0,-0.2455332 0.0409,-0.3682998 0.0614,-0.1432277 0.18415,-0.204611 0.12277,-0.061383 0.32738,-0.061383 0.22507,0 0.34784,0.061383 0.14322,0.040922 0.20461,0.1636888 0.0614,0.1227666 0.0614,0.3478387 v 9.514411 q 0,0.634294 0.1023,1.023055 0.12277,0.3683 0.34784,0.55245 0.24554,0.18415 0.65476,0.245533 0.40922,0.04092 0.98213,0.04092 0.24553,0 0.3683,0.06138 0.14323,0.04092 0.20461,0.163688 0.0614,0.122767 0.0614,0.347839 0,0.225072 -0.0614,0.347839 -0.0614,0.122766 -0.20461,0.163689 -0.12277,0.06138 -0.34784,0.06138 z m -4.54236,-9.4939503 1.82104,0.040922 2.84409,-0.040922 q 0.22507,0 0.34784,0.061383 0.14323,0.040922 0.20461,0.1636888 0.0614,0.1227666 0.0614,0.3273776 0,0.2250721 -0.0614,0.3682998 -0.0409,0.1227666 -0.16369,0.1841499 -0.12277,0.040922 -0.34784,0.040922 l -2.88501,-0.040922 -1.86196,0.040922 q -0.32738,0 -0.45015,-0.1227666 -0.12276,-0.1432277 -0.12276,-0.4706053 0,-0.3069165 0.14322,-0.4296831 0.14323,-0.1227666 0.47061,-0.1227666 z"
     id="client"
     inkscape:label="client"
     aria-label="client" />
  <path
     style="font-weight:300;font-size:20.4611px;font-family:Fredoka;-inkscape-font-specification:'Fredoka Light';fill:#ffffff;stroke-width:0.264583"
     d="m 80.047723,16.60621 q -1.12536,0 -2.066571,-0.347839 -0.920749,-0.347838 -1.595966,-0.982133 -0.675216,-0.654755 -1.043516,-1.534582 -0.347839,-0.900288 -0.347839,-2.005188 0,-1.104899 0.347839,-1.9847264 0.3683,-0.9002884 1.023055,-1.5550436 0.675216,-0.6547552 1.595966,-1.0025939 0.920749,-0.3478387 2.04611,-0.3478387 0.675216,0 1.370894,0.2455332 0.716138,0.2250721 1.289049,0.613833 0.572911,0.3682998 0.818444,0.8389051 0.143227,0.2659943 0.143227,0.3887609 0,0.1227666 -0.102305,0.2455332 -0.122767,0.1432277 -0.286455,0.2250721 -0.143228,0.081844 -0.265995,0.081844 -0.245533,0 -0.470605,-0.2864554 Q 82.298444,8.9128365 82.011989,8.6877644 81.725533,8.4626923 81.377695,8.2990035 81.050317,8.1353147 80.702478,8.0534703 80.35464,7.9511648 80.006801,7.9511648 q -1.145822,0 -2.005188,0.4706053 -0.859366,0.4706053 -1.329971,1.3299715 -0.470606,0.8389054 -0.470606,1.9847264 0,1.125361 0.470606,1.984727 0.470605,0.838905 1.30951,1.30951 0.859366,0.470606 1.984727,0.470606 0.470605,0 0.94121,-0.122767 0.470606,-0.122767 0.900289,-0.347839 0.429683,-0.245533 0.736599,-0.552449 0.163689,-0.143228 0.265995,-0.225073 0.122766,-0.102305 0.286455,-0.102305 0.122767,0 0.225072,0.102305 0.122767,0.08184 0.245533,0.245534 0.08185,0.08184 0.102306,0.204611 0.02046,0.102305 -0.02046,0.225072 -0.02046,0.122766 -0.122767,0.225072 -0.429683,0.429683 -1.043516,0.757061 -0.593372,0.327377 -1.248127,0.511527 -0.634294,0.18415 -1.186744,0.18415 z m 8.675511,0 q -0.572911,0 -1.043516,-0.122767 -0.450144,-0.122766 -0.797983,-0.368299 -0.347839,-0.245534 -0.593372,-0.613833 -0.225072,-0.3683 -0.347839,-0.859367 -0.102305,-0.491066 -0.102305,-1.084438 V 2.9177343 q 0,-0.2455332 0.04092,-0.3682998 0.06138,-0.1432277 0.18415,-0.204611 0.143228,-0.061383 0.347839,-0.061383 0.225072,0 0.347838,0.061383 0.143228,0.040922 0.204611,0.1636888 0.06138,0.1227666 0.06138,0.3478387 v 10.742077 q 0,0.450144 0.102305,0.797983 0.102306,0.327378 0.306917,0.572911 0.225072,0.225072 0.531988,0.347839 0.327378,0.102305 0.7366,0.102305 0.245533,0 0.3683,0.06138 0.143227,0.04092 0.204611,0.18415 0.06138,0.122767 0.06138,0.347839 0,0.225072 -0.06138,0.3683 -0.06138,0.122766 -0.204611,0.163689 -0.122767,0.06138 -0.347839,0.06138 z m 7.120461,0.08184 q -1.023055,0 -1.923344,-0.388761 -0.900288,-0.38876 -1.595965,-1.063977 -0.675217,-0.675216 -1.063978,-1.575504 -0.38876,-0.900289 -0.38876,-1.923344 0,-1.043516 0.368299,-1.9233431 0.388761,-0.9002884 1.063978,-1.5755047 0.695677,-0.6956774 1.575504,-1.0639772 0.900289,-0.3887609 1.923344,-0.3887609 1.370893,0 2.475793,0.6547552 1.104899,0.6342941 1.759654,1.7596546 0.65476,1.1048991 0.65476,2.5167151 0,1.063977 -0.38877,1.964266 -0.368295,0.900288 -1.043512,1.575504 -0.654755,0.675217 -1.534582,1.063978 -0.879827,0.368299 -1.882421,0.368299 z m -0.04092,-1.104899 q 1.043516,0 1.882421,-0.511528 0.859366,-0.531988 1.350432,-1.411815 0.511528,-0.900289 0.511528,-1.984727 0,-1.104899 -0.491067,-1.9642656 Q 98.565021,8.8514532 97.705655,8.3808479 96.86675,7.8897815 95.782311,7.8897815 q -1.063977,0 -1.923343,0.5115275 -0.838905,0.4910664 -1.350432,1.3504326 -0.491067,0.8593664 -0.491067,1.9438044 0,1.104899 0.491067,1.984727 0.511527,0.879827 1.370893,1.391354 0.859366,0.511528 1.923344,0.511528 z m 10.905757,1.043516 q -0.87983,0 -1.61643,-0.286455 -0.7366,-0.306917 -1.28905,-0.859367 -0.55245,-0.57291 -0.85936,-1.370893 -0.30692,-0.818444 -0.30692,-1.86196 V 7.4396373 q 0,-0.2250721 0.0409,-0.3478387 0.0614,-0.1432277 0.18415,-0.1841499 0.14323,-0.061383 0.34784,-0.061383 0.22507,0 0.34784,0.061383 0.14323,0.061383 0.18415,0.204611 0.0614,0.1227666 0.0614,0.3478387 v 4.8083586 q 0,0.982133 0.32738,1.739193 0.32738,0.7366 0.98213,1.145822 0.65476,0.409222 1.63689,0.409222 1.0026,0 1.71873,-0.409222 0.71614,-0.409222 1.1049,-1.145822 0.38876,-0.75706 0.38876,-1.739193 V 7.4396373 q 0,-0.2250721 0.0409,-0.3478387 0.0614,-0.1432277 0.18415,-0.1841499 0.14322,-0.061383 0.3683,-0.061383 0.20461,0 0.32737,0.061383 0.12277,0.061383 0.16369,0.204611 0.0614,0.1227666 0.0614,0.3478387 V 16.05376 q 0,0.18415 -0.0614,0.306917 -0.0409,0.122766 -0.16369,0.163689 -0.12276,0.06138 -0.34784,0.06138 -0.14322,0 -0.24553,-0.04092 -0.1023,-0.02046 -0.16369,-0.08185 -0.0614,-0.06138 -0.1023,-0.163689 -0.0205,-0.102305 -0.0205,-0.245533 v -1.207205 q -0.266,0.347839 -0.59338,0.675217 -0.32737,0.306916 -0.7366,0.57291 -0.38876,0.245534 -0.87982,0.388761 -0.49107,0.143228 -1.08444,0.143228 z m 11.47868,-0.02046 q -0.94121,0 -1.78011,-0.347839 -0.81845,-0.347838 -1.43228,-1.002594 -0.61383,-0.654755 -0.96167,-1.555043 -0.34784,-0.92075 -0.34784,-2.025649 0,-1.084438 0.34784,-1.9642656 0.34784,-0.9002884 0.96167,-1.5345825 0.61383,-0.6547552 1.43228,-1.0025939 0.8389,-0.3478387 1.78011,-0.3478387 1.0026,0 1.8415,0.3478387 0.83891,0.3478387 1.45274,1.0025939 0.61383,0.6547552 0.94121,1.5550436 0.34784,0.9002885 0.34784,2.0051875 0,1.1049 -0.34784,2.005188 -0.32738,0.879827 -0.94121,1.534582 -0.61383,0.634295 -1.45274,0.982133 -0.8389,0.347839 -1.8415,0.347839 z m 0.18415,-1.084438 q 1.02306,0 1.82104,-0.470606 0.79798,-0.491066 1.26859,-1.329971 0.47061,-0.859366 0.47061,-1.984727 0,-1.145821 -0.47061,-2.0051875 -0.47061,-0.8593662 -1.28905,-1.3299715 -0.79798,-0.4910664 -1.80058,-0.4910664 -1.00259,0 -1.82103,0.4910664 -0.81845,0.4706053 -1.28905,1.3299715 -0.47061,0.8593665 -0.47061,2.0051875 0,1.125361 0.47061,1.984727 0.4706,0.838905 1.28905,1.329971 0.81844,0.470606 1.82103,0.470606 z m 4.21499,1.084438 q -0.32738,0 -0.4706,-0.143228 -0.12277,-0.143227 -0.12277,-0.470605 V 2.9586565 q 0,-0.2455332 0.0409,-0.3682998 0.0614,-0.1432277 0.18415,-0.204611 0.14323,-0.061383 0.34784,-0.061383 0.22507,0 0.34784,0.061383 0.12276,0.061383 0.18415,0.204611 0.0614,0.1227666 0.0614,0.3478387 V 15.971916 q 0,0.225072 -0.0614,0.3683 -0.0409,0.143227 -0.16369,0.204611 -0.12277,0.06138 -0.34784,0.06138 z"
     id="cloud"
     inkscape:label="cloud"
     aria-label="cloud" />
  <path
     style="font-weight:300;font-size:20.4611px;font-family:Fredoka;-inkscape-font-specification:'Fredoka Light';fill:#ffffff;stroke-width:0.264583"
     d="m 75.566742,16.60621 q -0.327377,0 -0.450144,-0.122767 -0.122767,-0.122766 -0.122767,-0.429683 0,-0.18415 0.04092,-0.306916 0.06138,-0.122767 0.163688,-0.225072 L 81.930144,8.0330092 H 76.07827 q -0.225072,0 -0.3683,-0.040922 -0.122767,-0.061383 -0.18415,-0.1841499 -0.06138,-0.1432277 -0.06138,-0.3682998 0,-0.2250721 0.06138,-0.3478387 0.06138,-0.1432277 0.18415,-0.1841499 0.143228,-0.061383 0.3683,-0.061383 h 6.997696 q 0.327377,0 0.450144,0.1227666 0.122767,0.1227666 0.122767,0.4296831 0,0.1432277 -0.04092,0.2455332 -0.02046,0.1023055 -0.08184,0.1636888 l -6.731702,7.6115289 h 6.547552 q 0.225072,0 0.347839,0.06138 0.143227,0.06138 0.18415,0.204611 0.06138,0.122767 0.06138,0.347839 0,0.204611 -0.06138,0.347839 -0.06138,0.122766 -0.204611,0.163689 -0.122767,0.06138 -0.347839,0.06138 z m 15.243539,0.04092 q -1.12536,0 -2.066571,-0.3683 -0.92075,-0.368299 -1.595966,-1.043516 -0.654755,-0.675216 -1.023055,-1.595966 -0.3683,-0.920749 -0.3683,-2.046109 0,-1.329972 0.634295,-2.3939491 0.634294,-1.0639772 1.759654,-1.6778102 1.125361,-0.6342941 2.578099,-0.6342941 0.94121,0 1.718732,0.2864554 0.777522,0.2864554 1.350433,0.7775218 0.57291,0.4910664 0.879827,1.1253605 0.327377,0.6342941 0.327377,1.3095107 0,1.002594 -0.470605,1.370893 -0.450144,0.347839 -1.104899,0.347839 h -6.445247 q -0.04092,1.084438 0.531989,1.86196 0.593372,0.777522 1.473199,1.207205 0.900289,0.409222 1.800577,0.409222 0.593372,0 1.023055,-0.06138 0.450144,-0.06138 0.757061,-0.163689 0.327377,-0.122767 0.552449,-0.225072 0.225072,-0.122767 0.409222,-0.225072 0.18415,-0.122767 0.347839,-0.18415 0.102305,-0.04092 0.225072,-0.02046 0.143228,0 0.204611,0.102305 0.102306,0.143228 0.143228,0.265994 0.04092,0.102306 0.04092,0.245534 0,0.18415 -0.491066,0.511527 -0.491067,0.306917 -1.329972,0.55245 -0.838905,0.265994 -1.86196,0.265994 z m -3.826226,-5.524497 h 6.097408 q 0.409222,0 0.634294,-0.08184 0.225072,-0.102306 0.225072,-0.613833 0,-0.6752164 -0.429683,-1.2276661 -0.409222,-0.5729108 -1.12536,-0.9207495 -0.716139,-0.3478387 -1.636888,-0.3478387 -1.023055,0 -1.902883,0.409222 -0.859366,0.409222 -1.370893,1.1458216 -0.511528,0.7161387 -0.491067,1.6368877 z m 11.02853,5.483575 q -0.204611,0 -0.327378,-0.06138 -0.122767,-0.06138 -0.18415,-0.204611 -0.04092,-0.143228 -0.04092,-0.3683 V 7.4396373 q 0,-0.2455332 0.04092,-0.3682998 0.06138,-0.1432277 0.18415,-0.1841499 0.122767,-0.040922 0.347839,-0.040922 0.204611,0 0.327377,0.040922 0.143228,0.040922 0.204611,0.1841499 0.06138,0.1227666 0.06138,0.3682998 V 8.2990035 Q 98.831029,7.9511648 99.03564,7.6647094 99.240251,7.378254 99.526706,7.173643 q 0.286455,-0.2250721 0.695674,-0.3478387 0.42969,-0.1227666 1.06398,-0.1227666 0.32738,0 0.59337,0.061383 0.28646,0.061383 0.51153,0.1636888 0.24553,0.1023055 0.40922,0.2250721 0.16369,0.1227666 0.24554,0.2455332 0.0818,0.1227666 0.0818,0.2455332 0,0.2659943 -0.22507,0.4501442 -0.22507,0.1841499 -0.40922,0.1841499 -0.22508,0 -0.34784,-0.061383 -0.10231,-0.081844 -0.22508,-0.1841499 -0.12276,-0.1023055 -0.3683,-0.1636888 -0.24553,-0.081844 -0.75706,-0.081844 -0.30691,0 -0.67521,0.1432277 -0.368302,0.1227666 -0.716141,0.3887609 -0.327377,0.2659943 -0.552449,0.6956774 -0.225072,0.4296831 -0.225072,1.023055 v 5.974641 q 0,0.225072 -0.06138,0.3683 -0.04092,0.122766 -0.18415,0.163689 -0.122766,0.06138 -0.368299,0.06138 z m 11.621885,0.08184 q -1.02305,0 -1.92334,-0.388761 -0.90029,-0.38876 -1.59597,-1.063977 -0.67521,-0.675216 -1.06397,-1.575504 -0.38877,-0.900289 -0.38877,-1.923344 0,-1.043516 0.3683,-1.9233431 0.38877,-0.9002884 1.06398,-1.5755047 0.69568,-0.6956774 1.57551,-1.0639772 0.90028,-0.3887609 1.92334,-0.3887609 1.37089,0 2.47579,0.6547552 1.1049,0.6342941 1.75966,1.7596546 0.65475,1.1048991 0.65475,2.5167151 0,1.063977 -0.38876,1.964266 -0.3683,0.900288 -1.04351,1.575504 -0.65476,0.675217 -1.53459,1.063978 -0.87982,0.368299 -1.88242,0.368299 z m -0.0409,-1.104899 q 1.04352,0 1.88242,-0.511528 0.85937,-0.531988 1.35043,-1.411815 0.51153,-0.900289 0.51153,-1.984727 0,-1.104899 -0.49107,-1.9642656 -0.49106,-0.8593662 -1.35043,-1.3299715 -0.8389,-0.4910664 -1.92334,-0.4910664 -1.06398,0 -1.92334,0.5115275 -0.83891,0.4910664 -1.35044,1.3504326 -0.49106,0.8593664 -0.49106,1.9438044 0,1.104899 0.49106,1.984727 0.51153,0.879827 1.3709,1.391354 0.85936,0.511528 1.92334,0.511528 z"
     id="zero"
     inkscape:label="zero"
     aria-label="zero" />
  <path
     style="font-weight:300;font-size:20.4611px;font-family:Fredoka;-inkscape-font-specification:'Fredoka Light';fill:#ffffff;stroke-width:0.264583"
     d="m 79.413429,16.60621 q -0.265994,0 -0.429683,-0.06138 -0.143228,-0.06138 -0.245533,-0.265995 L 74.891526,7.582865 q -0.143228,-0.3478387 -0.04092,-0.4910664 0.122766,-0.1432277 0.388761,-0.2864554 0.245533,-0.1227666 0.429683,-0.061383 0.204611,0.040922 0.327377,0.3273776 l 3.417004,8.2049005 3.35562,-7.9389062 q 0.122767,-0.2864554 0.286456,-0.5115275 0.18415,-0.2250721 0.634294,0 0.429683,0.204611 0.3683,0.4501442 -0.04092,0.2455332 -0.143228,0.4706053 l -3.805765,8.5118172 q -0.08184,0.18415 -0.245533,0.265995 -0.163689,0.08184 -0.450144,0.08184 z m 11.724213,-0.04092 q -1.002593,0 -1.841499,-0.347839 -0.838905,-0.347839 -1.452738,-1.002594 -0.613833,-0.654755 -0.961671,-1.555043 -0.327378,-0.900289 -0.327378,-2.005188 0,-1.1049 0.327378,-1.9847268 0.347838,-0.9002884 0.961671,-1.5345825 0.613833,-0.6547552 1.452738,-1.0025939 0.838906,-0.3478387 1.841499,-0.3478387 0.961672,0 1.780116,0.3478387 0.818444,0.3478387 1.432277,1.0025939 0.613833,0.6547552 0.961672,1.5755047 0.347838,0.9002886 0.347838,2.0051876 0,1.084438 -0.347838,1.984727 -0.347839,0.879827 -0.961672,1.534582 -0.613833,0.634294 -1.432277,0.982133 -0.818444,0.347839 -1.780116,0.347839 z m -4.399136,3.948992 q -0.225072,0 -0.3683,-0.06138 -0.122766,-0.06138 -0.18415,-0.204611 -0.06138,-0.122767 -0.06138,-0.347839 V 7.4805595 q 0,-0.2455332 0.04092,-0.3682998 0.06138,-0.1432277 0.18415,-0.204611 0.143228,-0.061383 0.3683,-0.061383 0.347839,0 0.470605,0.1432277 0.143228,0.1227666 0.143228,0.4706053 V 19.879986 q 0,0.225072 -0.06138,0.3683 -0.04092,0.143227 -0.18415,0.204611 -0.122767,0.06138 -0.347839,0.06138 z m 4.214987,-5.033431 q 1.023055,0 1.821037,-0.470605 0.818444,-0.491066 1.28905,-1.350432 0.470605,-0.879828 0.470605,-2.005188 0,-1.145822 -0.470605,-1.9847268 Q 93.592974,8.810531 92.77453,8.3399257 91.976548,7.8693204 90.953493,7.8693204 q -1.002594,0 -1.821038,0.4910664 -0.797983,0.4706053 -1.268588,1.3299715 -0.470606,0.8389047 -0.470606,1.9642657 0,1.12536 0.470606,2.005188 0.470605,0.859366 1.268588,1.350432 0.818444,0.470605 1.821038,0.470605 z m 7.897966,1.1049 q -0.204611,0 -0.327377,-0.06138 -0.122767,-0.06138 -0.18415,-0.18415 -0.04092,-0.143228 -0.04092,-0.3683 V 7.378254 q 0,-0.204611 0.04092,-0.3069165 0.06138,-0.1227666 0.18415,-0.1636888 0.143227,-0.061383 0.347838,-0.061383 0.143228,0 0.245534,0.040922 0.102305,0.020461 0.163688,0.081844 0.06138,0.061383 0.08185,0.1636888 0.04092,0.1023055 0.04092,0.2455332 v 1.2072049 q 0.265994,-0.3478387 0.593372,-0.6547552 0.327379,-0.3273776 0.716139,-0.5729108 0.40922,-0.2659943 0.87983,-0.409222 0.49106,-0.1432277 1.08443,-0.1432277 0.87983,0 1.61643,0.3069165 0.75706,0.2864554 1.30951,0.8593662 0.55245,0.5524497 0.85937,1.3708937 0.30691,0.7979824 0.30691,1.8414994 v 4.808358 q 0,0.225072 -0.0614,0.3683 -0.0409,0.122766 -0.16369,0.163689 -0.12276,0.06138 -0.34784,0.06138 -0.22507,0 -0.3683,-0.06138 -0.12276,-0.06138 -0.18415,-0.18415 -0.0409,-0.143228 -0.0409,-0.3683 v -4.808359 q 0,-1.002593 -0.32738,-1.739193 -0.32737,-0.7365996 -0.98213,-1.1458216 -0.65475,-0.409222 -1.65735,-0.409222 -0.98213,0 -1.69827,0.409222 -0.71614,0.409222 -1.104898,1.1458216 -0.388761,0.7366 -0.388761,1.739193 v 4.82882 q 0,0.225072 -0.06138,0.3683 -0.04092,0.122766 -0.18415,0.163689 -0.122767,0.06138 -0.347839,0.06138 z"
     id="vpn"
     inkscape:label="vpn"
     aria-label="vpn" />
  <path
     d="m 68.88815,21.350128 q -0.239889,0 -0.407811,-0.07197 -0.143934,-0.07197 -0.215901,-0.239889 -0.04798,-0.143934 -0.04798,-0.407811 V 0.69568532 q 0,-0.26387789 0.04798,-0.40781129 0.07197,-0.16792229 0.215901,-0.21590009 0.167922,-0.071966699705 0.4318,-0.071966699705 0.263878,0 0.407811,0.071966699705 0.143933,0.0719667 0.191911,0.23988899 0.07197,0.1439334 0.07197,0.43180019 V 20.654449 q 0,0.263878 -0.07197,0.407812 -0.04798,0.167922 -0.2159,0.2159 -0.143933,0.07197 -0.407811,0.07197 z"
     id="divider"
     style="font-weight:300;font-size:23.9889px;font-family:Fredoka;-inkscape-font-specification:'Fredoka Light';letter-spacing:0px;fill:#ffffff;stroke-width:0.264583"
     inkscape:label="divider"
     aria-label="|" />
  <path
     style="font-weight:bold;font-size:20.4611px;font-family:Fredoka;-inkscape-font-specification:'Fredoka Bold';fill:#ffffff;stroke-width:0.264583"
     d="m 5.6063603,16.684737 q -1.0025938,0 -1.7391934,-0.409222 Q 3.1305673,15.866293 2.659962,15.170616 2.1893567,14.454477 1.9642846,13.554189 1.7392125,12.653901 1.7596736,11.651307 1.7801347,10.669174 2.0052068,9.7484244 2.25074,8.8276749 2.7213453,8.1115364 3.1919506,7.3953979 3.9080891,6.9861759 4.6242276,6.5564928 5.6063603,6.5564928 q 0.9002884,0 1.7391935,0.4296831 0.8593662,0.4296831 1.5345825,1.1662827 0.6752163,0.7161385 1.0639772,1.636888 0.3887605,0.9207494 0.3887605,1.9028824 0,1.023055 -0.3887605,1.943804 -0.3887609,0.900289 -1.0639772,1.595966 -0.6547552,0.675216 -1.5141214,1.063977 -0.8389051,0.388761 -1.7596546,0.388761 z m -3.7853034,4.583286 q -0.90028837,0 -1.28904927,-0.265994 Q 0.14324674,20.736035 0.06140234,20.326813 1.9042969e-5,19.917591 1.9042969e-5,19.467447 V 8.3570696 q 0,-0.4501442 0.06138329703,-0.8593662 0.0818444,-0.409222 0.45014419,-0.6752163 0.3887609,-0.2864554 1.28904927,-0.2864554 0.7161385,0 1.1867438,0.204611 0.4706053,0.1841499 0.6752163,0.5933719 V 19.446986 q 0.040922,0.450144 -0.061383,0.859366 -0.081844,0.429683 -0.4706053,0.695677 -0.3887609,0.265994 -1.3095104,0.265994 z m 3.294237,-8.061673 q 0.409222,0 0.7365996,-0.204611 0.3478387,-0.204611 0.5524497,-0.531988 0.204611,-0.347839 0.204611,-0.7366 0,-0.409222 -0.204611,-0.7366 Q 6.2201933,10.648713 5.8723546,10.464563 5.544977,10.259952 5.135755,10.259952 q -0.4092219,0 -0.7570606,0.204611 -0.3273776,0.204611 -0.5319886,0.531988 -0.1841499,0.327378 -0.1841499,0.7366 0,0.388761 0.204611,0.7366 0.204611,0.327377 0.5319886,0.531988 0.3273776,0.204611 0.7161384,0.204611 z m 7.8775311,3.72392 q -0.920749,0 -1.30951,-0.265994 -0.388761,-0.286455 -0.470605,-0.716138 -0.06138,-0.450145 -0.06138,-0.900289 V 8.3775307 q 0,-0.4706053 0.08185,-0.8798273 0.08184,-0.4296831 0.470605,-0.6956774 0.388761,-0.2659943 1.30951,-0.2659943 0.900289,0 1.268588,0.2455332 0.388761,0.2455332 0.470606,0.5524497 0.08184,0.2864554 0.08184,0.4501442 L 14.506947,7.6613922 q 0,0 0.163688,-0.1841499 0.163689,-0.1841499 0.470606,-0.4296831 0.327377,-0.2455332 0.75706,-0.4296831 0.450145,-0.1841499 1.002594,-0.1841499 0.18415,0 0.450144,0.040922 0.286456,0.020461 0.593372,0.1023055 0.327378,0.081844 0.593372,0.2455332 0.286456,0.1636888 0.450144,0.4296831 0.18415,0.2659943 0.18415,0.6547552 0,1.023055 -0.450144,1.7391935 -0.429683,0.7161381 -1.145822,0.7161381 -0.38876,0 -0.552449,-0.04092 -0.163689,-0.06138 -0.245533,-0.102305 -0.06138,-0.06138 -0.163689,-0.102306 -0.08184,-0.06138 -0.327378,-0.06138 -0.306916,0 -0.572911,0.08184 -0.245533,0.06138 -0.450144,0.204611 -0.18415,0.143228 -0.286455,0.347839 -0.102306,0.18415 -0.102306,0.409222 v 3.989914 q 0,0.450145 -0.08184,0.879828 -0.08184,0.429683 -0.470605,0.695677 -0.388761,0.265994 -1.329972,0.265994 z m 8.941485,0 q -0.92075,0 -1.309511,-0.265994 -0.388761,-0.286455 -0.470605,-0.716138 -0.06138,-0.429684 -0.06138,-0.879828 V 8.3979918 q 0,-0.4501442 0.08184,-0.8593662 0.08184,-0.4296831 0.470605,-0.6956774 0.388761,-0.2864554 1.309511,-0.2864554 0.920749,0 1.289049,0.2864554 0.388761,0.2659943 0.470605,0.6956774 0.08185,0.4296831 0.08185,0.9002884 v 6.649857 q 0,0.450145 -0.08185,0.879828 -0.08184,0.429683 -0.470605,0.695677 -0.3683,0.265994 -1.30951,0.265994 z m 0,-11.376371 q -0.92075,0 -1.309511,-0.2659943 -0.388761,-0.2864554 -0.470605,-0.7161385 -0.06138,-0.4296831 -0.06138,-0.8798273 0,-0.4706053 0.08184,-0.8798273 0.08184,-0.4296831 0.470605,-0.6956774 0.388761,-0.2659943 1.309511,-0.2659943 0.920749,0 1.289049,0.2864554 0.388761,0.2659943 0.470605,0.6956774 0.08185,0.4296831 0.08185,0.8798273 0,0.4501442 -0.08185,0.8798273 -0.08184,0.4296831 -0.470605,0.6956774 -0.3683,0.2659943 -1.30951,0.2659943 z m 8.757339,11.376371 q -1.084438,0 -1.882421,-0.245533 -0.797983,-0.245533 -1.329971,-0.757061 -0.511528,-0.511527 -0.777522,-1.289049 -0.245533,-0.777522 -0.245533,-1.821038 V 4.8786827 q 0,-0.4706053 0.08184,-0.8593662 0.08184,-0.409222 0.470605,-0.6547552 0.388761,-0.2659943 1.309511,-0.2659943 0.900288,0 1.289049,0.2864554 0.388761,0.2659943 0.470605,0.6956774 0.08185,0.4296831 0.08185,0.8798273 v 7.6729119 q 0,0.225073 0.02046,0.388761 0.04092,0.143228 0.102305,0.225072 0.06138,0.08184 0.163689,0.122767 0.102306,0.04092 0.265994,0.04092 0.531989,0 0.941211,0.08184 0.429683,0.08184 0.654755,0.429683 0.245533,0.347838 0.245533,1.166282 0,0.92075 -0.286455,1.309511 -0.286455,0.388761 -0.716138,0.450144 -0.429684,0.08184 -0.859367,0.08184 z M 26.026519,6.6587983 h 2.393948 l 2.823632,-0.1023055 q 0.450144,0 0.859366,0.081844 0.429683,0.081844 0.695678,0.4706053 0.286455,0.3887609 0.286455,1.3299715 0,0.8593662 -0.286455,1.2481271 -0.265995,0.3887609 -0.695678,0.4910659 -0.409222,0.102306 -0.879827,0.102306 l -2.59856,-0.06138 h -2.680404 q -0.695677,-0.04092 -0.961671,-0.4501445 -0.265995,-0.409222 -0.265995,-1.3504326 0,-0.8798273 0.327378,-1.3095104 0.327377,-0.4501442 0.982133,-0.4501442 z M 38.54873,16.889348 q -0.982133,0 -1.841499,-0.388761 Q 35.868326,16.111826 35.234032,15.416149 34.599738,14.70001 34.251899,13.7588 33.90406,12.817589 33.90406,11.71269 V 8.3775307 q 0,-0.4706053 0.08185,-0.8798273 0.08184,-0.4296831 0.470605,-0.6956774 0.388761,-0.2864554 1.30951,-0.2864554 0.941211,0 1.309511,0.2864554 0.388761,0.2659943 0.470605,0.6956774 0.08185,0.4296831 0.08185,0.9002884 V 11.71269 q 0,0.470605 0.163688,0.797983 0.18415,0.327377 0.511528,0.511527 0.347839,0.163689 0.797983,0.163689 0.450144,0 0.777521,-0.18415 0.327378,-0.18415 0.511528,-0.511527 0.18415,-0.327378 0.18415,-0.777522 V 8.3570696 q 0,-0.4706053 0.08184,-0.8798273 0.08185,-0.4296831 0.470606,-0.6956774 0.38876,-0.2659943 1.30951,-0.2659943 0.941211,0 1.30951,0.2864554 0.388761,0.2659943 0.470606,0.6956774 0.08184,0.4296831 0.08184,0.8798273 v 6.7317013 q 0,0.450145 -0.08184,0.859367 -0.08185,0.409222 -0.470606,0.675216 -0.388761,0.265994 -1.30951,0.265994 -0.675216,0 -1.063977,-0.163689 -0.3683,-0.143227 -0.531989,-0.368299 -0.163689,-0.245534 -0.204611,-0.470606 -0.02046,-0.245533 -0.02046,-0.409222 l 0.347839,0.102306 q 0,0 -0.163689,0.204611 -0.163689,0.18415 -0.491066,0.450144 -0.306917,0.245533 -0.757061,0.450144 -0.429683,0.18415 -1.002594,0.18415 z m 8.818747,0.02046 q -0.920749,0 -1.30951,-0.265994 -0.388761,-0.286455 -0.470606,-0.716139 -0.06138,-0.429683 -0.06138,-0.879827 V 8.3161474 q 0,-0.4501442 0.08185,-0.8593662 0.08184,-0.409222 0.470605,-0.6547552 0.388761,-0.2659943 1.30951,-0.2659943 0.838905,0 1.207205,0.2250721 0.388761,0.204611 0.491066,0.5115275 0.102306,0.3069165 0.08185,0.5729108 0,0.2455332 0.04092,0.3069165 l -0.163689,0.1227666 q -0.02046,-0.3069165 0.225072,-0.613833 0.265995,-0.3069165 0.675217,-0.5524497 0.429683,-0.2659943 0.900288,-0.409222 0.491066,-0.1636888 0.92075,-0.1636888 1.023054,0 1.800576,0.3887609 0.777522,0.3887609 1.28905,1.1048994 0.531988,0.6956774 0.797982,1.636888 0.265995,0.941211 0.265995,2.04611 v 3.35562 q 0,0.450144 -0.08185,0.879828 -0.08184,0.429683 -0.470605,0.695677 -0.3683,0.265994 -1.30951,0.265994 -0.941211,0 -1.329972,-0.265994 -0.388761,-0.286455 -0.470605,-0.716139 -0.08184,-0.429683 -0.08184,-0.879827 V 11.71269 q 0,-0.470605 -0.18415,-0.797983 -0.163689,-0.327378 -0.491067,-0.491066 -0.306916,-0.18415 -0.777522,-0.18415 -0.450144,0 -0.797982,0.18415 -0.327378,0.18415 -0.511528,0.511527 -0.18415,0.327378 -0.18415,0.777522 v 3.35562 q 0,0.450144 -0.08184,0.879828 -0.08185,0.429683 -0.470606,0.695677 -0.368299,0.265994 -1.30951,0.265994 z m 14.077236,0.02046 q -0.94121,0 -1.657349,-0.08184 -0.695677,-0.08184 -1.186743,-0.327378 -0.491067,-0.245533 -0.797983,-0.695677 -0.306917,-0.470605 -0.450144,-1.207205 -0.143228,-0.757061 -0.143228,-1.882421 V 3.6714778 q 0,-0.4706053 0.08184,-0.8798273 0.08184,-0.4296831 0.470606,-0.6956774 0.38876,-0.2864554 1.30951,-0.2864554 0.920749,0 1.289049,0.2864554 0.388761,0.2659943 0.470605,0.6956774 0.08185,0.4296831 0.08185,0.9002884 v 8.8187341 q 0,0.306916 0,0.491066 0.02046,0.163689 0.06138,0.245533 0.06138,0.08184 0.163689,0.102306 0.122767,0 0.327378,0 0.265994,0 0.552449,0.08184 0.306917,0.06138 0.511528,0.429683 0.225072,0.347839 0.225072,1.227666 0,0.92075 -0.225072,1.309511 -0.204611,0.388761 -0.511528,0.450144 -0.306916,0.08184 -0.572911,0.08184 z"
     id="pritunl"
     inkscape:label="pritunl"
     aria-label="pritunl" />
</svg>
