<?xml version="1.0" encoding="UTF-8" standalone="no"?>
<!-- Created with Inkscape (http://www.inkscape.org/) -->

<svg
   width="123.15924mm"
   height="59.450119mm"
   viewBox="0 0 123.15924 59.450118"
   version="1.1"
   id="svg1"
   inkscape:version="1.4.3 (0d15f75042, 2025-12-25)"
   sodipodi:docname="pritunl_all.svg"
   xmlns:inkscape="http://www.inkscape.org/namespaces/inkscape"
   xmlns:sodipodi="http://sodipodi.sourceforge.net/DTD/sodipodi-0.dtd"
   xmlns="http://www.w3.org/2000/svg"
   xmlns:svg="http://www.w3.org/2000/svg">
  <sodipodi:namedview
     id="namedview1"
     pagecolor="#000000"
     bordercolor="#000000"
     borderopacity="0.25"
     inkscape:showpageshadow="false"
     inkscape:pageopacity="0.0"
     inkscape:pagecheckerboard="true"
     inkscape:deskcolor="#313131"
     inkscape:document-units="mm"
     showgrid="false"
     inkscape:zoom="4.6413109"
     inkscape:cx="266.4118"
     inkscape:cy="137.24571"
     inkscape:window-width="3840"
     inkscape:window-height="2085"
     inkscape:window-x="0"
     inkscape:window-y="43"
     inkscape:window-maximized="1"
     inkscape:current-layer="svg1"
     showborder="false">
    <inkscape:grid
       id="grid9"
       units="mm"
       originx="-32.245007"
       originy="-60.260446"
       spacingx="0.99999998"
       spacingy="1"
       empcolor="#0099e5"
       empopacity="0.30196078"
       color="#0099e5"
       opacity="0.14901961"
       empspacing="5"
       enabled="true"
       visible="false" />
  </sodipodi:namedview>
  <defs
     id="defs1" />
  <path
     style="font-weight:300;font-size:20.4611px;font-family:Fredoka;-inkscape-font-specification:'Fredoka Light';display:inline;fill:#ffffff;stroke-width:0.264583"
     d="m 80.047704,54.706223 q -1.12536,0 -2.066571,-0.347839 -0.920749,-0.347838 -1.595966,-0.982133 -0.675216,-0.654755 -1.043516,-1.534582 -0.347839,-0.900288 -0.347839,-2.005188 0,-1.104899 0.347839,-1.984727 0.3683,-0.900289 1.023055,-1.555044 0.675216,-0.654756 1.595966,-1.002595 0.920749,-0.347838 2.04611,-0.347838 0.675216,0 1.370894,0.245533 0.716138,0.225072 1.289049,0.613833 0.572911,0.3683 0.818444,0.838906 0.143227,0.265994 0.143227,0.388761 0,0.122767 -0.102305,0.245533 -0.122767,0.143228 -0.286455,0.225072 -0.143228,0.08184 -0.265995,0.08184 -0.245533,0 -0.470605,-0.286456 -0.204611,-0.28645 -0.491066,-0.511523 -0.286456,-0.225072 -0.634294,-0.388761 -0.327378,-0.163689 -0.675217,-0.245533 -0.347838,-0.102305 -0.695677,-0.102305 -1.145822,0 -2.005188,0.470605 -0.859366,0.470605 -1.329971,1.329972 -0.470606,0.838906 -0.470606,1.984727 0,1.125361 0.470606,1.984727 0.470605,0.838905 1.30951,1.30951 0.859366,0.470606 1.984727,0.470606 0.470605,0 0.94121,-0.122767 0.470606,-0.122767 0.900289,-0.347839 0.429683,-0.245533 0.736599,-0.552449 0.163689,-0.143228 0.265995,-0.225073 0.122766,-0.102305 0.286455,-0.102305 0.122767,0 0.225072,0.102305 0.122767,0.08184 0.245533,0.245534 0.08185,0.08184 0.102306,0.204611 0.02046,0.102305 -0.02046,0.225072 -0.02046,0.122766 -0.122767,0.225072 -0.429683,0.429683 -1.043516,0.757061 -0.593372,0.327377 -1.248127,0.511527 -0.634294,0.18415 -1.186745,0.18415 z m 8.675511,0 q -0.572911,0 -1.043516,-0.122767 -0.450144,-0.122766 -0.797983,-0.368299 -0.347839,-0.245534 -0.593372,-0.613833 -0.225072,-0.3683 -0.347839,-0.859367 Q 85.8382,52.250891 85.8382,51.657519 V 41.017743 q 0,-0.245533 0.04092,-0.3683 0.06138,-0.143228 0.18415,-0.204611 0.143228,-0.06138 0.347839,-0.06138 0.225072,0 0.347838,0.06138 0.143228,0.04092 0.204611,0.163689 0.06138,0.122767 0.06138,0.347839 v 10.742081 q 0,0.450144 0.102305,0.797983 0.102306,0.327378 0.306917,0.572911 0.225072,0.225072 0.531988,0.347839 0.327378,0.102305 0.7366,0.102305 0.245533,0 0.3683,0.06138 0.143227,0.04092 0.204611,0.18415 0.06138,0.122767 0.06138,0.347839 0,0.225072 -0.06138,0.3683 -0.06138,0.122766 -0.204611,0.163689 -0.122767,0.06138 -0.347839,0.06138 z m 7.120461,0.08184 q -1.023055,0 -1.923344,-0.388761 -0.900288,-0.38876 -1.595965,-1.063977 -0.675217,-0.675216 -1.063978,-1.575504 -0.38876,-0.900289 -0.38876,-1.923344 0,-1.043516 0.368299,-1.923343 0.388761,-0.900289 1.063978,-1.575506 0.695677,-0.695678 1.575504,-1.063978 0.900289,-0.388761 1.923344,-0.388761 1.370893,0 2.475793,0.654756 1.104899,0.634294 1.759653,1.759655 0.65476,1.1049 0.65476,2.516716 0,1.063977 -0.38877,1.964266 -0.368294,0.900288 -1.043511,1.575504 -0.654755,0.675217 -1.534582,1.063978 -0.879827,0.368299 -1.882421,0.368299 z m -0.04092,-1.104899 q 1.043516,0 1.882421,-0.511528 0.859366,-0.531988 1.350432,-1.411815 0.511528,-0.900289 0.511528,-1.984727 0,-1.104899 -0.491067,-1.964266 -0.491068,-0.859363 -1.350434,-1.329968 -0.838905,-0.491067 -1.923344,-0.491067 -1.063977,0 -1.923343,0.511528 -0.838905,0.491066 -1.350432,1.350433 -0.491067,0.859367 -0.491067,1.943805 0,1.104899 0.491067,1.984727 0.511527,0.879827 1.370893,1.391354 0.859366,0.511528 1.923344,0.511528 z m 10.905754,1.043516 q -0.87983,0 -1.61643,-0.286455 -0.7366,-0.306917 -1.28905,-0.859367 -0.55245,-0.57291 -0.85936,-1.370893 -0.30692,-0.818444 -0.30692,-1.86196 v -4.808356 q 0,-0.225073 0.0409,-0.347839 0.0614,-0.143228 0.18415,-0.18415 0.14323,-0.06138 0.34784,-0.06138 0.22507,0 0.34784,0.06138 0.14323,0.06138 0.18415,0.204611 0.0614,0.122766 0.0614,0.347839 v 4.80836 q 0,0.982133 0.32738,1.739193 0.32738,0.7366 0.98213,1.145822 0.65476,0.409222 1.63689,0.409222 1.0026,0 1.71873,-0.409222 0.71614,-0.409222 1.1049,-1.145822 0.38876,-0.75706 0.38876,-1.739193 v -4.828821 q 0,-0.225073 0.0409,-0.347839 0.0614,-0.143228 0.18415,-0.18415 0.14322,-0.06138 0.3683,-0.06138 0.20461,0 0.32737,0.06138 0.12277,0.06138 0.16369,0.204611 0.0614,0.122766 0.0614,0.347839 v 8.593663 q 0,0.18415 -0.0614,0.306917 -0.0409,0.122766 -0.16369,0.163689 -0.12276,0.06138 -0.34784,0.06138 -0.14322,0 -0.24553,-0.04092 -0.1023,-0.02046 -0.16369,-0.08185 -0.0614,-0.06138 -0.1023,-0.163689 -0.0205,-0.102305 -0.0205,-0.245533 v -1.207205 q -0.266,0.347839 -0.59338,0.675217 -0.32737,0.306916 -0.7366,0.57291 -0.38876,0.245534 -0.87982,0.388761 -0.49107,0.143228 -1.08444,0.143228 z m 11.47868,-0.02046 q -0.94121,0 -1.78011,-0.347839 -0.81845,-0.347838 -1.43228,-1.002594 -0.61383,-0.654755 -0.96167,-1.555043 -0.34784,-0.92075 -0.34784,-2.025649 0,-1.084438 0.34784,-1.964266 0.34784,-0.900289 0.96167,-1.534583 0.61383,-0.654756 1.43228,-1.002595 0.8389,-0.347839 1.78011,-0.347839 1.0026,0 1.8415,0.347839 0.83891,0.347839 1.45274,1.002595 0.61383,0.654755 0.94121,1.555044 0.34784,0.900289 0.34784,2.005188 0,1.1049 -0.34784,2.005188 -0.32738,0.879827 -0.94121,1.534582 -0.61383,0.634295 -1.45274,0.982133 -0.8389,0.347839 -1.8415,0.347839 z m 0.18415,-1.084438 q 1.02306,0 1.82104,-0.470606 0.79798,-0.491066 1.26859,-1.329971 0.47061,-0.859366 0.47061,-1.984727 0,-1.145821 -0.47061,-2.005188 -0.47061,-0.859367 -1.28905,-1.329972 -0.79798,-0.491067 -1.80058,-0.491067 -1.00259,0 -1.82103,0.491067 -0.81845,0.470605 -1.28905,1.329972 -0.47061,0.859367 -0.47061,2.005188 0,1.125361 0.47061,1.984727 0.4706,0.838905 1.28905,1.329971 0.81844,0.470606 1.82103,0.470606 z m 4.21499,1.084438 q -0.32738,0 -0.4706,-0.143228 -0.12277,-0.143227 -0.12277,-0.470605 V 41.058665 q 0,-0.245533 0.0409,-0.3683 0.0614,-0.143228 0.18415,-0.204611 0.14323,-0.06138 0.34784,-0.06138 0.22507,0 0.34784,0.06138 0.12276,0.06138 0.18415,0.204611 0.0614,0.122767 0.0614,0.347839 v 13.033725 q 0,0.225072 -0.0614,0.3683 -0.0409,0.143227 -0.16369,0.204611 -0.12277,0.06138 -0.34784,0.06138 z"
     id="cloud"
     inkscape:label="cloud"
     aria-label="cloud" />
  <path
     style="font-weight:300;font-size:20.4611px;font-family:Fredoka;-inkscape-font-specification:'Fredoka Light';display:inline;fill:#ffffff;stroke-width:0.264583"
     d="m 75.566723,34.597877 q -0.327377,0 -0.450144,-0.122767 -0.122767,-0.122766 -0.122767,-0.429683 0,-0.18415 0.04092,-0.306916 0.06138,-0.122767 0.163688,-0.225072 l 6.731705,-7.488763 h -5.851874 q -0.225072,0 -0.3683,-0.04092 -0.122767,-0.06138 -0.18415,-0.18415 -0.06138,-0.143227 -0.06138,-0.368299 0,-0.225072 0.06138,-0.347839 0.06138,-0.143228 0.18415,-0.18415 0.143228,-0.06138 0.3683,-0.06138 h 6.997696 q 0.327377,0 0.450144,0.122767 0.122767,0.122766 0.122767,0.429683 0,0.143227 -0.04092,0.245532 -0.02046,0.102306 -0.08184,0.16369 l -6.731702,7.611528 h 6.547552 q 0.225072,0 0.347839,0.06138 0.143227,0.06138 0.18415,0.204611 0.06138,0.122767 0.06138,0.347839 0,0.204611 -0.06138,0.347839 -0.06138,0.122766 -0.204611,0.163689 -0.122767,0.06138 -0.347839,0.06138 z m 15.243539,0.04092 q -1.12536,0 -2.066571,-0.3683 -0.92075,-0.368299 -1.595966,-1.043516 -0.654755,-0.675216 -1.023055,-1.595966 -0.3683,-0.920749 -0.3683,-2.046109 0,-1.329972 0.634295,-2.393949 0.634294,-1.063978 1.759654,-1.677811 1.125361,-0.634293 2.578099,-0.634293 0.94121,0 1.718732,0.286455 0.777522,0.286455 1.350433,0.777522 0.57291,0.491066 0.879827,1.125361 0.327377,0.634293 0.327377,1.30951 0,1.002594 -0.470605,1.370893 -0.450144,0.347839 -1.104899,0.347839 h -6.445247 q -0.04092,1.084438 0.531989,1.86196 0.593372,0.777522 1.473199,1.207205 0.900289,0.409222 1.800577,0.409222 0.593372,0 1.023055,-0.06138 0.450144,-0.06138 0.757061,-0.163689 0.327377,-0.122767 0.552449,-0.225072 0.225072,-0.122767 0.409222,-0.225072 0.18415,-0.122767 0.347839,-0.18415 0.102305,-0.04092 0.225072,-0.02046 0.143228,0 0.204611,0.102305 0.102306,0.143228 0.143228,0.265994 0.04092,0.102306 0.04092,0.245534 0,0.18415 -0.491066,0.511527 -0.491067,0.306917 -1.329972,0.55245 -0.838905,0.265994 -1.86196,0.265994 z M 86.984036,29.1143 h 6.097408 q 0.409222,0 0.634294,-0.08184 0.225072,-0.102306 0.225072,-0.613833 0,-0.675217 -0.429683,-1.227666 -0.409222,-0.572911 -1.12536,-0.92075 -0.716139,-0.347839 -1.636888,-0.347839 -1.023055,0 -1.902883,0.409222 -0.859366,0.409223 -1.370893,1.145822 -0.511528,0.716139 -0.491067,1.636888 z m 11.02853,5.483575 q -0.204611,0 -0.327378,-0.06138 -0.122767,-0.06138 -0.18415,-0.204611 -0.04092,-0.143228 -0.04092,-0.3683 v -8.53228 q 0,-0.245533 0.04092,-0.368299 0.06138,-0.143228 0.18415,-0.18415 0.122767,-0.04092 0.347839,-0.04092 0.204611,0 0.327377,0.04092 0.143228,0.04092 0.204611,0.18415 0.06138,0.122766 0.06138,0.368299 v 0.859366 q 0.204615,-0.347838 0.409226,-0.634294 0.204611,-0.286456 0.491066,-0.491066 0.286455,-0.225072 0.695673,-0.347839 0.42969,-0.122766 1.06398,-0.122766 0.32738,0 0.59337,0.06138 0.28646,0.06138 0.51153,0.163689 0.24553,0.102305 0.40922,0.225072 0.16369,0.122766 0.24554,0.245532 0.0818,0.122767 0.0818,0.245533 0,0.265995 -0.22507,0.450145 -0.22507,0.18415 -0.40922,0.18415 -0.22508,0 -0.34784,-0.06138 -0.10231,-0.08184 -0.22508,-0.18415 -0.12276,-0.102306 -0.3683,-0.163689 -0.24553,-0.08184 -0.75706,-0.08184 -0.30691,0 -0.67521,0.143228 -0.368301,0.122766 -0.71614,0.388761 -0.327377,0.265994 -0.552449,0.695678 -0.225072,0.429683 -0.225072,1.023054 v 5.974641 q 0,0.225072 -0.06138,0.3683 -0.04092,0.122766 -0.18415,0.163689 -0.122766,0.06138 -0.368299,0.06138 z m 11.621884,0.08184 q -1.02305,0 -1.92334,-0.388761 -0.90029,-0.38876 -1.59597,-1.063977 -0.67521,-0.675216 -1.06397,-1.575504 -0.38877,-0.900289 -0.38877,-1.923344 0,-1.043516 0.3683,-1.923343 0.38877,-0.900288 1.06398,-1.575505 0.69568,-0.695677 1.57551,-1.063977 0.90028,-0.388761 1.92334,-0.388761 1.37089,0 2.47579,0.654756 1.1049,0.634293 1.75966,1.759654 0.65475,1.104899 0.65475,2.516715 0,1.063977 -0.38876,1.964266 -0.3683,0.900288 -1.04351,1.575504 -0.65476,0.675217 -1.53459,1.063978 -0.87982,0.368299 -1.88242,0.368299 z m -0.0409,-1.104899 q 1.04352,0 1.88242,-0.511528 0.85937,-0.531988 1.35043,-1.411815 0.51153,-0.900289 0.51153,-1.984727 0,-1.104899 -0.49107,-1.964266 -0.49106,-0.859366 -1.35043,-1.329971 -0.8389,-0.491067 -1.92334,-0.491067 -1.06398,0 -1.92334,0.511528 -0.83891,0.491066 -1.35044,1.350432 -0.49106,0.859367 -0.49106,1.943805 0,1.104899 0.49106,1.984727 0.51153,0.879827 1.3709,1.391354 0.85936,0.511528 1.92334,0.511528 z"
     id="zero"
     inkscape:label="zero"
     aria-label="zero" />
  <path
     style="font-weight:300;font-size:20.4611px;font-family:Fredoka;-inkscape-font-specification:'Fredoka Light';fill:#ffffff;stroke-width:0.264583"
     d="m 79.41341,14.0813 q -0.265994,0 -0.429683,-0.06138 -0.143228,-0.06138 -0.245533,-0.265995 l -3.846687,-8.69597 q -0.143228,-0.347839 -0.04092,-0.491066 0.122766,-0.143228 0.388761,-0.286456 0.245533,-0.122767 0.429683,-0.06138 0.204611,0.04092 0.327377,0.327378 l 3.417004,8.204901 3.35562,-7.938907 q 0.122767,-0.286455 0.286456,-0.511528 0.18415,-0.225072 0.634294,0 0.429683,0.204612 0.3683,0.450145 -0.04092,0.245533 -0.143228,0.470606 l -3.805765,8.511817 q -0.08184,0.184149 -0.245533,0.265995 -0.163689,0.08184 -0.450144,0.08184 z m 11.724213,-0.04092 q -1.002593,0 -1.841499,-0.347839 -0.838905,-0.347839 -1.452738,-1.002594 -0.613833,-0.654754 -0.961671,-1.555042 -0.327378,-0.900288 -0.327378,-2.0051864 0,-1.1049002 0.327378,-1.9847276 0.347838,-0.900289 0.961671,-1.534584 0.613833,-0.654755 1.452738,-1.002594 0.838906,-0.347839 1.841499,-0.347839 0.961672,0 1.780116,0.347839 0.818444,0.347839 1.432277,1.002594 0.613833,0.654756 0.961672,1.575506 0.347838,0.9002902 0.347838,2.0051883 0,1.0844377 -0.347838,1.9847257 -0.347839,0.879827 -0.961672,1.534581 -0.613833,0.634294 -1.432277,0.982133 -0.818444,0.347839 -1.780116,0.347839 z m -4.399136,3.948989 q -0.225072,0 -0.3683,-0.06138 -0.122766,-0.06138 -0.18415,-0.204611 -0.06138,-0.122767 -0.06138,-0.347838 V 4.955651 q 0,-0.245534 0.04092,-0.3683 0.06138,-0.143228 0.18415,-0.204612 0.143228,-0.06138 0.3683,-0.06138 0.347839,0 0.470605,0.143229 0.143228,0.122766 0.143228,0.470605 v 12.419882 q 0,0.225071 -0.06138,0.368299 -0.04092,0.143227 -0.18415,0.204611 -0.122767,0.06138 -0.347839,0.06138 z m 4.214987,-5.033428 q 1.023055,0 1.821037,-0.470605 0.818444,-0.491065 1.28905,-1.350431 0.470605,-0.879827 0.470605,-2.0051864 0,-1.1458226 -0.470605,-1.9847276 -0.470606,-0.859369 -1.28905,-1.329975 -0.797982,-0.470605 -1.821037,-0.470605 -1.002594,0 -1.821038,0.491067 -0.797983,0.470605 -1.268588,1.329972 -0.470606,0.8389054 -0.470606,1.9642666 0,1.1253594 0.470606,2.0051864 0.470605,0.859366 1.268588,1.350431 0.818444,0.470605 1.821038,0.470605 z m 7.897966,1.104899 q -0.204611,0 -0.327377,-0.06138 -0.122767,-0.06138 -0.18415,-0.184149 -0.04092,-0.143228 -0.04092,-0.3683 V 4.853345 q 0,-0.204611 0.04092,-0.306916 0.06138,-0.122767 0.18415,-0.16369 0.143227,-0.06138 0.347838,-0.06138 0.143228,0 0.245534,0.04092 0.102305,0.02046 0.163688,0.08184 0.06138,0.06138 0.08185,0.163689 0.04092,0.102306 0.04092,0.245533 v 1.207206 q 0.265994,-0.347839 0.593372,-0.654756 0.327375,-0.327377 0.716135,-0.572911 0.40922,-0.265994 0.87983,-0.409222 0.49106,-0.143225 1.08443,-0.143225 0.87983,0 1.61643,0.306914 0.75706,0.286455 1.30951,0.859367 0.55245,0.55245 0.85937,1.370895 0.30691,0.797983 0.30691,1.8415016 v 4.8083544 q 0,0.225072 -0.0614,0.3683 -0.0409,0.122766 -0.16369,0.163689 -0.12276,0.06138 -0.34784,0.06138 -0.22507,0 -0.3683,-0.06138 -0.12276,-0.06138 -0.18415,-0.18415 -0.0409,-0.143228 -0.0409,-0.3683 V 8.6386469 q 0,-1.0025939 -0.32738,-1.7391949 -0.32737,-0.7366 -0.98213,-1.145822 -0.65475,-0.409222 -1.65735,-0.409222 -0.98213,0 -1.69827,0.409222 -0.71614,0.409222 -1.104894,1.145822 -0.388761,0.736601 -0.388761,1.7391949 v 4.8288171 q 0,0.225072 -0.06138,0.368299 -0.04092,0.122766 -0.18415,0.16369 -0.122767,0.06138 -0.347839,0.06138 z"
     id="vpn"
     inkscape:label="vpn"
     aria-label="vpn" />
  <path
     id="divider"
     style="font-weight:300;font-size:23.9889px;font-family:Fredoka;-inkscape-font-specification:'Fredoka Light';letter-spacing:0px;fill:#ffffff;stroke-width:0.264583"
     inkscape:label="divider"
     d="m 68.912054,0 c -0.175919,0 -0.31955,0.02385 -0.431498,0.07183 -0.09595,0.03198 -0.168028,0.104059 -0.216008,0.216007 -0.03199,0.09596 -0.04806,0.231808 -0.04806,0.407727 v 17.991668 1.943034 17.991666 c 0,0.0301 6.14e-4,0.05906 0.0015,0.08682 -9.36e-4,0.02776 -0.0015,0.05672 -0.0015,0.08682 v 19.934701 c 0,0.175918 0.01607,0.312287 0.04806,0.408243 0.04798,0.111946 0.120052,0.191799 0.216008,0.239779 0.111948,0.04798 0.247801,0.07183 0.407727,0.07183 0.175918,0 0.311771,-0.02385 0.407727,-0.07183 0.111946,-0.03198 0.18402,-0.104059 0.216007,-0.216007 0.04798,-0.09596 0.07183,-0.231809 0.07183,-0.407727 v -19.91093 c 0,-0.03597 -8.98e-4,-0.07024 -0.0026,-0.102836 0.0017,-0.03016 0.0026,-0.0616 0.0026,-0.09457 V 20.654554 18.735291 0.743624 c 0,-0.191912 -0.02385,-0.336059 -0.07183,-0.432015 C 69.480037,0.199663 69.415737,0.119811 69.319781,0.071831 69.223821,0.023851 69.087972,1e-6 68.912054,1e-6 Z" />
  <path
     style="font-weight:bold;font-size:20.4611px;font-family:Fredoka;-inkscape-font-specification:'Fredoka Bold';fill:#ffffff;stroke-width:0.264583"
     d="m 5.6063413,34.676404 q -1.0025938,0 -1.7391934,-0.409222 Q 3.1305483,33.85796 2.659943,33.162283 2.1893377,32.446144 1.9642656,31.545856 1.7391935,30.645568 1.7596546,29.642974 1.7801157,28.660841 2.0051878,27.740091 2.250721,26.819342 2.7213263,26.103203 3.1919316,25.387065 3.9080701,24.977843 4.6242086,24.54816 5.6063413,24.54816 q 0.9002884,0 1.7391935,0.429683 0.8593662,0.429683 1.5345825,1.166283 0.6752163,0.716138 1.0639772,1.636888 0.3887605,0.920749 0.3887605,1.902882 0,1.023055 -0.3887605,1.943804 -0.3887609,0.900289 -1.0639772,1.595966 -0.6547552,0.675216 -1.5141214,1.063977 -0.8389051,0.388761 -1.7596546,0.388761 z M 1.8210379,39.25969 q -0.90028841,0 -1.28904931,-0.265994 Q 0.1432277,38.727702 0.0613833,38.31848 0,37.909258 0,37.459114 V 26.348737 q 0,-0.450145 0.0613833,-0.859367 0.0818444,-0.409222 0.45014419,-0.675216 0.3887609,-0.286455 1.28904931,-0.286455 0.7161385,0 1.1867438,0.204611 0.4706053,0.18415 0.6752163,0.593372 v 12.112971 q 0.040922,0.450144 -0.061383,0.859366 -0.081844,0.429683 -0.4706053,0.695677 -0.3887609,0.265994 -1.3095107,0.265994 z m 3.294237,-8.061673 q 0.409222,0 0.7365996,-0.204611 0.3478387,-0.204611 0.5524497,-0.531988 0.204611,-0.347839 0.204611,-0.7366 0,-0.409222 -0.204611,-0.7366 Q 6.2201743,28.64038 5.8723356,28.45623 5.544958,28.251619 5.135736,28.251619 q -0.4092219,0 -0.7570606,0.204611 -0.3273776,0.204611 -0.5319886,0.531988 -0.1841499,0.327378 -0.1841499,0.7366 0,0.388761 0.204611,0.7366 0.204611,0.327377 0.5319886,0.531988 0.3273776,0.204611 0.7161384,0.204611 z m 7.8775311,3.72392 q -0.920749,0 -1.30951,-0.265994 -0.388761,-0.286455 -0.470605,-0.716138 -0.06138,-0.450145 -0.06138,-0.900289 v -6.670318 q 0,-0.470606 0.08185,-0.879828 0.08184,-0.429683 0.470605,-0.695677 0.388761,-0.265994 1.30951,-0.265994 0.900289,0 1.268588,0.245533 0.388761,0.245533 0.470606,0.55245 0.08184,0.286455 0.08184,0.450144 l -0.327382,-0.122767 q 0,0 0.163688,-0.18415 0.163689,-0.18415 0.470606,-0.429683 0.327377,-0.245533 0.75706,-0.429683 0.450145,-0.18415 1.002594,-0.18415 0.18415,0 0.450144,0.04092 0.286456,0.02046 0.593372,0.102306 0.327378,0.08184 0.593372,0.245533 0.286456,0.163689 0.450144,0.429683 0.18415,0.265994 0.18415,0.654755 0,1.023055 -0.450144,1.739194 -0.429683,0.716138 -1.145822,0.716138 -0.38876,0 -0.552449,-0.04092 -0.163689,-0.06138 -0.245533,-0.102305 -0.06138,-0.06138 -0.163689,-0.102306 -0.08184,-0.06138 -0.327378,-0.06138 -0.306916,0 -0.572911,0.08184 -0.245533,0.06138 -0.450144,0.204611 -0.18415,0.143228 -0.286455,0.347839 -0.102306,0.18415 -0.102306,0.409222 v 3.989914 q 0,0.450145 -0.08184,0.879828 -0.08184,0.429683 -0.470605,0.695677 -0.388761,0.265994 -1.329972,0.265994 z m 8.941485,0 q -0.92075,0 -1.309511,-0.265994 -0.388761,-0.286455 -0.470605,-0.716138 -0.06138,-0.429684 -0.06138,-0.879828 v -6.670318 q 0,-0.450144 0.08184,-0.859366 0.08184,-0.429684 0.470605,-0.695678 0.388761,-0.286455 1.309511,-0.286455 0.920749,0 1.289049,0.286455 0.388761,0.265994 0.470605,0.695678 0.08185,0.429683 0.08185,0.900288 v 6.649857 q 0,0.450145 -0.08185,0.879828 -0.08184,0.429683 -0.470605,0.695677 -0.3683,0.265994 -1.30951,0.265994 z m 0,-11.376371 q -0.92075,0 -1.309511,-0.265994 -0.388761,-0.286456 -0.470605,-0.716139 -0.06138,-0.429683 -0.06138,-0.879827 0,-0.470605 0.08184,-0.879827 0.08184,-0.429684 0.470605,-0.695678 0.388761,-0.265994 1.309511,-0.265994 0.920749,0 1.289049,0.286455 0.388761,0.265995 0.470605,0.695678 0.08185,0.429683 0.08185,0.879827 0,0.450144 -0.08185,0.879827 -0.08184,0.429683 -0.470605,0.695678 -0.3683,0.265994 -1.30951,0.265994 z m 8.757339,11.376371 q -1.084438,0 -1.882421,-0.245533 -0.797983,-0.245533 -1.329971,-0.757061 -0.511528,-0.511527 -0.777522,-1.289049 -0.245533,-0.777522 -0.245533,-1.821038 V 22.87035 q 0,-0.470606 0.08184,-0.859367 0.08184,-0.409222 0.470605,-0.654755 0.388761,-0.265994 1.309511,-0.265994 0.900288,0 1.289049,0.286455 0.388761,0.265995 0.470605,0.695678 0.08185,0.429683 0.08185,0.879827 v 7.672912 q 0,0.225073 0.02046,0.388761 0.04092,0.143228 0.102305,0.225072 0.06138,0.08184 0.163689,0.122767 0.102306,0.04092 0.265994,0.04092 0.531989,0 0.941211,0.08184 0.429683,0.08184 0.654755,0.429683 0.245533,0.347838 0.245533,1.166282 0,0.92075 -0.286455,1.309511 -0.286455,0.388761 -0.716138,0.450144 -0.429684,0.08184 -0.859367,0.08184 z M 26.0265,24.650465 h 2.393948 L 31.24408,24.54816 q 0.450144,0 0.859366,0.08184 0.429683,0.08184 0.695678,0.470605 0.286455,0.388761 0.286455,1.329972 0,0.859366 -0.286455,1.248127 -0.265995,0.388761 -0.695678,0.491066 -0.409222,0.102306 -0.879827,0.102306 l -2.59856,-0.06138 h -2.680404 q -0.695677,-0.04092 -0.961671,-0.450145 -0.265995,-0.409222 -0.265995,-1.350433 0,-0.879827 0.327378,-1.30951 0.327377,-0.450144 0.982133,-0.450144 z m 12.522211,10.23055 q -0.982133,0 -1.841499,-0.388761 -0.838905,-0.388761 -1.473199,-1.084438 -0.634294,-0.716139 -0.982133,-1.657349 -0.347839,-0.941211 -0.347839,-2.04611 v -3.335159 q 0,-0.470606 0.08185,-0.879828 0.08184,-0.429683 0.470605,-0.695677 0.388761,-0.286455 1.30951,-0.286455 0.941211,0 1.309511,0.286455 0.388761,0.265994 0.470605,0.695677 0.08185,0.429683 0.08185,0.900289 v 3.314698 q 0,0.470605 0.163688,0.797983 0.18415,0.327377 0.511528,0.511527 0.347839,0.163689 0.797983,0.163689 0.450144,0 0.777521,-0.18415 0.327378,-0.18415 0.511528,-0.511527 0.18415,-0.327378 0.18415,-0.777522 v -3.35562 q 0,-0.470606 0.08184,-0.879828 0.08185,-0.429683 0.470606,-0.695677 0.38876,-0.265994 1.30951,-0.265994 0.941211,0 1.30951,0.286455 0.388761,0.265994 0.470606,0.695677 0.08184,0.429683 0.08184,0.879828 v 6.731701 q 0,0.450145 -0.08184,0.859367 -0.08185,0.409222 -0.470606,0.675216 -0.388761,0.265994 -1.30951,0.265994 -0.675216,0 -1.063977,-0.163689 -0.3683,-0.143227 -0.531989,-0.368299 -0.163689,-0.245534 -0.204611,-0.470606 -0.02046,-0.245533 -0.02046,-0.409222 l 0.347839,0.102306 q 0,0 -0.163689,0.204611 -0.163689,0.18415 -0.491066,0.450144 -0.306917,0.245533 -0.757061,0.450144 -0.429683,0.18415 -1.002594,0.18415 z m 8.818747,0.02046 q -0.920749,0 -1.30951,-0.265994 -0.388761,-0.286455 -0.470606,-0.716139 -0.06138,-0.429683 -0.06138,-0.879827 v -6.731701 q 0,-0.450144 0.08185,-0.859366 0.08184,-0.409222 0.470605,-0.654755 0.388761,-0.265994 1.30951,-0.265994 0.838905,0 1.207205,0.225072 0.388761,0.204611 0.491066,0.511527 0.102306,0.306917 0.08185,0.572911 0,0.245533 0.04092,0.306917 l -0.163689,0.122766 q -0.02046,-0.306916 0.225072,-0.613833 0.265995,-0.306916 0.675217,-0.55245 0.429683,-0.265994 0.900288,-0.409222 0.491066,-0.163688 0.92075,-0.163688 1.023054,0 1.800576,0.388761 0.777522,0.38876 1.28905,1.104899 0.531988,0.695677 0.797982,1.636888 0.265995,0.941211 0.265995,2.04611 v 3.35562 q 0,0.450144 -0.08185,0.879828 -0.08184,0.429683 -0.470605,0.695677 -0.3683,0.265994 -1.30951,0.265994 -0.941211,0 -1.329972,-0.265994 -0.388761,-0.286455 -0.470605,-0.716139 -0.08184,-0.429683 -0.08184,-0.879827 v -3.335159 q 0,-0.470605 -0.18415,-0.797983 -0.163689,-0.327378 -0.491067,-0.491066 -0.306916,-0.18415 -0.777522,-0.18415 -0.450144,0 -0.797982,0.18415 -0.327378,0.18415 -0.511528,0.511527 -0.18415,0.327378 -0.18415,0.777522 v 3.35562 q 0,0.450144 -0.08184,0.879828 -0.08185,0.429683 -0.470606,0.695677 -0.368299,0.265994 -1.30951,0.265994 z m 14.077236,0.02046 q -0.94121,0 -1.657349,-0.08184 -0.695677,-0.08184 -1.186743,-0.327378 -0.491067,-0.245533 -0.797983,-0.695677 -0.306917,-0.470605 -0.450144,-1.207205 -0.143228,-0.757061 -0.143228,-1.882421 v -9.064269 q 0,-0.470606 0.08184,-0.879828 0.08184,-0.429683 0.470606,-0.695677 0.38876,-0.286455 1.30951,-0.286455 0.920749,0 1.289049,0.286455 0.388761,0.265994 0.470605,0.695677 0.08185,0.429684 0.08185,0.900289 v 8.818734 q 0,0.306916 0,0.491066 0.02046,0.163689 0.06138,0.245533 0.06138,0.08184 0.163689,0.102306 0.122767,0 0.327378,0 0.265994,0 0.552449,0.08184 0.306917,0.06138 0.511528,0.429683 0.225072,0.347839 0.225072,1.227666 0,0.92075 -0.225072,1.309511 -0.204611,0.388761 -0.511528,0.450144 -0.306916,0.08184 -0.572911,0.08184 z"
     id="pritunl"
     inkscape:label="pritunl"
     aria-label="pritunl" />
</svg>
